M48
; DRILL file {KiCad (6.0.8-1)-1} date Monday, October 31, 2022 at 12:24:26 AM
; FORMAT={-:-/ absolute / inch / decimal}
; #@! TF.CreationDate,2022-10-31T00:24:26-07:00
; #@! TF.GenerationSoftware,Kicad,Pcbnew,(6.0.8-1)-1
; #@! TF.FileFunction,Plated,1,2,PTH
FMAT,2
INCH
; #@! TA.AperFunction,Plated,PTH,ViaDrill
T1C0.0157
; #@! TA.AperFunction,Plated,PTH,ComponentDrill
T2C0.0236
; #@! TA.AperFunction,Plated,PTH,ComponentDrill
T3C0.1181
%
G90
G05
T1
X4.6673Y-2.525
X4.6673Y-2.59
X5.03Y-2.675
X5.03Y-3.36
X5.18Y-2.61
X5.28Y-2.945
X5.28Y-3.155
X5.9Y-3.395
X6.045Y-2.915
T3
X6.2875Y-2.4625
X6.2875Y-3.2125
X6.5375Y-2.3625
X6.5375Y-3.1125
X7.0375Y-2.4625
X7.0375Y-3.2125
X7.2875Y-2.3625
X7.2875Y-3.1125
T2
G00X4.6022Y-2.2148
M15
G01X4.6022Y-2.2384
M16
G05
G00X4.6022Y-2.3695
M15
G01X4.6022Y-2.4128
M16
G05
G00X4.9424Y-2.2148
M15
G01X4.9424Y-2.2384
M16
G05
G00X4.9424Y-2.3695
M15
G01X4.9424Y-2.4128
M16
G05
T0
M30
