G04 #@! TF.GenerationSoftware,KiCad,Pcbnew,(6.0.8-1)-1*
G04 #@! TF.CreationDate,2022-10-31T00:23:31-07:00*
G04 #@! TF.ProjectId,hayabusa04,68617961-6275-4736-9130-342e6b696361,rev?*
G04 #@! TF.SameCoordinates,Original*
G04 #@! TF.FileFunction,Soldermask,Bot*
G04 #@! TF.FilePolarity,Negative*
%FSLAX46Y46*%
G04 Gerber Fmt 4.6, Leading zero omitted, Abs format (unit mm)*
G04 Created by KiCad (PCBNEW (6.0.8-1)-1) date 2022-10-31 00:23:31*
%MOMM*%
%LPD*%
G01*
G04 APERTURE LIST*
G04 Aperture macros list*
%AMRoundRect*
0 Rectangle with rounded corners*
0 $1 Rounding radius*
0 $2 $3 $4 $5 $6 $7 $8 $9 X,Y pos of 4 corners*
0 Add a 4 corners polygon primitive as box body*
4,1,4,$2,$3,$4,$5,$6,$7,$8,$9,$2,$3,0*
0 Add four circle primitives for the rounded corners*
1,1,$1+$1,$2,$3*
1,1,$1+$1,$4,$5*
1,1,$1+$1,$6,$7*
1,1,$1+$1,$8,$9*
0 Add four rect primitives between the rounded corners*
20,1,$1+$1,$2,$3,$4,$5,0*
20,1,$1+$1,$4,$5,$6,$7,0*
20,1,$1+$1,$6,$7,$8,$9,0*
20,1,$1+$1,$8,$9,$2,$3,0*%
G04 Aperture macros list end*
%ADD10RoundRect,0.243750X0.456250X-0.243750X0.456250X0.243750X-0.456250X0.243750X-0.456250X-0.243750X0*%
%ADD11RoundRect,0.243750X-0.456250X0.243750X-0.456250X-0.243750X0.456250X-0.243750X0.456250X0.243750X0*%
%ADD12RoundRect,0.243750X0.243750X0.456250X-0.243750X0.456250X-0.243750X-0.456250X0.243750X-0.456250X0*%
%ADD13R,1.800000X1.100000*%
%ADD14R,1.500000X0.550000*%
%ADD15R,0.550000X1.500000*%
%ADD16R,1.400000X1.200000*%
%ADD17C,3.987800*%
%ADD18C,1.750000*%
%ADD19C,3.300000*%
%ADD20RoundRect,0.250000X1.025000X1.000000X-1.025000X1.000000X-1.025000X-1.000000X1.025000X-1.000000X0*%
%ADD21RoundRect,0.250000X-0.450000X0.262500X-0.450000X-0.262500X0.450000X-0.262500X0.450000X0.262500X0*%
%ADD22C,0.650000*%
%ADD23R,0.600000X1.450000*%
%ADD24R,0.300000X1.450000*%
%ADD25O,1.000000X2.100000*%
%ADD26O,1.000000X1.600000*%
%ADD27RoundRect,0.250000X0.450000X-0.262500X0.450000X0.262500X-0.450000X0.262500X-0.450000X-0.262500X0*%
%ADD28RoundRect,0.150000X0.512500X0.150000X-0.512500X0.150000X-0.512500X-0.150000X0.512500X-0.150000X0*%
%ADD29RoundRect,0.250000X-0.625000X0.375000X-0.625000X-0.375000X0.625000X-0.375000X0.625000X0.375000X0*%
G04 APERTURE END LIST*
D10*
X152209500Y-73962500D03*
X152209500Y-72087500D03*
X146621500Y-64183500D03*
X146621500Y-62308500D03*
D11*
X137223500Y-62308500D03*
X137223500Y-64183500D03*
D10*
X133159500Y-68042000D03*
X133159500Y-66167000D03*
D12*
X147368500Y-86106000D03*
X145493500Y-86106000D03*
X132890500Y-75565000D03*
X131015500Y-75565000D03*
D11*
X131953000Y-80596500D03*
X131953000Y-82471500D03*
D10*
X119819067Y-70455000D03*
X119819067Y-68580000D03*
D11*
X122105067Y-68580000D03*
X122105067Y-70455000D03*
X129159000Y-66118500D03*
X129159000Y-67993500D03*
D10*
X152209500Y-82471500D03*
X152209500Y-80596500D03*
D13*
X121562000Y-90369000D03*
X127762000Y-86669000D03*
X121562000Y-86669000D03*
X127762000Y-90369000D03*
D14*
X136491500Y-80670000D03*
X136491500Y-79870000D03*
X136491500Y-79070000D03*
X136491500Y-78270000D03*
X136491500Y-77470000D03*
X136491500Y-76670000D03*
X136491500Y-75870000D03*
X136491500Y-75070000D03*
X136491500Y-74270000D03*
X136491500Y-73470000D03*
X136491500Y-72670000D03*
D15*
X138191500Y-70970000D03*
X138991500Y-70970000D03*
X139791500Y-70970000D03*
X140591500Y-70970000D03*
X141391500Y-70970000D03*
X142191500Y-70970000D03*
X142991500Y-70970000D03*
X143791500Y-70970000D03*
X144591500Y-70970000D03*
X145391500Y-70970000D03*
X146191500Y-70970000D03*
D14*
X147891500Y-72670000D03*
X147891500Y-73470000D03*
X147891500Y-74270000D03*
X147891500Y-75070000D03*
X147891500Y-75870000D03*
X147891500Y-76670000D03*
X147891500Y-77470000D03*
X147891500Y-78270000D03*
X147891500Y-79070000D03*
X147891500Y-79870000D03*
X147891500Y-80670000D03*
D15*
X146191500Y-82370000D03*
X145391500Y-82370000D03*
X144591500Y-82370000D03*
X143791500Y-82370000D03*
X142991500Y-82370000D03*
X142191500Y-82370000D03*
X141391500Y-82370000D03*
X140591500Y-82370000D03*
X139791500Y-82370000D03*
X138991500Y-82370000D03*
X138191500Y-82370000D03*
D16*
X143022500Y-64096000D03*
X140822500Y-64096000D03*
X140822500Y-62396000D03*
X143022500Y-62396000D03*
D17*
X182562500Y-65087500D03*
D18*
X187642500Y-65087500D03*
X177482500Y-65087500D03*
D19*
X178752500Y-62547500D03*
D20*
X175202500Y-62547500D03*
X188652500Y-60007500D03*
D19*
X185102500Y-60007500D03*
D17*
X182562500Y-84137500D03*
D18*
X177482500Y-84137500D03*
X187642500Y-84137500D03*
D19*
X178752500Y-81597500D03*
D20*
X175202500Y-81597500D03*
X188652500Y-79057500D03*
D19*
X185102500Y-79057500D03*
D21*
X124391067Y-65000500D03*
X124391067Y-66825500D03*
D22*
X118326067Y-60206000D03*
X124106067Y-60206000D03*
D23*
X117966067Y-61651000D03*
X118766067Y-61651000D03*
D24*
X119966067Y-61651000D03*
X120966067Y-61651000D03*
X121466067Y-61651000D03*
X122466067Y-61651000D03*
D23*
X123666067Y-61651000D03*
X124466067Y-61651000D03*
X124466067Y-61651000D03*
X123666067Y-61651000D03*
D24*
X122966067Y-61651000D03*
X121966067Y-61651000D03*
X120466067Y-61651000D03*
X119466067Y-61651000D03*
D23*
X118766067Y-61651000D03*
X117966067Y-61651000D03*
D25*
X125536067Y-60736000D03*
X116896067Y-60736000D03*
D26*
X125536067Y-56556000D03*
X116896067Y-56556000D03*
D17*
X163512500Y-65087500D03*
D18*
X168592500Y-65087500D03*
X158432500Y-65087500D03*
D20*
X156152500Y-62547500D03*
D19*
X159702500Y-62547500D03*
D20*
X169602500Y-60007500D03*
D19*
X166052500Y-60007500D03*
D27*
X117279067Y-66825500D03*
X117279067Y-65000500D03*
D28*
X122124967Y-64963000D03*
X122124967Y-65913000D03*
X122124967Y-66863000D03*
X119849967Y-66863000D03*
X119849967Y-65913000D03*
X119849967Y-64963000D03*
D18*
X168592500Y-84137500D03*
D17*
X163512500Y-84137500D03*
D18*
X158432500Y-84137500D03*
D20*
X156152500Y-81597500D03*
D19*
X159702500Y-81597500D03*
D20*
X169602500Y-79057500D03*
D19*
X166052500Y-79057500D03*
D29*
X115882067Y-73530000D03*
X115882067Y-76330000D03*
M02*
