G04 #@! TF.GenerationSoftware,KiCad,Pcbnew,(6.0.8-1)-1*
G04 #@! TF.CreationDate,2022-10-31T00:23:31-07:00*
G04 #@! TF.ProjectId,hayabusa04,68617961-6275-4736-9130-342e6b696361,rev?*
G04 #@! TF.SameCoordinates,Original*
G04 #@! TF.FileFunction,Copper,L2,Bot*
G04 #@! TF.FilePolarity,Positive*
%FSLAX46Y46*%
G04 Gerber Fmt 4.6, Leading zero omitted, Abs format (unit mm)*
G04 Created by KiCad (PCBNEW (6.0.8-1)-1) date 2022-10-31 00:23:31*
%MOMM*%
%LPD*%
G01*
G04 APERTURE LIST*
G04 Aperture macros list*
%AMRoundRect*
0 Rectangle with rounded corners*
0 $1 Rounding radius*
0 $2 $3 $4 $5 $6 $7 $8 $9 X,Y pos of 4 corners*
0 Add a 4 corners polygon primitive as box body*
4,1,4,$2,$3,$4,$5,$6,$7,$8,$9,$2,$3,0*
0 Add four circle primitives for the rounded corners*
1,1,$1+$1,$2,$3*
1,1,$1+$1,$4,$5*
1,1,$1+$1,$6,$7*
1,1,$1+$1,$8,$9*
0 Add four rect primitives between the rounded corners*
20,1,$1+$1,$2,$3,$4,$5,0*
20,1,$1+$1,$4,$5,$6,$7,0*
20,1,$1+$1,$6,$7,$8,$9,0*
20,1,$1+$1,$8,$9,$2,$3,0*%
G04 Aperture macros list end*
G04 #@! TA.AperFunction,SMDPad,CuDef*
%ADD10RoundRect,0.243750X0.456250X-0.243750X0.456250X0.243750X-0.456250X0.243750X-0.456250X-0.243750X0*%
G04 #@! TD*
G04 #@! TA.AperFunction,SMDPad,CuDef*
%ADD11RoundRect,0.243750X-0.456250X0.243750X-0.456250X-0.243750X0.456250X-0.243750X0.456250X0.243750X0*%
G04 #@! TD*
G04 #@! TA.AperFunction,SMDPad,CuDef*
%ADD12RoundRect,0.243750X0.243750X0.456250X-0.243750X0.456250X-0.243750X-0.456250X0.243750X-0.456250X0*%
G04 #@! TD*
G04 #@! TA.AperFunction,SMDPad,CuDef*
%ADD13R,1.800000X1.100000*%
G04 #@! TD*
G04 #@! TA.AperFunction,SMDPad,CuDef*
%ADD14R,1.500000X0.550000*%
G04 #@! TD*
G04 #@! TA.AperFunction,SMDPad,CuDef*
%ADD15R,0.550000X1.500000*%
G04 #@! TD*
G04 #@! TA.AperFunction,SMDPad,CuDef*
%ADD16R,1.400000X1.200000*%
G04 #@! TD*
G04 #@! TA.AperFunction,SMDPad,CuDef*
%ADD17R,1.650000X2.500000*%
G04 #@! TD*
G04 #@! TA.AperFunction,ComponentPad*
%ADD18C,3.300000*%
G04 #@! TD*
G04 #@! TA.AperFunction,SMDPad,CuDef*
%ADD19RoundRect,0.250000X1.025000X1.000000X-1.025000X1.000000X-1.025000X-1.000000X1.025000X-1.000000X0*%
G04 #@! TD*
G04 #@! TA.AperFunction,SMDPad,CuDef*
%ADD20RoundRect,0.250000X-0.450000X0.262500X-0.450000X-0.262500X0.450000X-0.262500X0.450000X0.262500X0*%
G04 #@! TD*
G04 #@! TA.AperFunction,SMDPad,CuDef*
%ADD21R,0.600000X1.450000*%
G04 #@! TD*
G04 #@! TA.AperFunction,SMDPad,CuDef*
%ADD22R,0.300000X1.450000*%
G04 #@! TD*
G04 #@! TA.AperFunction,ComponentPad*
%ADD23O,1.000000X2.100000*%
G04 #@! TD*
G04 #@! TA.AperFunction,ComponentPad*
%ADD24O,1.000000X1.600000*%
G04 #@! TD*
G04 #@! TA.AperFunction,SMDPad,CuDef*
%ADD25RoundRect,0.250000X0.450000X-0.262500X0.450000X0.262500X-0.450000X0.262500X-0.450000X-0.262500X0*%
G04 #@! TD*
G04 #@! TA.AperFunction,SMDPad,CuDef*
%ADD26RoundRect,0.150000X0.512500X0.150000X-0.512500X0.150000X-0.512500X-0.150000X0.512500X-0.150000X0*%
G04 #@! TD*
G04 #@! TA.AperFunction,SMDPad,CuDef*
%ADD27RoundRect,0.250000X-0.625000X0.375000X-0.625000X-0.375000X0.625000X-0.375000X0.625000X0.375000X0*%
G04 #@! TD*
G04 #@! TA.AperFunction,ViaPad*
%ADD28C,0.800000*%
G04 #@! TD*
G04 #@! TA.AperFunction,Conductor*
%ADD29C,0.381000*%
G04 #@! TD*
G04 #@! TA.AperFunction,Conductor*
%ADD30C,0.254000*%
G04 #@! TD*
G04 #@! TA.AperFunction,Conductor*
%ADD31C,0.200000*%
G04 #@! TD*
G04 #@! TA.AperFunction,Conductor*
%ADD32C,0.149200*%
G04 #@! TD*
G04 APERTURE END LIST*
D10*
X152209500Y-73962500D03*
X152209500Y-72087500D03*
X146621500Y-64183500D03*
X146621500Y-62308500D03*
D11*
X137223500Y-62308500D03*
X137223500Y-64183500D03*
D10*
X133159500Y-68042000D03*
X133159500Y-66167000D03*
D12*
X147368500Y-86106000D03*
X145493500Y-86106000D03*
X132890500Y-75565000D03*
X131015500Y-75565000D03*
D11*
X131953000Y-80596500D03*
X131953000Y-82471500D03*
D10*
X119819067Y-70455000D03*
X119819067Y-68580000D03*
D11*
X122105067Y-68580000D03*
X122105067Y-70455000D03*
X129159000Y-66118500D03*
X129159000Y-67993500D03*
D10*
X152209500Y-82471500D03*
X152209500Y-80596500D03*
D13*
X121562000Y-90369000D03*
X127762000Y-86669000D03*
X121562000Y-86669000D03*
X127762000Y-90369000D03*
D14*
X136491500Y-80670000D03*
X136491500Y-79870000D03*
X136491500Y-79070000D03*
X136491500Y-78270000D03*
X136491500Y-77470000D03*
X136491500Y-76670000D03*
X136491500Y-75870000D03*
X136491500Y-75070000D03*
X136491500Y-74270000D03*
X136491500Y-73470000D03*
X136491500Y-72670000D03*
D15*
X138191500Y-70970000D03*
X138991500Y-70970000D03*
X139791500Y-70970000D03*
X140591500Y-70970000D03*
X141391500Y-70970000D03*
X142191500Y-70970000D03*
X142991500Y-70970000D03*
X143791500Y-70970000D03*
X144591500Y-70970000D03*
X145391500Y-70970000D03*
X146191500Y-70970000D03*
D14*
X147891500Y-72670000D03*
X147891500Y-73470000D03*
X147891500Y-74270000D03*
X147891500Y-75070000D03*
X147891500Y-75870000D03*
X147891500Y-76670000D03*
X147891500Y-77470000D03*
X147891500Y-78270000D03*
X147891500Y-79070000D03*
X147891500Y-79870000D03*
X147891500Y-80670000D03*
D15*
X146191500Y-82370000D03*
X145391500Y-82370000D03*
X144591500Y-82370000D03*
X143791500Y-82370000D03*
X142991500Y-82370000D03*
X142191500Y-82370000D03*
X141391500Y-82370000D03*
X140591500Y-82370000D03*
X139791500Y-82370000D03*
X138991500Y-82370000D03*
X138191500Y-82370000D03*
D16*
X143022500Y-64096000D03*
X140822500Y-64096000D03*
X140822500Y-62396000D03*
X143022500Y-62396000D03*
D17*
X176927500Y-62547500D03*
D18*
X178752500Y-62547500D03*
D19*
X175202500Y-62547500D03*
X188652500Y-60007500D03*
D18*
X185102500Y-60007500D03*
D17*
X186902500Y-60007500D03*
D18*
X178752500Y-81597500D03*
D17*
X176927500Y-81597500D03*
D19*
X175202500Y-81597500D03*
D17*
X186902500Y-79057500D03*
D19*
X188652500Y-79057500D03*
D18*
X185102500Y-79057500D03*
D20*
X124391067Y-65000500D03*
X124391067Y-66825500D03*
D21*
X117966067Y-61651000D03*
X118766067Y-61651000D03*
D22*
X119966067Y-61651000D03*
X120966067Y-61651000D03*
X121466067Y-61651000D03*
X122466067Y-61651000D03*
D21*
X123666067Y-61651000D03*
X124466067Y-61651000D03*
X124466067Y-61651000D03*
X123666067Y-61651000D03*
D22*
X122966067Y-61651000D03*
X121966067Y-61651000D03*
X120466067Y-61651000D03*
X119466067Y-61651000D03*
D21*
X118766067Y-61651000D03*
X117966067Y-61651000D03*
D23*
X125536067Y-60736000D03*
X116896067Y-60736000D03*
D24*
X125536067Y-56556000D03*
X116896067Y-56556000D03*
D19*
X156152500Y-62547500D03*
D17*
X157877500Y-62547500D03*
D18*
X159702500Y-62547500D03*
D17*
X167852500Y-60007500D03*
D19*
X169602500Y-60007500D03*
D18*
X166052500Y-60007500D03*
D25*
X117279067Y-66825500D03*
X117279067Y-65000500D03*
D26*
X122124967Y-64963000D03*
X122124967Y-65913000D03*
X122124967Y-66863000D03*
X119849967Y-66863000D03*
X119849967Y-65913000D03*
X119849967Y-64963000D03*
D17*
X157877500Y-81597500D03*
D19*
X156152500Y-81597500D03*
D18*
X159702500Y-81597500D03*
D19*
X169602500Y-79057500D03*
D17*
X167852500Y-79057500D03*
D18*
X166052500Y-79057500D03*
D27*
X115882067Y-73530000D03*
X115882067Y-76330000D03*
D28*
X134112000Y-80137000D03*
X131572000Y-66294000D03*
X153543000Y-74041000D03*
X134112000Y-74803000D03*
X149860000Y-86233000D03*
X127762000Y-67945000D03*
X127762000Y-85344000D03*
X118549067Y-64135000D03*
X118549067Y-65786000D03*
D29*
X131826000Y-77470000D02*
X136491500Y-77470000D01*
X140589000Y-72103500D02*
X140589000Y-72898000D01*
X146278000Y-72670000D02*
X147891500Y-72670000D01*
X136398000Y-60071000D02*
X141986000Y-60071000D01*
X123883067Y-65903500D02*
X124391067Y-66411500D01*
X136491500Y-77470000D02*
X137622500Y-77470000D01*
X137223500Y-64183500D02*
X136423500Y-64183500D01*
X137223500Y-64960500D02*
X137668000Y-65405000D01*
X145391500Y-82370000D02*
X145391500Y-84558500D01*
X140591500Y-66804500D02*
X140591500Y-69593500D01*
X135128000Y-66802000D02*
X139446000Y-66802000D01*
X141986000Y-60071000D02*
X143022500Y-61107500D01*
X116896067Y-60788000D02*
X116896067Y-61339000D01*
X144173000Y-78839000D02*
X144399000Y-78613000D01*
X144399000Y-74549000D02*
X144399000Y-78613000D01*
X139192000Y-65405000D02*
X140591500Y-66804500D01*
X140591500Y-70970000D02*
X140591500Y-72101000D01*
X149527500Y-72087500D02*
X152209500Y-72087500D01*
X125536067Y-60788000D02*
X125536067Y-61339000D01*
X140591500Y-69839000D02*
X140591500Y-70970000D01*
X143022500Y-61107500D02*
X143022500Y-62396000D01*
X142240000Y-74549000D02*
X144399000Y-74549000D01*
X138991500Y-78839000D02*
X144173000Y-78839000D01*
X136017000Y-84582000D02*
X137922000Y-84582000D01*
X116896067Y-61339000D02*
X117279067Y-61722000D01*
X150114000Y-88900000D02*
X152209500Y-86804500D01*
X145391500Y-79605500D02*
X145391500Y-82370000D01*
X147193000Y-88900000D02*
X150114000Y-88900000D01*
X131015500Y-75565000D02*
X131015500Y-76659500D01*
X137223500Y-64183500D02*
X137223500Y-64960500D01*
X145493500Y-84660500D02*
X145493500Y-86106000D01*
X140589000Y-72898000D02*
X142240000Y-74549000D01*
X122134467Y-65903500D02*
X123883067Y-65903500D01*
X140822500Y-64096000D02*
X141019598Y-64096000D01*
X124391067Y-66411500D02*
X124391067Y-66825500D01*
X145493500Y-86106000D02*
X145493500Y-87200500D01*
X144399000Y-78613000D02*
X145391500Y-79605500D01*
X131953000Y-82471500D02*
X133906500Y-82471500D01*
X148945000Y-72670000D02*
X149527500Y-72087500D01*
X125153067Y-61722000D02*
X124485067Y-61722000D01*
X138991500Y-83512500D02*
X138991500Y-82370000D01*
X131015500Y-76659500D02*
X131826000Y-77470000D01*
X145493500Y-87200500D02*
X147193000Y-88900000D01*
X121438500Y-82471500D02*
X131953000Y-82471500D01*
X134493000Y-66167000D02*
X135128000Y-66802000D01*
X140591500Y-72101000D02*
X140589000Y-72103500D01*
X137622500Y-77470000D02*
X138991500Y-78839000D01*
X124485067Y-61722000D02*
X124466067Y-61703000D01*
X120035000Y-90369000D02*
X121562000Y-90369000D01*
X145391500Y-84558500D02*
X145493500Y-84660500D01*
X135382000Y-63142000D02*
X135382000Y-61087000D01*
X117279067Y-61722000D02*
X117947067Y-61722000D01*
X125536067Y-56608000D02*
X125536067Y-60788000D01*
X116896067Y-60788000D02*
X116896067Y-56608000D01*
X140591500Y-69593500D02*
X140591500Y-69839000D01*
X139446000Y-66802000D02*
X140591500Y-67947500D01*
X137922000Y-84582000D02*
X138991500Y-83512500D01*
X135382000Y-61087000D02*
X136398000Y-60071000D01*
X136423500Y-64183500D02*
X135382000Y-63142000D01*
X133159500Y-66167000D02*
X134493000Y-66167000D01*
X121438500Y-82471500D02*
X118947000Y-84963000D01*
X146534000Y-62396000D02*
X146621500Y-62308500D01*
X140591500Y-67947500D02*
X140591500Y-69593500D01*
X118947000Y-89281000D02*
X120035000Y-90369000D01*
X141019598Y-64096000D02*
X142719598Y-62396000D01*
X122124967Y-65913000D02*
X122134467Y-65903500D01*
X143022500Y-62396000D02*
X146534000Y-62396000D01*
X133906500Y-82471500D02*
X136017000Y-84582000D01*
X118947000Y-84963000D02*
X118947000Y-89281000D01*
X142719598Y-62396000D02*
X143022500Y-62396000D01*
X117947067Y-61722000D02*
X117966067Y-61703000D01*
X152209500Y-86804500D02*
X152209500Y-82471500D01*
X144399000Y-74549000D02*
X146278000Y-72670000D01*
X147891500Y-72670000D02*
X148945000Y-72670000D01*
X125536067Y-61339000D02*
X125153067Y-61722000D01*
X137668000Y-65405000D02*
X139192000Y-65405000D01*
X138991500Y-78839000D02*
X138991500Y-82370000D01*
X134379000Y-79870000D02*
X134112000Y-80137000D01*
X137795000Y-83820000D02*
X136076672Y-83820000D01*
X133159500Y-68042000D02*
X134015000Y-68042000D01*
X147368500Y-86916500D02*
X147574000Y-87122000D01*
X133652500Y-80596500D02*
X134112000Y-80137000D01*
X147574000Y-87122000D02*
X148971000Y-87122000D01*
X147891500Y-73470000D02*
X149289000Y-73470000D01*
X153543000Y-74041000D02*
X152288000Y-74041000D01*
X148971000Y-87122000D02*
X149860000Y-86233000D01*
X129159000Y-66118500D02*
X130253500Y-66118500D01*
X149289000Y-73470000D02*
X149781500Y-73962500D01*
X136076672Y-83820000D02*
X134112000Y-81855328D01*
X149781500Y-73962500D02*
X152209500Y-73962500D01*
X139791500Y-68671500D02*
X139791500Y-70970000D01*
X131953000Y-80596500D02*
X133652500Y-80596500D01*
X134015000Y-68042000D02*
X134493000Y-67564000D01*
X134493000Y-67564000D02*
X138684000Y-67564000D01*
X147368500Y-86106000D02*
X147368500Y-86916500D01*
X115882067Y-77978000D02*
X115882067Y-76330000D01*
X152288000Y-74041000D02*
X152209500Y-73962500D01*
X132177000Y-68042000D02*
X133159500Y-68042000D01*
X146191500Y-82370000D02*
X146191500Y-83580500D01*
X136491500Y-75870000D02*
X135179000Y-75870000D01*
X136491500Y-79870000D02*
X134379000Y-79870000D01*
X138684000Y-67564000D02*
X139791500Y-68671500D01*
X131318000Y-67183000D02*
X132177000Y-68042000D01*
X118500567Y-80596500D02*
X115882067Y-77978000D01*
X147368500Y-84757500D02*
X147368500Y-86106000D01*
X138191500Y-82370000D02*
X138191500Y-83423500D01*
X118500567Y-80596500D02*
X131953000Y-80596500D01*
X131318000Y-66548000D02*
X131572000Y-66294000D01*
X131318000Y-67183000D02*
X131318000Y-66548000D01*
X135179000Y-75870000D02*
X134112000Y-74803000D01*
X146191500Y-83580500D02*
X147368500Y-84757500D01*
X130253500Y-66118500D02*
X131318000Y-67183000D01*
X138191500Y-83423500D02*
X137795000Y-83820000D01*
X134112000Y-81855328D02*
X134112000Y-80137000D01*
D30*
X143022500Y-64096000D02*
X143022500Y-64950000D01*
X143022500Y-64950000D02*
X142191500Y-65781000D01*
X143110000Y-64183500D02*
X143022500Y-64096000D01*
X142191500Y-65781000D02*
X142191500Y-70970000D01*
X146621500Y-64183500D02*
X143110000Y-64183500D01*
X139288868Y-62514132D02*
X139494500Y-62308500D01*
X141391500Y-66872632D02*
X139288868Y-64770000D01*
X139288868Y-64770000D02*
X139288868Y-62514132D01*
X137223500Y-62308500D02*
X139494500Y-62308500D01*
X140735000Y-62308500D02*
X140822500Y-62396000D01*
X139494500Y-62308500D02*
X140735000Y-62308500D01*
X141391500Y-70970000D02*
X141391500Y-66872632D01*
X134836000Y-76670000D02*
X136491500Y-76670000D01*
X132890500Y-75565000D02*
X133731000Y-75565000D01*
X133731000Y-75565000D02*
X134836000Y-76670000D01*
X147891500Y-75870000D02*
X152742134Y-75870000D01*
X156152500Y-62547500D02*
X175202500Y-62547500D01*
X156152500Y-72459634D02*
X156152500Y-62547500D01*
X152742134Y-75870000D02*
X156152500Y-72459634D01*
X152825000Y-78270000D02*
X156152500Y-81597500D01*
X156152500Y-81597500D02*
X175202500Y-81597500D01*
X147891500Y-78270000D02*
X152825000Y-78270000D01*
X147891500Y-77470000D02*
X164465000Y-77470000D01*
X164465000Y-77470000D02*
X166052500Y-79057500D01*
X182715000Y-76670000D02*
X185102500Y-79057500D01*
X147891500Y-76670000D02*
X182715000Y-76670000D01*
D31*
X119849967Y-66863000D02*
X119849967Y-68549100D01*
D32*
X120162942Y-66863000D02*
X119849967Y-66863000D01*
X120466067Y-63423000D02*
X120466067Y-61703000D01*
X120466067Y-63423000D02*
X120816067Y-63773000D01*
X120816067Y-63773000D02*
X121466067Y-63123000D01*
X121466067Y-63123000D02*
X121466067Y-61703000D01*
X119849967Y-68549100D02*
X119819067Y-68580000D01*
X120816067Y-66209875D02*
X120162942Y-66863000D01*
X120816067Y-63773000D02*
X120816067Y-66209875D01*
D30*
X120708067Y-73794067D02*
X120708067Y-72009000D01*
X125984000Y-79070000D02*
X136491500Y-79070000D01*
X120708067Y-72009000D02*
X119819067Y-71120000D01*
X119819067Y-71120000D02*
X119819067Y-70455000D01*
X120708067Y-73794067D02*
X125984000Y-79070000D01*
X121343067Y-73406000D02*
X126207067Y-78270000D01*
X121343067Y-72009000D02*
X122105067Y-71247000D01*
X126207067Y-78270000D02*
X136491500Y-78270000D01*
X122105067Y-71247000D02*
X122105067Y-70455000D01*
X121343067Y-73406000D02*
X121343067Y-72009000D01*
D32*
X122124967Y-68560100D02*
X122105067Y-68580000D01*
X120966067Y-60829000D02*
X121216067Y-60579000D01*
X121966067Y-61703000D02*
X121966067Y-60821000D01*
X121216067Y-60579000D02*
X121724067Y-60579000D01*
X120966067Y-61703000D02*
X120966067Y-60829000D01*
X121187867Y-66238875D02*
X121811992Y-66863000D01*
X121966067Y-63258000D02*
X121966067Y-61703000D01*
X121811992Y-66863000D02*
X122124967Y-66863000D01*
D31*
X122124967Y-66863000D02*
X122124967Y-68560100D01*
D32*
X121187867Y-64036200D02*
X121187867Y-66238875D01*
X121966067Y-63258000D02*
X121187867Y-64036200D01*
X121966067Y-60821000D02*
X121724067Y-60579000D01*
D30*
X127762000Y-86669000D02*
X127762000Y-85344000D01*
X127810500Y-67993500D02*
X127762000Y-67945000D01*
X129794000Y-69469000D02*
X138494500Y-69469000D01*
X138494500Y-69469000D02*
X138991500Y-69966000D01*
X129159000Y-67993500D02*
X127810500Y-67993500D01*
X129159000Y-67993500D02*
X129159000Y-68834000D01*
X138991500Y-69966000D02*
X138991500Y-70970000D01*
X129159000Y-68834000D02*
X129794000Y-69469000D01*
X152136000Y-80670000D02*
X152209500Y-80596500D01*
X147891500Y-80670000D02*
X152136000Y-80670000D01*
X119462667Y-60177400D02*
X122969467Y-60177400D01*
X118549067Y-65786000D02*
X119722967Y-65786000D01*
X118766067Y-61703000D02*
X118766067Y-60874000D01*
X115882067Y-64008000D02*
X115882067Y-73530000D01*
X118766067Y-60874000D02*
X119462667Y-60177400D01*
X119722967Y-65786000D02*
X119849967Y-65913000D01*
X118549067Y-63627000D02*
X116263067Y-63627000D01*
X122969467Y-60177400D02*
X123666067Y-60874000D01*
X118766067Y-63410000D02*
X118549067Y-63627000D01*
X116263067Y-63627000D02*
X115882067Y-64008000D01*
X123666067Y-60874000D02*
X123666067Y-61703000D01*
X118766067Y-61703000D02*
X118766067Y-63410000D01*
X118549067Y-63627000D02*
X118549067Y-64135000D01*
X117279067Y-65000500D02*
X119812467Y-65000500D01*
X119819067Y-63754000D02*
X119819067Y-64932100D01*
X119966067Y-63607000D02*
X119966067Y-61703000D01*
X119966067Y-63607000D02*
X119819067Y-63754000D01*
X119812467Y-65000500D02*
X119849967Y-64963000D01*
X119819067Y-64932100D02*
X119849967Y-64963000D01*
X124353567Y-64963000D02*
X124391067Y-65000500D01*
X122124967Y-64963000D02*
X124353567Y-64963000D01*
X122966067Y-63147000D02*
X122124967Y-63988100D01*
X122124967Y-63988100D02*
X122124967Y-64963000D01*
X122966067Y-63147000D02*
X122966067Y-61703000D01*
G04 #@! TA.AperFunction,Conductor*
G36*
X115830314Y-56091002D02*
G01*
X115876807Y-56144658D01*
X115887102Y-56199261D01*
X115888067Y-56199261D01*
X115888067Y-56283885D01*
X115892542Y-56299124D01*
X115893932Y-56300329D01*
X115901615Y-56302000D01*
X117885952Y-56302000D01*
X117901191Y-56297525D01*
X117902396Y-56296135D01*
X117904067Y-56288452D01*
X117904067Y-56209351D01*
X117903764Y-56203157D01*
X117920414Y-56134140D01*
X117971734Y-56085081D01*
X118029614Y-56071000D01*
X124402193Y-56071000D01*
X124470314Y-56091002D01*
X124516807Y-56144658D01*
X124527102Y-56199261D01*
X124528067Y-56199261D01*
X124528067Y-56283885D01*
X124532542Y-56299124D01*
X124533932Y-56300329D01*
X124541615Y-56302000D01*
X126525952Y-56302000D01*
X126541191Y-56297525D01*
X126542396Y-56296135D01*
X126544067Y-56288452D01*
X126544067Y-56209351D01*
X126543764Y-56203157D01*
X126560414Y-56134140D01*
X126611734Y-56085081D01*
X126669614Y-56071000D01*
X153861500Y-56071000D01*
X153929621Y-56091002D01*
X153976114Y-56144658D01*
X153987500Y-56197000D01*
X153987500Y-73052213D01*
X153967498Y-73120334D01*
X153913842Y-73166827D01*
X153843568Y-73176931D01*
X153827514Y-73173197D01*
X153825288Y-73172206D01*
X153799982Y-73166827D01*
X153644944Y-73133872D01*
X153644939Y-73133872D01*
X153638487Y-73132500D01*
X153447513Y-73132500D01*
X153441061Y-73133872D01*
X153441056Y-73133872D01*
X153263539Y-73171605D01*
X153192748Y-73166203D01*
X153148324Y-73137531D01*
X153140335Y-73129556D01*
X153135153Y-73124383D01*
X153131913Y-73122386D01*
X153091686Y-73065648D01*
X153088453Y-72994725D01*
X153124078Y-72933313D01*
X153132578Y-72925934D01*
X153141052Y-72919218D01*
X153254551Y-72805521D01*
X153263563Y-72794110D01*
X153347865Y-72657346D01*
X153354009Y-72644168D01*
X153404727Y-72491260D01*
X153407593Y-72477894D01*
X153417172Y-72384399D01*
X153417500Y-72377984D01*
X153417500Y-72359615D01*
X153413025Y-72344376D01*
X153411635Y-72343171D01*
X153403952Y-72341500D01*
X151019616Y-72341500D01*
X151004377Y-72345975D01*
X151003172Y-72347365D01*
X151001501Y-72355048D01*
X151001501Y-72377933D01*
X151001838Y-72384452D01*
X151011666Y-72479170D01*
X151014558Y-72492564D01*
X151065536Y-72645365D01*
X151071710Y-72658543D01*
X151156244Y-72795149D01*
X151165280Y-72806550D01*
X151278979Y-72920051D01*
X151286251Y-72925794D01*
X151327314Y-72983711D01*
X151330546Y-73054634D01*
X151294921Y-73116046D01*
X151288246Y-73121840D01*
X151282811Y-73125203D01*
X151277639Y-73130384D01*
X151181672Y-73226518D01*
X151119389Y-73260597D01*
X151092499Y-73263500D01*
X150123227Y-73263500D01*
X150055106Y-73243498D01*
X150034132Y-73226596D01*
X149803489Y-72995954D01*
X149797635Y-72989687D01*
X149792422Y-72983711D01*
X149760158Y-72946726D01*
X149708622Y-72910506D01*
X149703326Y-72906573D01*
X149659737Y-72872394D01*
X149659734Y-72872392D01*
X149653760Y-72867708D01*
X149646836Y-72864582D01*
X149643801Y-72862744D01*
X149631102Y-72855500D01*
X149627954Y-72853812D01*
X149621739Y-72849444D01*
X149563050Y-72826562D01*
X149557005Y-72824022D01*
X149499565Y-72798087D01*
X149492092Y-72796702D01*
X149488674Y-72795631D01*
X149474685Y-72791646D01*
X149471193Y-72790749D01*
X149464111Y-72787988D01*
X149456578Y-72786996D01*
X149456577Y-72786996D01*
X149401670Y-72779767D01*
X149395157Y-72778735D01*
X149340682Y-72768639D01*
X149340680Y-72768639D01*
X149333213Y-72767255D01*
X149325633Y-72767692D01*
X149325632Y-72767692D01*
X149271888Y-72770791D01*
X149264635Y-72771000D01*
X148965693Y-72771000D01*
X148903925Y-72752864D01*
X148903260Y-72754079D01*
X148897703Y-72751036D01*
X148897572Y-72750998D01*
X148897347Y-72750841D01*
X148895389Y-72749769D01*
X148888205Y-72744385D01*
X148751816Y-72693255D01*
X148689634Y-72686500D01*
X147093366Y-72686500D01*
X147031184Y-72693255D01*
X146894795Y-72744385D01*
X146778239Y-72831739D01*
X146772858Y-72838919D01*
X146772857Y-72838920D01*
X146746892Y-72873565D01*
X146690033Y-72916080D01*
X146660426Y-72921413D01*
X146636377Y-72928475D01*
X146635172Y-72929865D01*
X146633501Y-72937548D01*
X146633501Y-72989669D01*
X146633871Y-72996490D01*
X146640248Y-73055207D01*
X146637502Y-73055505D01*
X146637560Y-73084446D01*
X146639755Y-73084684D01*
X146633000Y-73146866D01*
X146633000Y-73793134D01*
X146633369Y-73796531D01*
X146639755Y-73855316D01*
X146637326Y-73855580D01*
X146637326Y-73884420D01*
X146639755Y-73884684D01*
X146633000Y-73946866D01*
X146633000Y-74593134D01*
X146633369Y-74596531D01*
X146639755Y-74655316D01*
X146637326Y-74655580D01*
X146637326Y-74684420D01*
X146639755Y-74684684D01*
X146633000Y-74746866D01*
X146633000Y-75393134D01*
X146633369Y-75396531D01*
X146639755Y-75455316D01*
X146637326Y-75455580D01*
X146637326Y-75484420D01*
X146639755Y-75484684D01*
X146633000Y-75546866D01*
X146633000Y-76193134D01*
X146633369Y-76196531D01*
X146639755Y-76255316D01*
X146637326Y-76255580D01*
X146637326Y-76284420D01*
X146639755Y-76284684D01*
X146633000Y-76346866D01*
X146633000Y-76993134D01*
X146633369Y-76996531D01*
X146639755Y-77055316D01*
X146637326Y-77055580D01*
X146637326Y-77084420D01*
X146639755Y-77084684D01*
X146633000Y-77146866D01*
X146633000Y-77793134D01*
X146633369Y-77796531D01*
X146639755Y-77855316D01*
X146637326Y-77855580D01*
X146637326Y-77884420D01*
X146639755Y-77884684D01*
X146633000Y-77946866D01*
X146633000Y-78593134D01*
X146633369Y-78596531D01*
X146639755Y-78655316D01*
X146637326Y-78655580D01*
X146637326Y-78684420D01*
X146639755Y-78684684D01*
X146633000Y-78746866D01*
X146633000Y-79393134D01*
X146633369Y-79396531D01*
X146639755Y-79455316D01*
X146637326Y-79455580D01*
X146637326Y-79484420D01*
X146639755Y-79484684D01*
X146633000Y-79546866D01*
X146633000Y-80193134D01*
X146633369Y-80196531D01*
X146639755Y-80255316D01*
X146637326Y-80255580D01*
X146637326Y-80284420D01*
X146639755Y-80284684D01*
X146633000Y-80346866D01*
X146633000Y-80985500D01*
X146612998Y-81053621D01*
X146559342Y-81100114D01*
X146507000Y-81111500D01*
X145868366Y-81111500D01*
X145864969Y-81111869D01*
X145828544Y-81115826D01*
X145806184Y-81118255D01*
X145805952Y-81116116D01*
X145776988Y-81116166D01*
X145776707Y-81118748D01*
X145717986Y-81112369D01*
X145711172Y-81112000D01*
X145663615Y-81112000D01*
X145648376Y-81116475D01*
X145647171Y-81117865D01*
X145642621Y-81138783D01*
X145641403Y-81138518D01*
X145625498Y-81192687D01*
X145595065Y-81225392D01*
X145553239Y-81256739D01*
X145518252Y-81303422D01*
X145492326Y-81338015D01*
X145435467Y-81380530D01*
X145364648Y-81385556D01*
X145302355Y-81351496D01*
X145290674Y-81338015D01*
X145264748Y-81303422D01*
X145229761Y-81256739D01*
X145187935Y-81225392D01*
X145145420Y-81168533D01*
X145140087Y-81138926D01*
X145133025Y-81114877D01*
X145131635Y-81113672D01*
X145123952Y-81112001D01*
X145071831Y-81112001D01*
X145065010Y-81112371D01*
X145006293Y-81118748D01*
X145005995Y-81116002D01*
X144977054Y-81116060D01*
X144976816Y-81118255D01*
X144918031Y-81111869D01*
X144914634Y-81111500D01*
X144268366Y-81111500D01*
X144264969Y-81111869D01*
X144228544Y-81115826D01*
X144206184Y-81118255D01*
X144205920Y-81115826D01*
X144177080Y-81115826D01*
X144176816Y-81118255D01*
X144118031Y-81111869D01*
X144114634Y-81111500D01*
X143468366Y-81111500D01*
X143464969Y-81111869D01*
X143428544Y-81115826D01*
X143406184Y-81118255D01*
X143405920Y-81115826D01*
X143377080Y-81115826D01*
X143376816Y-81118255D01*
X143318031Y-81111869D01*
X143314634Y-81111500D01*
X142668366Y-81111500D01*
X142664969Y-81111869D01*
X142628544Y-81115826D01*
X142606184Y-81118255D01*
X142605920Y-81115826D01*
X142577080Y-81115826D01*
X142576816Y-81118255D01*
X142518031Y-81111869D01*
X142514634Y-81111500D01*
X141868366Y-81111500D01*
X141864969Y-81111869D01*
X141828544Y-81115826D01*
X141806184Y-81118255D01*
X141805920Y-81115826D01*
X141777080Y-81115826D01*
X141776816Y-81118255D01*
X141718031Y-81111869D01*
X141714634Y-81111500D01*
X141068366Y-81111500D01*
X141064969Y-81111869D01*
X141028544Y-81115826D01*
X141006184Y-81118255D01*
X141005920Y-81115826D01*
X140977080Y-81115826D01*
X140976816Y-81118255D01*
X140918031Y-81111869D01*
X140914634Y-81111500D01*
X140268366Y-81111500D01*
X140264969Y-81111869D01*
X140228544Y-81115826D01*
X140206184Y-81118255D01*
X140205920Y-81115826D01*
X140177080Y-81115826D01*
X140176816Y-81118255D01*
X140118031Y-81111869D01*
X140114634Y-81111500D01*
X139468366Y-81111500D01*
X139464969Y-81111869D01*
X139428544Y-81115826D01*
X139406184Y-81118255D01*
X139405952Y-81116116D01*
X139376988Y-81116166D01*
X139376707Y-81118748D01*
X139317986Y-81112369D01*
X139311172Y-81112000D01*
X139263615Y-81112000D01*
X139248376Y-81116475D01*
X139247171Y-81117865D01*
X139242621Y-81138783D01*
X139241403Y-81138518D01*
X139225498Y-81192687D01*
X139195065Y-81225392D01*
X139153239Y-81256739D01*
X139118252Y-81303422D01*
X139092326Y-81338015D01*
X139035467Y-81380530D01*
X138964648Y-81385556D01*
X138902355Y-81351496D01*
X138890674Y-81338015D01*
X138864748Y-81303422D01*
X138829761Y-81256739D01*
X138787935Y-81225392D01*
X138745420Y-81168533D01*
X138740087Y-81138926D01*
X138733025Y-81114877D01*
X138731635Y-81113672D01*
X138723952Y-81112001D01*
X138671831Y-81112001D01*
X138665010Y-81112371D01*
X138606293Y-81118748D01*
X138605995Y-81116002D01*
X138577054Y-81116060D01*
X138576816Y-81118255D01*
X138518031Y-81111869D01*
X138514634Y-81111500D01*
X137876000Y-81111500D01*
X137807879Y-81091498D01*
X137761386Y-81037842D01*
X137750000Y-80985500D01*
X137750000Y-80346866D01*
X137743245Y-80284684D01*
X137745674Y-80284420D01*
X137745674Y-80255580D01*
X137743245Y-80255316D01*
X137749631Y-80196531D01*
X137750000Y-80193134D01*
X137750000Y-79546866D01*
X137743245Y-79484684D01*
X137745674Y-79484420D01*
X137745674Y-79455580D01*
X137743245Y-79455316D01*
X137749631Y-79396531D01*
X137750000Y-79393134D01*
X137750000Y-78746866D01*
X137743245Y-78684684D01*
X137745674Y-78684420D01*
X137745674Y-78655580D01*
X137743245Y-78655316D01*
X137749631Y-78596531D01*
X137750000Y-78593134D01*
X137750000Y-77946866D01*
X137743245Y-77884684D01*
X137745384Y-77884452D01*
X137745334Y-77855488D01*
X137742752Y-77855207D01*
X137749131Y-77796486D01*
X137749500Y-77789672D01*
X137749500Y-77742115D01*
X137745025Y-77726876D01*
X137743635Y-77725671D01*
X137722717Y-77721121D01*
X137722982Y-77719903D01*
X137668813Y-77703998D01*
X137636108Y-77673565D01*
X137610143Y-77638920D01*
X137610142Y-77638919D01*
X137604761Y-77631739D01*
X137523485Y-77570826D01*
X137480970Y-77513967D01*
X137475944Y-77443148D01*
X137510004Y-77380855D01*
X137523485Y-77369174D01*
X137597581Y-77313642D01*
X137604761Y-77308261D01*
X137616208Y-77292988D01*
X137636108Y-77266435D01*
X137692967Y-77223920D01*
X137722574Y-77218587D01*
X137746623Y-77211525D01*
X137747828Y-77210135D01*
X137749499Y-77202452D01*
X137749499Y-77150331D01*
X137749129Y-77143510D01*
X137742752Y-77084793D01*
X137745498Y-77084495D01*
X137745440Y-77055554D01*
X137743245Y-77055316D01*
X137749631Y-76996531D01*
X137750000Y-76993134D01*
X137750000Y-76346866D01*
X137743245Y-76284684D01*
X137745674Y-76284420D01*
X137745674Y-76255580D01*
X137743245Y-76255316D01*
X137749631Y-76196531D01*
X137750000Y-76193134D01*
X137750000Y-75546866D01*
X137743245Y-75484684D01*
X137745674Y-75484420D01*
X137745674Y-75455580D01*
X137743245Y-75455316D01*
X137749631Y-75396531D01*
X137750000Y-75393134D01*
X137750000Y-74746866D01*
X137743245Y-74684684D01*
X137745674Y-74684420D01*
X137745674Y-74655580D01*
X137743245Y-74655316D01*
X137749631Y-74596531D01*
X137750000Y-74593134D01*
X137750000Y-73946866D01*
X137743245Y-73884684D01*
X137745674Y-73884420D01*
X137745674Y-73855580D01*
X137743245Y-73855316D01*
X137749631Y-73796531D01*
X137750000Y-73793134D01*
X137750000Y-73146866D01*
X137743245Y-73084684D01*
X137745674Y-73084420D01*
X137745674Y-73055580D01*
X137743245Y-73055316D01*
X137749631Y-72996531D01*
X137750000Y-72993134D01*
X137750000Y-72354500D01*
X137770002Y-72286379D01*
X137823658Y-72239886D01*
X137876000Y-72228500D01*
X138514634Y-72228500D01*
X138522634Y-72227631D01*
X138576816Y-72221745D01*
X138577080Y-72224174D01*
X138605920Y-72224174D01*
X138606184Y-72221745D01*
X138660367Y-72227631D01*
X138668366Y-72228500D01*
X139314634Y-72228500D01*
X139322634Y-72227631D01*
X139376816Y-72221745D01*
X139377080Y-72224174D01*
X139405920Y-72224174D01*
X139406184Y-72221745D01*
X139460367Y-72227631D01*
X139468366Y-72228500D01*
X140114634Y-72228500D01*
X140122634Y-72227631D01*
X140176816Y-72221745D01*
X140177048Y-72223884D01*
X140206012Y-72223834D01*
X140206293Y-72221252D01*
X140265014Y-72227631D01*
X140271828Y-72228000D01*
X140319385Y-72228000D01*
X140334624Y-72223525D01*
X140335829Y-72222135D01*
X140340379Y-72201217D01*
X140341597Y-72201482D01*
X140357502Y-72147313D01*
X140387935Y-72114608D01*
X140422580Y-72088643D01*
X140422581Y-72088642D01*
X140429761Y-72083261D01*
X140490674Y-72001985D01*
X140547533Y-71959470D01*
X140618352Y-71954444D01*
X140680645Y-71988504D01*
X140692325Y-72001984D01*
X140753239Y-72083261D01*
X140760419Y-72088642D01*
X140760420Y-72088643D01*
X140795065Y-72114608D01*
X140837580Y-72171467D01*
X140842913Y-72201074D01*
X140849975Y-72225123D01*
X140851365Y-72226328D01*
X140859048Y-72227999D01*
X140911169Y-72227999D01*
X140917990Y-72227629D01*
X140976707Y-72221252D01*
X140977005Y-72223998D01*
X141005946Y-72223940D01*
X141006184Y-72221745D01*
X141060367Y-72227631D01*
X141068366Y-72228500D01*
X141714634Y-72228500D01*
X141722634Y-72227631D01*
X141776816Y-72221745D01*
X141777080Y-72224174D01*
X141805920Y-72224174D01*
X141806184Y-72221745D01*
X141860367Y-72227631D01*
X141868366Y-72228500D01*
X142514634Y-72228500D01*
X142522634Y-72227631D01*
X142576816Y-72221745D01*
X142577080Y-72224174D01*
X142605920Y-72224174D01*
X142606184Y-72221745D01*
X142660367Y-72227631D01*
X142668366Y-72228500D01*
X143314634Y-72228500D01*
X143322634Y-72227631D01*
X143376816Y-72221745D01*
X143377080Y-72224174D01*
X143405920Y-72224174D01*
X143406184Y-72221745D01*
X143460367Y-72227631D01*
X143468366Y-72228500D01*
X144114634Y-72228500D01*
X144122634Y-72227631D01*
X144176816Y-72221745D01*
X144177080Y-72224174D01*
X144205920Y-72224174D01*
X144206184Y-72221745D01*
X144260367Y-72227631D01*
X144268366Y-72228500D01*
X144914634Y-72228500D01*
X144922634Y-72227631D01*
X144976816Y-72221745D01*
X144977080Y-72224174D01*
X145005920Y-72224174D01*
X145006184Y-72221745D01*
X145060367Y-72227631D01*
X145068366Y-72228500D01*
X145714634Y-72228500D01*
X145722634Y-72227631D01*
X145776816Y-72221745D01*
X145777080Y-72224174D01*
X145805920Y-72224174D01*
X145806184Y-72221745D01*
X145860367Y-72227631D01*
X145868366Y-72228500D01*
X146507500Y-72228500D01*
X146575621Y-72248502D01*
X146622114Y-72302158D01*
X146633500Y-72354500D01*
X146633500Y-72397885D01*
X146637975Y-72413124D01*
X146639365Y-72414329D01*
X146647048Y-72416000D01*
X147619385Y-72416000D01*
X147634624Y-72411525D01*
X147635829Y-72410135D01*
X147637500Y-72402452D01*
X147637500Y-72397885D01*
X148145500Y-72397885D01*
X148149975Y-72413124D01*
X148151365Y-72414329D01*
X148159048Y-72416000D01*
X149131384Y-72416000D01*
X149146623Y-72411525D01*
X149147828Y-72410135D01*
X149149499Y-72402452D01*
X149149499Y-72350331D01*
X149149129Y-72343510D01*
X149143605Y-72292648D01*
X149139979Y-72277396D01*
X149094824Y-72156946D01*
X149086286Y-72141351D01*
X149009785Y-72039276D01*
X148997224Y-72026715D01*
X148895149Y-71950214D01*
X148879554Y-71941676D01*
X148759106Y-71896522D01*
X148743851Y-71892895D01*
X148692986Y-71887369D01*
X148686172Y-71887000D01*
X148163615Y-71887000D01*
X148148376Y-71891475D01*
X148147171Y-71892865D01*
X148145500Y-71900548D01*
X148145500Y-72397885D01*
X147637500Y-72397885D01*
X147637500Y-71905116D01*
X147633025Y-71889877D01*
X147631635Y-71888672D01*
X147623952Y-71887001D01*
X147101000Y-71887001D01*
X147032879Y-71866999D01*
X146988155Y-71815385D01*
X151001500Y-71815385D01*
X151005975Y-71830624D01*
X151007365Y-71831829D01*
X151015048Y-71833500D01*
X151937385Y-71833500D01*
X151952624Y-71829025D01*
X151953829Y-71827635D01*
X151955500Y-71819952D01*
X151955500Y-71815385D01*
X152463500Y-71815385D01*
X152467975Y-71830624D01*
X152469365Y-71831829D01*
X152477048Y-71833500D01*
X153399384Y-71833500D01*
X153414623Y-71829025D01*
X153415828Y-71827635D01*
X153417499Y-71819952D01*
X153417499Y-71797067D01*
X153417162Y-71790548D01*
X153407334Y-71695830D01*
X153404442Y-71682436D01*
X153353464Y-71529635D01*
X153347290Y-71516457D01*
X153262756Y-71379851D01*
X153253720Y-71368450D01*
X153140021Y-71254949D01*
X153128610Y-71245937D01*
X152991846Y-71161635D01*
X152978668Y-71155491D01*
X152825760Y-71104773D01*
X152812394Y-71101907D01*
X152718899Y-71092328D01*
X152712484Y-71092000D01*
X152481615Y-71092000D01*
X152466376Y-71096475D01*
X152465171Y-71097865D01*
X152463500Y-71105548D01*
X152463500Y-71815385D01*
X151955500Y-71815385D01*
X151955500Y-71110116D01*
X151951025Y-71094877D01*
X151949635Y-71093672D01*
X151941952Y-71092001D01*
X151706567Y-71092001D01*
X151700048Y-71092338D01*
X151605330Y-71102166D01*
X151591936Y-71105058D01*
X151439135Y-71156036D01*
X151425957Y-71162210D01*
X151289351Y-71246744D01*
X151277950Y-71255780D01*
X151164449Y-71369479D01*
X151155437Y-71380890D01*
X151071135Y-71517654D01*
X151064991Y-71530832D01*
X151014273Y-71683740D01*
X151011407Y-71697106D01*
X151001828Y-71790601D01*
X151001500Y-71797016D01*
X151001500Y-71815385D01*
X146988155Y-71815385D01*
X146986386Y-71813343D01*
X146975000Y-71761001D01*
X146975000Y-70171866D01*
X146968245Y-70109684D01*
X146917115Y-69973295D01*
X146829761Y-69856739D01*
X146713205Y-69769385D01*
X146576816Y-69718255D01*
X146514634Y-69711500D01*
X145868366Y-69711500D01*
X145806184Y-69718255D01*
X145805920Y-69715826D01*
X145777080Y-69715826D01*
X145776816Y-69718255D01*
X145718031Y-69711869D01*
X145714634Y-69711500D01*
X145068366Y-69711500D01*
X145006184Y-69718255D01*
X145005920Y-69715826D01*
X144977080Y-69715826D01*
X144976816Y-69718255D01*
X144918031Y-69711869D01*
X144914634Y-69711500D01*
X144268366Y-69711500D01*
X144206184Y-69718255D01*
X144205920Y-69715826D01*
X144177080Y-69715826D01*
X144176816Y-69718255D01*
X144118031Y-69711869D01*
X144114634Y-69711500D01*
X143468366Y-69711500D01*
X143406184Y-69718255D01*
X143405920Y-69715826D01*
X143377080Y-69715826D01*
X143376816Y-69718255D01*
X143318031Y-69711869D01*
X143314634Y-69711500D01*
X142953000Y-69711500D01*
X142884879Y-69691498D01*
X142838386Y-69637842D01*
X142827000Y-69585500D01*
X142827000Y-66096422D01*
X142847002Y-66028301D01*
X142863905Y-66007327D01*
X143415977Y-65455255D01*
X143424303Y-65447678D01*
X143430803Y-65443553D01*
X143437438Y-65436488D01*
X143477600Y-65393719D01*
X143480355Y-65390877D01*
X143500138Y-65371094D01*
X143502629Y-65367883D01*
X143510338Y-65358856D01*
X143527090Y-65341017D01*
X143540717Y-65326506D01*
X143547922Y-65313400D01*
X143550522Y-65308671D01*
X143561376Y-65292147D01*
X143568991Y-65282330D01*
X143568992Y-65282329D01*
X143573849Y-65276067D01*
X143576996Y-65268794D01*
X143578437Y-65266358D01*
X143630331Y-65217907D01*
X143686889Y-65204500D01*
X143770634Y-65204500D01*
X143832816Y-65197745D01*
X143969205Y-65146615D01*
X144085761Y-65059261D01*
X144173115Y-64942705D01*
X144181087Y-64921440D01*
X144188836Y-64900770D01*
X144231478Y-64844005D01*
X144298040Y-64819306D01*
X144306818Y-64819000D01*
X145452805Y-64819000D01*
X145520926Y-64839002D01*
X145559948Y-64878695D01*
X145567850Y-64891464D01*
X145567854Y-64891469D01*
X145571703Y-64897689D01*
X145695847Y-65021617D01*
X145845171Y-65113661D01*
X145852119Y-65115966D01*
X145852120Y-65115966D01*
X146005134Y-65166719D01*
X146005136Y-65166719D01*
X146011665Y-65168885D01*
X146115269Y-65179500D01*
X146617596Y-65179500D01*
X147127730Y-65179499D01*
X147232629Y-65168616D01*
X147239160Y-65166437D01*
X147239165Y-65166436D01*
X147392078Y-65115420D01*
X147399026Y-65113102D01*
X147548189Y-65020797D01*
X147672117Y-64896653D01*
X147683187Y-64878695D01*
X147707653Y-64839002D01*
X147764161Y-64747329D01*
X147782889Y-64690866D01*
X147817219Y-64587366D01*
X147817219Y-64587364D01*
X147819385Y-64580835D01*
X147830000Y-64477231D01*
X147829999Y-63889770D01*
X147819116Y-63784871D01*
X147816937Y-63778340D01*
X147816936Y-63778335D01*
X147765920Y-63625422D01*
X147763602Y-63618474D01*
X147671297Y-63469311D01*
X147547153Y-63345383D01*
X147543913Y-63343386D01*
X147503686Y-63286648D01*
X147500453Y-63215725D01*
X147536078Y-63154313D01*
X147544578Y-63146934D01*
X147553052Y-63140218D01*
X147666551Y-63026521D01*
X147675563Y-63015110D01*
X147759865Y-62878346D01*
X147766009Y-62865168D01*
X147816727Y-62712260D01*
X147819593Y-62698894D01*
X147829172Y-62605399D01*
X147829500Y-62598984D01*
X147829500Y-62580615D01*
X147825025Y-62565376D01*
X147823635Y-62564171D01*
X147815952Y-62562500D01*
X145431616Y-62562500D01*
X145416377Y-62566975D01*
X145415172Y-62568365D01*
X145413501Y-62576048D01*
X145413501Y-62598933D01*
X145413838Y-62605452D01*
X145423666Y-62700170D01*
X145426558Y-62713564D01*
X145477536Y-62866365D01*
X145483710Y-62879543D01*
X145568244Y-63016149D01*
X145577280Y-63027550D01*
X145690979Y-63141051D01*
X145698251Y-63146794D01*
X145739314Y-63204711D01*
X145742546Y-63275634D01*
X145706921Y-63337046D01*
X145700246Y-63342840D01*
X145694811Y-63346203D01*
X145570883Y-63470347D01*
X145567043Y-63476577D01*
X145567042Y-63476578D01*
X145559930Y-63488116D01*
X145507158Y-63535609D01*
X145452670Y-63548000D01*
X144354931Y-63548000D01*
X144286810Y-63527998D01*
X144240317Y-63474342D01*
X144229668Y-63435607D01*
X144228156Y-63421686D01*
X144224245Y-63385684D01*
X144221473Y-63378288D01*
X144221471Y-63378282D01*
X144188194Y-63289517D01*
X144183011Y-63218710D01*
X144188194Y-63201059D01*
X144220978Y-63113609D01*
X144224605Y-63098351D01*
X144230131Y-63047486D01*
X144230500Y-63040672D01*
X144230500Y-62668115D01*
X144226025Y-62652876D01*
X144224635Y-62651671D01*
X144216952Y-62650000D01*
X142894500Y-62650000D01*
X142826379Y-62629998D01*
X142779886Y-62576342D01*
X142768500Y-62524000D01*
X142768500Y-62123885D01*
X143276500Y-62123885D01*
X143280975Y-62139124D01*
X143282365Y-62140329D01*
X143290048Y-62142000D01*
X144212384Y-62142000D01*
X144227623Y-62137525D01*
X144228828Y-62136135D01*
X144230499Y-62128452D01*
X144230499Y-62036385D01*
X145413500Y-62036385D01*
X145417975Y-62051624D01*
X145419365Y-62052829D01*
X145427048Y-62054500D01*
X146349385Y-62054500D01*
X146364624Y-62050025D01*
X146365829Y-62048635D01*
X146367500Y-62040952D01*
X146367500Y-62036385D01*
X146875500Y-62036385D01*
X146879975Y-62051624D01*
X146881365Y-62052829D01*
X146889048Y-62054500D01*
X147811384Y-62054500D01*
X147826623Y-62050025D01*
X147827828Y-62048635D01*
X147829499Y-62040952D01*
X147829499Y-62018067D01*
X147829162Y-62011548D01*
X147819334Y-61916830D01*
X147816442Y-61903436D01*
X147765464Y-61750635D01*
X147759290Y-61737457D01*
X147674756Y-61600851D01*
X147665720Y-61589450D01*
X147552021Y-61475949D01*
X147540610Y-61466937D01*
X147403846Y-61382635D01*
X147390668Y-61376491D01*
X147237760Y-61325773D01*
X147224394Y-61322907D01*
X147130899Y-61313328D01*
X147124484Y-61313000D01*
X146893615Y-61313000D01*
X146878376Y-61317475D01*
X146877171Y-61318865D01*
X146875500Y-61326548D01*
X146875500Y-62036385D01*
X146367500Y-62036385D01*
X146367500Y-61331116D01*
X146363025Y-61315877D01*
X146361635Y-61314672D01*
X146353952Y-61313001D01*
X146118567Y-61313001D01*
X146112048Y-61313338D01*
X146017330Y-61323166D01*
X146003936Y-61326058D01*
X145851135Y-61377036D01*
X145837957Y-61383210D01*
X145701351Y-61467744D01*
X145689950Y-61476780D01*
X145576449Y-61590479D01*
X145567437Y-61601890D01*
X145483135Y-61738654D01*
X145476991Y-61751832D01*
X145426273Y-61904740D01*
X145423407Y-61918106D01*
X145413828Y-62011601D01*
X145413500Y-62018016D01*
X145413500Y-62036385D01*
X144230499Y-62036385D01*
X144230499Y-61751331D01*
X144230129Y-61744510D01*
X144224605Y-61693648D01*
X144220979Y-61678396D01*
X144175824Y-61557946D01*
X144167286Y-61542351D01*
X144090785Y-61440276D01*
X144078224Y-61427715D01*
X143976149Y-61351214D01*
X143960554Y-61342676D01*
X143840106Y-61297522D01*
X143824851Y-61293895D01*
X143773986Y-61288369D01*
X143767172Y-61288000D01*
X143294615Y-61288000D01*
X143279376Y-61292475D01*
X143278171Y-61293865D01*
X143276500Y-61301548D01*
X143276500Y-62123885D01*
X142768500Y-62123885D01*
X142768500Y-61306116D01*
X142764025Y-61290877D01*
X142762635Y-61289672D01*
X142754952Y-61288001D01*
X142277831Y-61288001D01*
X142271010Y-61288371D01*
X142220148Y-61293895D01*
X142204896Y-61297521D01*
X142084446Y-61342676D01*
X142068852Y-61351214D01*
X141998482Y-61403953D01*
X141931976Y-61428801D01*
X141862593Y-61413748D01*
X141847352Y-61403953D01*
X141820247Y-61383639D01*
X141769205Y-61345385D01*
X141632816Y-61294255D01*
X141570634Y-61287500D01*
X140074366Y-61287500D01*
X140012184Y-61294255D01*
X139875795Y-61345385D01*
X139759239Y-61432739D01*
X139671885Y-61549295D01*
X139668733Y-61557703D01*
X139656828Y-61589459D01*
X139614186Y-61646223D01*
X139542805Y-61671167D01*
X139491819Y-61672770D01*
X139486468Y-61672938D01*
X139482512Y-61673000D01*
X138392195Y-61673000D01*
X138324074Y-61652998D01*
X138285052Y-61613305D01*
X138277150Y-61600536D01*
X138277146Y-61600531D01*
X138273297Y-61594311D01*
X138149153Y-61470383D01*
X137999829Y-61378339D01*
X137918527Y-61351372D01*
X137839866Y-61325281D01*
X137839864Y-61325281D01*
X137833335Y-61323115D01*
X137729731Y-61312500D01*
X137227404Y-61312500D01*
X136717270Y-61312501D01*
X136612371Y-61323384D01*
X136605840Y-61325563D01*
X136605835Y-61325564D01*
X136457689Y-61374990D01*
X136445974Y-61378898D01*
X136296811Y-61471203D01*
X136172883Y-61595347D01*
X136169043Y-61601577D01*
X136169042Y-61601578D01*
X136148449Y-61634986D01*
X136080839Y-61744671D01*
X136078534Y-61751619D01*
X136078534Y-61751620D01*
X136028179Y-61903436D01*
X136025615Y-61911165D01*
X136015000Y-62014769D01*
X136015001Y-62602230D01*
X136025884Y-62707129D01*
X136028063Y-62713660D01*
X136028064Y-62713665D01*
X136057628Y-62802278D01*
X136081398Y-62873526D01*
X136173703Y-63022689D01*
X136297847Y-63146617D01*
X136301087Y-63148614D01*
X136341314Y-63205352D01*
X136344547Y-63276275D01*
X136308922Y-63337687D01*
X136300422Y-63345066D01*
X136291948Y-63351782D01*
X136178449Y-63465479D01*
X136169437Y-63476890D01*
X136085135Y-63613654D01*
X136078991Y-63626832D01*
X136028273Y-63779740D01*
X136025407Y-63793106D01*
X136015828Y-63886601D01*
X136015500Y-63893016D01*
X136015500Y-63911385D01*
X136019975Y-63926624D01*
X136021365Y-63927829D01*
X136029048Y-63929500D01*
X137351500Y-63929500D01*
X137419621Y-63949502D01*
X137466114Y-64003158D01*
X137477500Y-64055500D01*
X137477500Y-65160884D01*
X137481975Y-65176123D01*
X137483365Y-65177328D01*
X137491048Y-65178999D01*
X137726433Y-65178999D01*
X137732952Y-65178662D01*
X137827670Y-65168834D01*
X137841064Y-65165942D01*
X137993865Y-65114964D01*
X138007043Y-65108790D01*
X138143649Y-65024256D01*
X138155050Y-65015220D01*
X138268551Y-64901521D01*
X138277563Y-64890110D01*
X138361865Y-64753346D01*
X138368009Y-64740168D01*
X138407775Y-64620279D01*
X138448206Y-64561919D01*
X138513770Y-64534682D01*
X138583651Y-64547215D01*
X138635663Y-64595540D01*
X138653368Y-64659946D01*
X138653368Y-64690980D01*
X138652838Y-64702214D01*
X138651160Y-64709719D01*
X138652342Y-64747329D01*
X138653306Y-64778012D01*
X138653368Y-64781969D01*
X138653368Y-64809983D01*
X138653864Y-64813908D01*
X138653864Y-64813909D01*
X138653876Y-64814004D01*
X138654809Y-64825849D01*
X138656203Y-64870205D01*
X138658415Y-64877817D01*
X138661881Y-64889748D01*
X138665891Y-64909112D01*
X138668441Y-64929299D01*
X138671357Y-64936663D01*
X138671358Y-64936668D01*
X138684775Y-64970556D01*
X138688620Y-64981785D01*
X138700999Y-65024393D01*
X138705037Y-65031220D01*
X138705038Y-65031223D01*
X138711356Y-65041906D01*
X138720056Y-65059664D01*
X138724629Y-65071215D01*
X138724633Y-65071221D01*
X138727549Y-65078588D01*
X138732207Y-65084999D01*
X138732208Y-65085001D01*
X138753632Y-65114488D01*
X138760149Y-65124410D01*
X138778694Y-65155768D01*
X138778697Y-65155772D01*
X138782734Y-65162598D01*
X138797118Y-65176982D01*
X138809959Y-65192016D01*
X138821926Y-65208487D01*
X138828034Y-65213540D01*
X138856123Y-65236777D01*
X138864903Y-65244767D01*
X140719095Y-67098960D01*
X140753121Y-67161272D01*
X140756000Y-67188055D01*
X140756000Y-69811080D01*
X140735998Y-69879201D01*
X140730830Y-69886639D01*
X140723124Y-69896922D01*
X140717326Y-69904658D01*
X140660467Y-69947173D01*
X140589648Y-69952199D01*
X140527355Y-69918139D01*
X140493365Y-69855808D01*
X140490500Y-69829093D01*
X140490500Y-68700100D01*
X140490792Y-68691529D01*
X140493754Y-68648077D01*
X140494670Y-68634649D01*
X140483834Y-68572565D01*
X140482878Y-68566086D01*
X140475309Y-68503540D01*
X140472625Y-68496438D01*
X140471770Y-68492956D01*
X140467930Y-68478921D01*
X140466889Y-68475473D01*
X140465582Y-68467983D01*
X140440263Y-68410305D01*
X140437770Y-68404197D01*
X140418192Y-68352386D01*
X140418192Y-68352385D01*
X140415506Y-68345278D01*
X140411200Y-68339012D01*
X140409550Y-68335857D01*
X140402431Y-68323065D01*
X140400631Y-68320021D01*
X140397578Y-68313067D01*
X140392952Y-68307038D01*
X140359240Y-68263104D01*
X140355362Y-68257767D01*
X140323981Y-68212107D01*
X140323979Y-68212105D01*
X140319679Y-68205848D01*
X140273811Y-68164981D01*
X140268536Y-68160001D01*
X139198497Y-67089962D01*
X139192643Y-67083696D01*
X139155158Y-67040726D01*
X139103622Y-67004506D01*
X139098326Y-67000573D01*
X139054737Y-66966394D01*
X139054734Y-66966392D01*
X139048760Y-66961708D01*
X139041836Y-66958582D01*
X139038801Y-66956744D01*
X139026102Y-66949500D01*
X139022954Y-66947812D01*
X139016739Y-66943444D01*
X138958050Y-66920562D01*
X138952005Y-66918022D01*
X138894565Y-66892087D01*
X138887092Y-66890702D01*
X138883674Y-66889631D01*
X138869685Y-66885646D01*
X138866193Y-66884749D01*
X138859111Y-66881988D01*
X138851578Y-66880996D01*
X138851577Y-66880996D01*
X138796670Y-66873767D01*
X138790157Y-66872735D01*
X138735682Y-66862639D01*
X138735680Y-66862639D01*
X138728213Y-66861255D01*
X138720633Y-66861692D01*
X138720632Y-66861692D01*
X138666888Y-66864791D01*
X138659635Y-66865000D01*
X134521599Y-66865000D01*
X134513029Y-66864708D01*
X134463723Y-66861346D01*
X134463719Y-66861346D01*
X134456148Y-66860830D01*
X134448671Y-66862135D01*
X134441076Y-66862533D01*
X134440929Y-66859728D01*
X134383448Y-66853226D01*
X134328414Y-66808373D01*
X134306366Y-66740886D01*
X134312716Y-66697419D01*
X134354727Y-66570760D01*
X134357593Y-66557394D01*
X134367172Y-66463899D01*
X134367500Y-66457484D01*
X134367500Y-66439115D01*
X134363025Y-66423876D01*
X134361635Y-66422671D01*
X134353952Y-66421000D01*
X133031500Y-66421000D01*
X132963379Y-66400998D01*
X132916886Y-66347342D01*
X132905500Y-66295000D01*
X132905500Y-65894885D01*
X133413500Y-65894885D01*
X133417975Y-65910124D01*
X133419365Y-65911329D01*
X133427048Y-65913000D01*
X134349384Y-65913000D01*
X134364623Y-65908525D01*
X134365828Y-65907135D01*
X134367499Y-65899452D01*
X134367499Y-65876567D01*
X134367162Y-65870048D01*
X134357334Y-65775330D01*
X134354442Y-65761936D01*
X134303464Y-65609135D01*
X134297290Y-65595957D01*
X134212756Y-65459351D01*
X134203720Y-65447950D01*
X134090021Y-65334449D01*
X134078610Y-65325437D01*
X133941846Y-65241135D01*
X133928668Y-65234991D01*
X133775760Y-65184273D01*
X133762394Y-65181407D01*
X133668899Y-65171828D01*
X133662484Y-65171500D01*
X133431615Y-65171500D01*
X133416376Y-65175975D01*
X133415171Y-65177365D01*
X133413500Y-65185048D01*
X133413500Y-65894885D01*
X132905500Y-65894885D01*
X132905500Y-65189616D01*
X132901025Y-65174377D01*
X132899635Y-65173172D01*
X132891952Y-65171501D01*
X132656567Y-65171501D01*
X132650048Y-65171838D01*
X132555330Y-65181666D01*
X132541936Y-65184558D01*
X132389135Y-65235536D01*
X132375957Y-65241710D01*
X132239351Y-65326244D01*
X132227950Y-65335280D01*
X132112065Y-65451367D01*
X132049782Y-65485446D01*
X131978962Y-65480443D01*
X131971655Y-65477461D01*
X131867333Y-65431014D01*
X131860319Y-65427891D01*
X131860318Y-65427891D01*
X131854288Y-65425206D01*
X131754193Y-65403930D01*
X131673944Y-65386872D01*
X131673939Y-65386872D01*
X131667487Y-65385500D01*
X131476513Y-65385500D01*
X131470061Y-65386872D01*
X131470056Y-65386872D01*
X131389807Y-65403930D01*
X131289712Y-65425206D01*
X131283682Y-65427891D01*
X131283681Y-65427891D01*
X131121278Y-65500197D01*
X131121276Y-65500198D01*
X131115248Y-65502882D01*
X131109907Y-65506762D01*
X131109906Y-65506763D01*
X131040614Y-65557107D01*
X130960747Y-65615134D01*
X130956333Y-65620037D01*
X130956330Y-65620039D01*
X130944781Y-65632865D01*
X130884334Y-65670103D01*
X130813351Y-65668749D01*
X130756198Y-65631381D01*
X130737648Y-65610117D01*
X130724658Y-65595226D01*
X130673122Y-65559006D01*
X130667826Y-65555073D01*
X130624237Y-65520894D01*
X130624234Y-65520892D01*
X130618260Y-65516208D01*
X130611336Y-65513082D01*
X130608301Y-65511244D01*
X130595602Y-65504000D01*
X130592454Y-65502312D01*
X130586239Y-65497944D01*
X130527550Y-65475062D01*
X130521505Y-65472522D01*
X130464065Y-65446587D01*
X130456592Y-65445202D01*
X130453174Y-65444131D01*
X130439185Y-65440146D01*
X130435693Y-65439249D01*
X130428611Y-65436488D01*
X130421078Y-65435496D01*
X130421077Y-65435496D01*
X130366170Y-65428267D01*
X130359657Y-65427235D01*
X130305182Y-65417139D01*
X130305180Y-65417139D01*
X130297713Y-65415755D01*
X130280827Y-65416729D01*
X130211669Y-65400683D01*
X130184555Y-65380111D01*
X130089833Y-65285554D01*
X130084653Y-65280383D01*
X129935329Y-65188339D01*
X129923930Y-65184558D01*
X129775366Y-65135281D01*
X129775364Y-65135281D01*
X129768835Y-65133115D01*
X129665231Y-65122500D01*
X129162904Y-65122500D01*
X128652770Y-65122501D01*
X128547871Y-65133384D01*
X128541340Y-65135563D01*
X128541335Y-65135564D01*
X128409646Y-65179499D01*
X128381474Y-65188898D01*
X128232311Y-65281203D01*
X128108383Y-65405347D01*
X128104543Y-65411577D01*
X128104542Y-65411578D01*
X128086933Y-65440146D01*
X128016339Y-65554671D01*
X128014034Y-65561619D01*
X128014034Y-65561620D01*
X127965268Y-65708645D01*
X127961115Y-65721165D01*
X127950500Y-65824769D01*
X127950501Y-66412230D01*
X127961384Y-66517129D01*
X127963563Y-66523660D01*
X127963564Y-66523665D01*
X128007312Y-66654794D01*
X128016898Y-66683526D01*
X128109203Y-66832689D01*
X128114385Y-66837862D01*
X128135174Y-66858615D01*
X128169253Y-66920898D01*
X128164250Y-66991718D01*
X128121752Y-67048591D01*
X128055254Y-67073459D01*
X128019961Y-67071035D01*
X127948954Y-67055942D01*
X127863944Y-67037872D01*
X127863939Y-67037872D01*
X127857487Y-67036500D01*
X127666513Y-67036500D01*
X127660061Y-67037872D01*
X127660056Y-67037872D01*
X127575046Y-67055942D01*
X127479712Y-67076206D01*
X127473682Y-67078891D01*
X127473681Y-67078891D01*
X127311278Y-67151197D01*
X127311276Y-67151198D01*
X127305248Y-67153882D01*
X127299907Y-67157762D01*
X127299906Y-67157763D01*
X127285508Y-67168224D01*
X127150747Y-67266134D01*
X127146326Y-67271044D01*
X127146325Y-67271045D01*
X127055881Y-67371494D01*
X127022960Y-67408056D01*
X126984403Y-67474838D01*
X126951493Y-67531841D01*
X126927473Y-67573444D01*
X126868458Y-67755072D01*
X126867768Y-67761633D01*
X126867768Y-67761635D01*
X126849186Y-67938435D01*
X126848496Y-67945000D01*
X126868458Y-68134928D01*
X126927473Y-68316556D01*
X126930776Y-68322278D01*
X126930777Y-68322279D01*
X126964686Y-68381010D01*
X127022960Y-68481944D01*
X127027378Y-68486851D01*
X127027379Y-68486852D01*
X127098687Y-68566048D01*
X127150747Y-68623866D01*
X127237145Y-68686638D01*
X127288586Y-68724012D01*
X127305248Y-68736118D01*
X127311276Y-68738802D01*
X127311278Y-68738803D01*
X127440350Y-68796269D01*
X127479712Y-68813794D01*
X127561539Y-68831187D01*
X127660056Y-68852128D01*
X127660061Y-68852128D01*
X127666513Y-68853500D01*
X127857487Y-68853500D01*
X127863939Y-68852128D01*
X127863944Y-68852128D01*
X128004741Y-68822200D01*
X128044288Y-68813794D01*
X128083651Y-68796269D01*
X128154016Y-68786835D01*
X128218313Y-68816942D01*
X128223913Y-68822200D01*
X128228020Y-68826299D01*
X128233347Y-68831617D01*
X128382671Y-68923661D01*
X128389619Y-68925966D01*
X128389620Y-68925966D01*
X128474572Y-68954144D01*
X128532932Y-68994575D01*
X128552058Y-69027360D01*
X128554909Y-69034562D01*
X128558752Y-69045785D01*
X128571131Y-69088393D01*
X128575169Y-69095220D01*
X128575170Y-69095223D01*
X128581488Y-69105906D01*
X128590188Y-69123664D01*
X128594761Y-69135215D01*
X128594765Y-69135221D01*
X128597681Y-69142588D01*
X128602339Y-69148999D01*
X128602340Y-69149001D01*
X128623764Y-69178488D01*
X128630281Y-69188410D01*
X128648826Y-69219768D01*
X128648829Y-69219772D01*
X128652866Y-69226598D01*
X128667250Y-69240982D01*
X128680091Y-69256016D01*
X128692058Y-69272487D01*
X128723301Y-69298333D01*
X128726250Y-69300773D01*
X128735031Y-69308763D01*
X129288755Y-69862488D01*
X129296325Y-69870807D01*
X129300447Y-69877303D01*
X129306225Y-69882729D01*
X129306226Y-69882730D01*
X129350265Y-69924085D01*
X129353107Y-69926840D01*
X129372906Y-69946639D01*
X129376037Y-69949068D01*
X129376042Y-69949072D01*
X129376128Y-69949139D01*
X129385153Y-69956847D01*
X129417494Y-69987217D01*
X129424439Y-69991035D01*
X129424443Y-69991038D01*
X129435334Y-69997026D01*
X129451855Y-70007878D01*
X129467934Y-70020350D01*
X129508655Y-70037971D01*
X129519311Y-70043192D01*
X129551245Y-70060748D01*
X129551251Y-70060750D01*
X129558197Y-70064569D01*
X129565872Y-70066540D01*
X129565878Y-70066542D01*
X129577911Y-70069631D01*
X129596613Y-70076034D01*
X129615292Y-70084117D01*
X129623118Y-70085357D01*
X129623123Y-70085358D01*
X129659120Y-70091060D01*
X129670740Y-70093466D01*
X129705091Y-70102285D01*
X129713718Y-70104500D01*
X129734066Y-70104500D01*
X129753778Y-70106051D01*
X129773880Y-70109235D01*
X129818055Y-70105059D01*
X129829914Y-70104500D01*
X137282000Y-70104500D01*
X137350121Y-70124502D01*
X137396614Y-70178158D01*
X137408000Y-70230500D01*
X137408000Y-71760500D01*
X137387998Y-71828621D01*
X137334342Y-71875114D01*
X137282000Y-71886500D01*
X135693366Y-71886500D01*
X135631184Y-71893255D01*
X135494795Y-71944385D01*
X135378239Y-72031739D01*
X135290885Y-72148295D01*
X135239755Y-72284684D01*
X135233000Y-72346866D01*
X135233000Y-72993134D01*
X135233369Y-72996531D01*
X135239755Y-73055316D01*
X135237326Y-73055580D01*
X135237326Y-73084420D01*
X135239755Y-73084684D01*
X135233000Y-73146866D01*
X135233000Y-73793134D01*
X135233369Y-73796531D01*
X135239755Y-73855316D01*
X135237326Y-73855580D01*
X135237326Y-73884420D01*
X135239755Y-73884684D01*
X135233000Y-73946866D01*
X135233000Y-74517584D01*
X135212998Y-74585705D01*
X135159342Y-74632198D01*
X135089068Y-74642302D01*
X135024488Y-74612808D01*
X134987167Y-74556520D01*
X134948569Y-74437729D01*
X134946527Y-74431444D01*
X134912249Y-74372072D01*
X134881916Y-74319535D01*
X134851040Y-74266056D01*
X134825425Y-74237607D01*
X134727675Y-74129045D01*
X134727674Y-74129044D01*
X134723253Y-74124134D01*
X134568752Y-74011882D01*
X134562724Y-74009198D01*
X134562722Y-74009197D01*
X134400319Y-73936891D01*
X134400318Y-73936891D01*
X134394288Y-73934206D01*
X134298356Y-73913815D01*
X134213944Y-73895872D01*
X134213939Y-73895872D01*
X134207487Y-73894500D01*
X134016513Y-73894500D01*
X134010061Y-73895872D01*
X134010056Y-73895872D01*
X133925644Y-73913815D01*
X133829712Y-73934206D01*
X133823682Y-73936891D01*
X133823681Y-73936891D01*
X133661278Y-74009197D01*
X133661276Y-74009198D01*
X133655248Y-74011882D01*
X133500747Y-74124134D01*
X133496326Y-74129044D01*
X133496325Y-74129045D01*
X133398576Y-74237607D01*
X133372960Y-74266056D01*
X133369659Y-74271774D01*
X133369656Y-74271778D01*
X133353914Y-74299044D01*
X133302532Y-74348038D01*
X133231954Y-74361389D01*
X133187433Y-74356828D01*
X133187432Y-74356828D01*
X133184231Y-74356500D01*
X132892766Y-74356500D01*
X132596770Y-74356501D01*
X132491871Y-74367384D01*
X132485340Y-74369563D01*
X132485335Y-74369564D01*
X132337189Y-74418990D01*
X132325474Y-74422898D01*
X132176311Y-74515203D01*
X132052383Y-74639347D01*
X132050386Y-74642587D01*
X131993648Y-74682814D01*
X131922725Y-74686047D01*
X131861313Y-74650422D01*
X131853934Y-74641922D01*
X131847218Y-74633448D01*
X131733521Y-74519949D01*
X131722110Y-74510937D01*
X131585346Y-74426635D01*
X131572168Y-74420491D01*
X131419260Y-74369773D01*
X131405894Y-74366907D01*
X131312399Y-74357328D01*
X131305984Y-74357000D01*
X131287615Y-74357000D01*
X131272376Y-74361475D01*
X131271171Y-74362865D01*
X131269500Y-74370548D01*
X131269500Y-76754884D01*
X131273975Y-76770123D01*
X131275365Y-76771328D01*
X131283048Y-76772999D01*
X131305933Y-76772999D01*
X131312452Y-76772662D01*
X131407170Y-76762834D01*
X131420564Y-76759942D01*
X131573365Y-76708964D01*
X131586543Y-76702790D01*
X131723149Y-76618256D01*
X131734550Y-76609220D01*
X131848051Y-76495521D01*
X131853794Y-76488249D01*
X131911711Y-76447186D01*
X131982634Y-76443954D01*
X132044046Y-76479579D01*
X132049840Y-76486254D01*
X132053203Y-76491689D01*
X132177347Y-76615617D01*
X132326671Y-76707661D01*
X132333619Y-76709966D01*
X132333620Y-76709966D01*
X132486634Y-76760719D01*
X132486636Y-76760719D01*
X132493165Y-76762885D01*
X132596769Y-76773500D01*
X132888234Y-76773500D01*
X133184230Y-76773499D01*
X133289129Y-76762616D01*
X133295660Y-76760437D01*
X133295665Y-76760436D01*
X133448578Y-76709420D01*
X133455526Y-76707102D01*
X133604689Y-76614797D01*
X133654161Y-76565239D01*
X133716444Y-76531160D01*
X133787264Y-76536163D01*
X133832430Y-76565162D01*
X134120289Y-76853022D01*
X134330755Y-77063488D01*
X134338325Y-77071807D01*
X134342447Y-77078303D01*
X134348225Y-77083729D01*
X134348226Y-77083730D01*
X134392265Y-77125085D01*
X134395107Y-77127840D01*
X134414906Y-77147639D01*
X134418031Y-77150063D01*
X134418040Y-77150071D01*
X134418126Y-77150137D01*
X134427151Y-77157845D01*
X134459494Y-77188217D01*
X134466438Y-77192035D01*
X134466440Y-77192036D01*
X134477329Y-77198022D01*
X134493847Y-77208873D01*
X134509933Y-77221350D01*
X134550666Y-77238976D01*
X134561314Y-77244193D01*
X134600197Y-77265569D01*
X134607872Y-77267540D01*
X134607878Y-77267542D01*
X134619911Y-77270631D01*
X134638613Y-77277034D01*
X134657292Y-77285117D01*
X134690818Y-77290427D01*
X134701127Y-77292060D01*
X134712740Y-77294465D01*
X134755718Y-77305500D01*
X134776065Y-77305500D01*
X134795776Y-77307051D01*
X134802690Y-77308146D01*
X134815879Y-77310235D01*
X134823771Y-77309489D01*
X134860056Y-77306059D01*
X134871914Y-77305500D01*
X135332580Y-77305500D01*
X135400701Y-77325502D01*
X135408145Y-77330674D01*
X135459515Y-77369174D01*
X135502030Y-77426034D01*
X135507055Y-77496852D01*
X135472996Y-77559145D01*
X135459516Y-77570825D01*
X135423798Y-77597595D01*
X135408145Y-77609326D01*
X135341639Y-77634174D01*
X135332580Y-77634500D01*
X126522489Y-77634500D01*
X126454368Y-77614498D01*
X126433394Y-77597595D01*
X124903733Y-76067933D01*
X130020001Y-76067933D01*
X130020338Y-76074452D01*
X130030166Y-76169170D01*
X130033058Y-76182564D01*
X130084036Y-76335365D01*
X130090210Y-76348543D01*
X130174744Y-76485149D01*
X130183780Y-76496550D01*
X130297479Y-76610051D01*
X130308890Y-76619063D01*
X130445654Y-76703365D01*
X130458832Y-76709509D01*
X130611740Y-76760227D01*
X130625106Y-76763093D01*
X130718601Y-76772672D01*
X130725016Y-76773000D01*
X130743385Y-76773000D01*
X130758624Y-76768525D01*
X130759829Y-76767135D01*
X130761500Y-76759452D01*
X130761500Y-75837115D01*
X130757025Y-75821876D01*
X130755635Y-75820671D01*
X130747952Y-75819000D01*
X130038116Y-75819000D01*
X130022877Y-75823475D01*
X130021672Y-75824865D01*
X130020001Y-75832548D01*
X130020001Y-76067933D01*
X124903733Y-76067933D01*
X124128685Y-75292885D01*
X130020000Y-75292885D01*
X130024475Y-75308124D01*
X130025865Y-75309329D01*
X130033548Y-75311000D01*
X130743385Y-75311000D01*
X130758624Y-75306525D01*
X130759829Y-75305135D01*
X130761500Y-75297452D01*
X130761500Y-74375116D01*
X130757025Y-74359877D01*
X130755635Y-74358672D01*
X130747952Y-74357001D01*
X130725067Y-74357001D01*
X130718548Y-74357338D01*
X130623830Y-74367166D01*
X130610436Y-74370058D01*
X130457635Y-74421036D01*
X130444457Y-74427210D01*
X130307851Y-74511744D01*
X130296450Y-74520780D01*
X130182949Y-74634479D01*
X130173937Y-74645890D01*
X130089635Y-74782654D01*
X130083491Y-74795832D01*
X130032773Y-74948740D01*
X130029907Y-74962106D01*
X130020328Y-75055601D01*
X130020000Y-75062016D01*
X130020000Y-75292885D01*
X124128685Y-75292885D01*
X122015472Y-73179672D01*
X121981446Y-73117360D01*
X121978567Y-73090577D01*
X121978567Y-72324423D01*
X121998569Y-72256302D01*
X122015472Y-72235327D01*
X122248815Y-72001985D01*
X122498555Y-71752245D01*
X122506874Y-71744675D01*
X122513370Y-71740553D01*
X122560153Y-71690734D01*
X122562907Y-71687893D01*
X122582706Y-71668094D01*
X122585130Y-71664969D01*
X122585138Y-71664960D01*
X122585204Y-71664874D01*
X122592912Y-71655849D01*
X122617857Y-71629285D01*
X122623284Y-71623506D01*
X122633090Y-71605669D01*
X122643940Y-71589153D01*
X122656417Y-71573067D01*
X122674043Y-71532334D01*
X122679260Y-71521686D01*
X122700637Y-71482802D01*
X122703053Y-71484130D01*
X122738600Y-71438591D01*
X122772182Y-71421438D01*
X122875645Y-71386920D01*
X122882593Y-71384602D01*
X123031756Y-71292297D01*
X123155684Y-71168153D01*
X123247728Y-71018829D01*
X123302952Y-70852335D01*
X123313567Y-70748731D01*
X123313566Y-70161270D01*
X123302683Y-70056371D01*
X123300504Y-70049840D01*
X123300503Y-70049835D01*
X123249487Y-69896922D01*
X123247169Y-69889974D01*
X123154864Y-69740811D01*
X123030720Y-69616883D01*
X123027797Y-69615081D01*
X122987659Y-69558471D01*
X122984425Y-69487548D01*
X123020049Y-69426136D01*
X123026445Y-69420584D01*
X123031756Y-69417297D01*
X123155684Y-69293153D01*
X123247728Y-69143829D01*
X123250585Y-69135215D01*
X123300786Y-68983866D01*
X123300786Y-68983864D01*
X123302952Y-68977335D01*
X123313567Y-68873731D01*
X123313566Y-68286270D01*
X123302683Y-68181371D01*
X123300504Y-68174840D01*
X123300503Y-68174835D01*
X123249487Y-68021922D01*
X123247169Y-68014974D01*
X123154864Y-67865811D01*
X123030720Y-67741883D01*
X123030117Y-67741511D01*
X122990626Y-67685813D01*
X122987393Y-67614891D01*
X123023016Y-67553478D01*
X123032552Y-67545287D01*
X123037444Y-67541492D01*
X123044274Y-67537453D01*
X123106889Y-67474838D01*
X123169201Y-67440812D01*
X123240016Y-67445877D01*
X123296852Y-67488424D01*
X123303128Y-67497629D01*
X123339132Y-67555810D01*
X123348166Y-67567208D01*
X123462896Y-67681739D01*
X123474307Y-67690751D01*
X123612310Y-67775816D01*
X123625491Y-67781963D01*
X123779777Y-67833138D01*
X123793153Y-67836005D01*
X123887505Y-67845672D01*
X123893921Y-67846000D01*
X124118952Y-67846000D01*
X124134191Y-67841525D01*
X124135396Y-67840135D01*
X124137067Y-67832452D01*
X124137067Y-67827884D01*
X124645067Y-67827884D01*
X124649542Y-67843123D01*
X124650932Y-67844328D01*
X124658615Y-67845999D01*
X124888162Y-67845999D01*
X124894681Y-67845662D01*
X124990273Y-67835743D01*
X125003667Y-67832851D01*
X125157851Y-67781412D01*
X125171029Y-67775239D01*
X125308874Y-67689937D01*
X125320275Y-67680901D01*
X125434806Y-67566171D01*
X125443818Y-67554760D01*
X125528883Y-67416757D01*
X125535030Y-67403576D01*
X125586205Y-67249290D01*
X125589072Y-67235914D01*
X125598739Y-67141562D01*
X125599067Y-67135146D01*
X125599067Y-67097615D01*
X125594592Y-67082376D01*
X125593202Y-67081171D01*
X125585519Y-67079500D01*
X124663182Y-67079500D01*
X124647943Y-67083975D01*
X124646738Y-67085365D01*
X124645067Y-67093048D01*
X124645067Y-67827884D01*
X124137067Y-67827884D01*
X124137067Y-66697500D01*
X124157069Y-66629379D01*
X124210725Y-66582886D01*
X124263067Y-66571500D01*
X125580951Y-66571500D01*
X125596190Y-66567025D01*
X125597395Y-66565635D01*
X125599066Y-66557952D01*
X125599066Y-66515905D01*
X125598729Y-66509386D01*
X125588810Y-66413794D01*
X125585918Y-66400400D01*
X125534479Y-66246216D01*
X125528306Y-66233038D01*
X125443004Y-66095193D01*
X125433968Y-66083792D01*
X125352605Y-66002570D01*
X125318526Y-65940287D01*
X125323529Y-65869467D01*
X125352450Y-65824380D01*
X125435197Y-65741488D01*
X125435201Y-65741483D01*
X125440372Y-65736303D01*
X125462307Y-65700718D01*
X125529342Y-65591968D01*
X125529343Y-65591966D01*
X125533182Y-65585738D01*
X125574155Y-65462209D01*
X125586699Y-65424389D01*
X125586699Y-65424387D01*
X125588864Y-65417861D01*
X125590253Y-65404311D01*
X125598251Y-65326244D01*
X125599567Y-65313400D01*
X125599567Y-64687600D01*
X125592582Y-64620279D01*
X125589305Y-64588692D01*
X125589304Y-64588688D01*
X125588593Y-64581834D01*
X125552594Y-64473933D01*
X136015501Y-64473933D01*
X136015838Y-64480452D01*
X136025666Y-64575170D01*
X136028558Y-64588564D01*
X136079536Y-64741365D01*
X136085710Y-64754543D01*
X136170244Y-64891149D01*
X136179280Y-64902550D01*
X136292979Y-65016051D01*
X136304390Y-65025063D01*
X136441154Y-65109365D01*
X136454332Y-65115509D01*
X136607240Y-65166227D01*
X136620606Y-65169093D01*
X136714101Y-65178672D01*
X136720516Y-65179000D01*
X136951385Y-65179000D01*
X136966624Y-65174525D01*
X136967829Y-65173135D01*
X136969500Y-65165452D01*
X136969500Y-64455615D01*
X136965025Y-64440376D01*
X136963635Y-64439171D01*
X136955952Y-64437500D01*
X136033616Y-64437500D01*
X136018377Y-64441975D01*
X136017172Y-64443365D01*
X136015501Y-64451048D01*
X136015501Y-64473933D01*
X125552594Y-64473933D01*
X125532617Y-64414054D01*
X125439545Y-64263652D01*
X125314370Y-64138695D01*
X125308139Y-64134854D01*
X125170035Y-64049725D01*
X125170033Y-64049724D01*
X125163805Y-64045885D01*
X125084062Y-64019436D01*
X125002456Y-63992368D01*
X125002454Y-63992368D01*
X124995928Y-63990203D01*
X124989092Y-63989503D01*
X124989089Y-63989502D01*
X124946036Y-63985091D01*
X124891467Y-63979500D01*
X123890667Y-63979500D01*
X123887421Y-63979837D01*
X123887417Y-63979837D01*
X123791759Y-63989762D01*
X123791755Y-63989763D01*
X123784901Y-63990474D01*
X123778365Y-63992655D01*
X123778363Y-63992655D01*
X123660265Y-64032056D01*
X123617121Y-64046450D01*
X123466719Y-64139522D01*
X123341762Y-64264697D01*
X123337921Y-64270928D01*
X123333384Y-64276673D01*
X123331527Y-64275206D01*
X123287199Y-64315105D01*
X123232703Y-64327500D01*
X123135417Y-64327500D01*
X123067296Y-64307498D01*
X123056382Y-64298702D01*
X123056142Y-64299011D01*
X123049884Y-64294157D01*
X123044274Y-64288547D01*
X122982366Y-64251934D01*
X122933915Y-64200044D01*
X122921210Y-64130193D01*
X122948285Y-64064562D01*
X122957412Y-64054387D01*
X123100415Y-63911385D01*
X123359555Y-63652245D01*
X123367874Y-63644675D01*
X123374370Y-63640553D01*
X123395104Y-63618474D01*
X123421152Y-63590735D01*
X123423907Y-63587893D01*
X123443706Y-63568094D01*
X123446130Y-63564969D01*
X123446138Y-63564960D01*
X123446204Y-63564874D01*
X123453912Y-63555849D01*
X123461283Y-63548000D01*
X123484284Y-63523506D01*
X123489265Y-63514447D01*
X123494089Y-63505671D01*
X123504940Y-63489153D01*
X123517417Y-63473067D01*
X123535043Y-63432334D01*
X123540260Y-63421686D01*
X123557816Y-63389751D01*
X123561636Y-63382803D01*
X123563607Y-63375128D01*
X123563609Y-63375122D01*
X123566698Y-63363089D01*
X123573101Y-63344387D01*
X123581184Y-63325708D01*
X123588127Y-63281873D01*
X123590534Y-63270251D01*
X123594733Y-63253898D01*
X123601567Y-63227282D01*
X123601567Y-63206935D01*
X123603118Y-63187224D01*
X123605062Y-63174950D01*
X123606302Y-63167121D01*
X123604394Y-63146934D01*
X123602126Y-63122944D01*
X123601567Y-63111086D01*
X123601567Y-63010500D01*
X123621569Y-62942379D01*
X123675225Y-62895886D01*
X123727567Y-62884500D01*
X124014201Y-62884500D01*
X124054787Y-62880091D01*
X124082000Y-62880091D01*
X124114584Y-62883631D01*
X124121395Y-62884000D01*
X124193952Y-62884000D01*
X124209191Y-62879525D01*
X124210396Y-62878135D01*
X124213342Y-62864590D01*
X124247366Y-62802278D01*
X124260885Y-62790556D01*
X124329328Y-62739261D01*
X124416682Y-62622705D01*
X124467812Y-62486316D01*
X124468665Y-62478464D01*
X124468666Y-62478460D01*
X124468804Y-62477185D01*
X124469189Y-62476259D01*
X124470492Y-62470778D01*
X124471379Y-62470989D01*
X124496046Y-62411623D01*
X124554408Y-62371196D01*
X124625363Y-62368740D01*
X124686381Y-62405035D01*
X124718090Y-62468557D01*
X124720067Y-62490792D01*
X124720067Y-62865884D01*
X124724542Y-62881123D01*
X124725932Y-62882328D01*
X124733615Y-62883999D01*
X124810736Y-62883999D01*
X124817557Y-62883629D01*
X124868419Y-62878105D01*
X124883671Y-62874479D01*
X125004121Y-62829324D01*
X125019716Y-62820786D01*
X125121791Y-62744285D01*
X125134352Y-62731724D01*
X125210853Y-62629649D01*
X125219391Y-62614054D01*
X125264545Y-62493606D01*
X125268172Y-62478351D01*
X125273698Y-62427486D01*
X125274067Y-62420672D01*
X125274067Y-62295934D01*
X125281732Y-62261892D01*
X125282067Y-62257648D01*
X125282067Y-62243924D01*
X125790067Y-62243924D01*
X125794040Y-62257455D01*
X125801835Y-62258575D01*
X125909588Y-62226862D01*
X125920956Y-62222269D01*
X126085221Y-62136393D01*
X126095482Y-62129679D01*
X126239940Y-62013532D01*
X126248699Y-62004954D01*
X126367845Y-61862961D01*
X126374775Y-61852841D01*
X126464069Y-61690415D01*
X126468901Y-61679142D01*
X126524947Y-61502462D01*
X126527497Y-61490468D01*
X126543674Y-61346239D01*
X126544067Y-61339215D01*
X126544067Y-61008115D01*
X126539592Y-60992876D01*
X126538202Y-60991671D01*
X126530519Y-60990000D01*
X125808182Y-60990000D01*
X125792943Y-60994475D01*
X125791738Y-60995865D01*
X125790067Y-61003548D01*
X125790067Y-62243924D01*
X125282067Y-62243924D01*
X125282067Y-61923115D01*
X125277592Y-61907876D01*
X125276202Y-61906671D01*
X125268519Y-61905000D01*
X124738182Y-61905000D01*
X124722943Y-61909475D01*
X124713777Y-61920053D01*
X124689663Y-61964214D01*
X124627351Y-61998239D01*
X124556535Y-61993175D01*
X124499699Y-61950628D01*
X124474888Y-61884108D01*
X124474567Y-61875119D01*
X124474567Y-61419137D01*
X124494569Y-61351016D01*
X124548225Y-61304523D01*
X124618499Y-61294419D01*
X124683079Y-61323913D01*
X124721463Y-61383639D01*
X124724542Y-61394124D01*
X124725932Y-61395329D01*
X124733615Y-61397000D01*
X125263952Y-61397000D01*
X125279191Y-61392525D01*
X125280396Y-61391135D01*
X125282067Y-61383452D01*
X125282067Y-61008115D01*
X125277592Y-60992876D01*
X125276202Y-60991671D01*
X125268519Y-60990000D01*
X124806741Y-60990000D01*
X124738620Y-60969998D01*
X124692127Y-60916342D01*
X124682023Y-60846068D01*
X124711517Y-60781488D01*
X124720168Y-60772452D01*
X124739594Y-60754082D01*
X124739596Y-60754080D01*
X124744552Y-60749393D01*
X124748384Y-60743755D01*
X124748387Y-60743751D01*
X124842509Y-60605255D01*
X124846344Y-60599612D01*
X124861705Y-60561206D01*
X124905572Y-60505387D01*
X124978693Y-60482000D01*
X125263952Y-60482000D01*
X125279191Y-60477525D01*
X125280396Y-60476135D01*
X125282067Y-60468452D01*
X125282067Y-60463885D01*
X125790067Y-60463885D01*
X125794542Y-60479124D01*
X125795932Y-60480329D01*
X125803615Y-60482000D01*
X126525952Y-60482000D01*
X126541191Y-60477525D01*
X126542396Y-60476135D01*
X126544067Y-60468452D01*
X126544067Y-60139343D01*
X126543766Y-60133195D01*
X126530255Y-59995397D01*
X126527872Y-59983362D01*
X126474300Y-59805924D01*
X126469626Y-59794584D01*
X126382607Y-59630923D01*
X126375818Y-59620706D01*
X126258670Y-59477067D01*
X126250026Y-59468363D01*
X126107211Y-59350216D01*
X126097040Y-59343356D01*
X125933991Y-59255196D01*
X125922686Y-59250444D01*
X125807375Y-59214750D01*
X125793272Y-59214544D01*
X125790067Y-59221299D01*
X125790067Y-60463885D01*
X125282067Y-60463885D01*
X125282067Y-59228076D01*
X125278094Y-59214545D01*
X125270299Y-59213425D01*
X125162546Y-59245138D01*
X125151178Y-59249731D01*
X124986913Y-59335607D01*
X124976652Y-59342321D01*
X124832194Y-59458468D01*
X124823435Y-59467046D01*
X124779067Y-59519921D01*
X124719957Y-59559248D01*
X124648969Y-59560374D01*
X124606019Y-59539028D01*
X124540389Y-59488850D01*
X124435253Y-59439825D01*
X124382436Y-59415195D01*
X124382433Y-59415194D01*
X124376259Y-59412315D01*
X124369611Y-59410829D01*
X124369608Y-59410828D01*
X124204561Y-59373936D01*
X124204562Y-59373936D01*
X124199524Y-59372810D01*
X124193979Y-59372500D01*
X124060823Y-59372500D01*
X123926030Y-59387143D01*
X123842676Y-59415195D01*
X123760863Y-59442728D01*
X123760861Y-59442729D01*
X123754392Y-59444906D01*
X123599162Y-59538177D01*
X123594205Y-59542865D01*
X123594202Y-59542867D01*
X123491923Y-59639588D01*
X123428685Y-59671860D01*
X123358038Y-59664820D01*
X123344649Y-59658455D01*
X123328138Y-59649378D01*
X123311620Y-59638527D01*
X123295534Y-59626050D01*
X123254801Y-59608424D01*
X123244153Y-59603207D01*
X123215254Y-59587320D01*
X123205270Y-59581831D01*
X123197595Y-59579860D01*
X123197589Y-59579858D01*
X123185556Y-59576769D01*
X123166854Y-59570366D01*
X123148175Y-59562283D01*
X123108380Y-59555980D01*
X123104340Y-59555340D01*
X123092727Y-59552935D01*
X123049749Y-59541900D01*
X123029402Y-59541900D01*
X123009691Y-59540349D01*
X122997417Y-59538405D01*
X122989588Y-59537165D01*
X122981696Y-59537911D01*
X122945411Y-59541341D01*
X122933553Y-59541900D01*
X119541687Y-59541900D01*
X119530453Y-59541370D01*
X119522948Y-59539692D01*
X119455238Y-59541820D01*
X119454655Y-59541838D01*
X119450698Y-59541900D01*
X119422684Y-59541900D01*
X119418759Y-59542396D01*
X119418758Y-59542396D01*
X119418663Y-59542408D01*
X119406818Y-59543341D01*
X119376997Y-59544278D01*
X119370385Y-59544486D01*
X119370384Y-59544486D01*
X119362462Y-59544735D01*
X119342919Y-59550413D01*
X119323555Y-59554423D01*
X119311227Y-59555980D01*
X119311225Y-59555980D01*
X119303368Y-59556973D01*
X119296004Y-59559889D01*
X119295999Y-59559890D01*
X119262111Y-59573307D01*
X119250882Y-59577152D01*
X119241569Y-59579858D01*
X119208274Y-59589531D01*
X119201448Y-59593568D01*
X119190758Y-59599890D01*
X119173008Y-59608587D01*
X119154079Y-59616081D01*
X119147663Y-59620742D01*
X119147662Y-59620743D01*
X119140358Y-59626050D01*
X119121725Y-59639588D01*
X119118186Y-59642159D01*
X119108269Y-59648674D01*
X119091965Y-59658316D01*
X119023150Y-59675775D01*
X118955819Y-59653258D01*
X118931591Y-59631192D01*
X118904254Y-59598843D01*
X118897355Y-59593568D01*
X118765810Y-59492994D01*
X118765806Y-59492991D01*
X118760389Y-59488850D01*
X118655253Y-59439825D01*
X118602436Y-59415195D01*
X118602433Y-59415194D01*
X118596259Y-59412315D01*
X118589611Y-59410829D01*
X118589608Y-59410828D01*
X118424561Y-59373936D01*
X118424562Y-59373936D01*
X118419524Y-59372810D01*
X118413979Y-59372500D01*
X118280823Y-59372500D01*
X118146030Y-59387143D01*
X118062676Y-59415195D01*
X117980863Y-59442728D01*
X117980861Y-59442729D01*
X117974392Y-59444906D01*
X117822416Y-59536222D01*
X117822413Y-59536223D01*
X117819162Y-59538177D01*
X117818812Y-59537594D01*
X117757150Y-59561065D01*
X117687676Y-59546439D01*
X117649676Y-59515085D01*
X117618670Y-59477067D01*
X117610026Y-59468363D01*
X117467211Y-59350216D01*
X117457040Y-59343356D01*
X117293991Y-59255196D01*
X117282686Y-59250444D01*
X117167375Y-59214750D01*
X117153272Y-59214544D01*
X117150067Y-59221299D01*
X117150067Y-60463885D01*
X117154542Y-60479124D01*
X117155932Y-60480329D01*
X117163615Y-60482000D01*
X117453310Y-60482000D01*
X117521431Y-60502002D01*
X117564767Y-60549235D01*
X117630989Y-60674836D01*
X117635394Y-60680049D01*
X117635397Y-60680053D01*
X117722118Y-60782672D01*
X117750810Y-60847613D01*
X117739837Y-60917756D01*
X117692684Y-60970833D01*
X117625880Y-60990000D01*
X117168182Y-60990000D01*
X117152943Y-60994475D01*
X117151738Y-60995865D01*
X117150067Y-61003548D01*
X117150067Y-61378885D01*
X117154542Y-61394124D01*
X117155932Y-61395329D01*
X117163615Y-61397000D01*
X117693952Y-61397000D01*
X117709191Y-61392525D01*
X117718357Y-61381947D01*
X117742471Y-61337786D01*
X117804783Y-61303761D01*
X117875599Y-61308825D01*
X117932435Y-61351372D01*
X117957246Y-61417892D01*
X117957567Y-61426881D01*
X117957567Y-61779000D01*
X117937565Y-61847121D01*
X117883909Y-61893614D01*
X117831567Y-61905000D01*
X117168182Y-61905000D01*
X117152943Y-61909475D01*
X117151738Y-61910865D01*
X117150067Y-61918548D01*
X117150067Y-62243924D01*
X117152964Y-62253790D01*
X117158068Y-62289288D01*
X117158068Y-62420669D01*
X117158438Y-62427490D01*
X117163962Y-62478352D01*
X117167588Y-62493604D01*
X117212743Y-62614054D01*
X117221281Y-62629649D01*
X117297782Y-62731724D01*
X117310343Y-62744285D01*
X117337548Y-62764674D01*
X117380063Y-62821533D01*
X117385089Y-62892351D01*
X117351029Y-62954645D01*
X117288698Y-62988635D01*
X117261983Y-62991500D01*
X116342087Y-62991500D01*
X116330858Y-62990971D01*
X116323348Y-62989292D01*
X116315422Y-62989541D01*
X116315421Y-62989541D01*
X116255069Y-62991438D01*
X116251111Y-62991500D01*
X116223084Y-62991500D01*
X116219038Y-62992011D01*
X116207210Y-62992942D01*
X116162862Y-62994336D01*
X116155244Y-62996549D01*
X116155245Y-62996549D01*
X116143321Y-63000013D01*
X116123961Y-63004022D01*
X116111633Y-63005579D01*
X116111630Y-63005580D01*
X116103768Y-63006573D01*
X116096402Y-63009490D01*
X116096396Y-63009491D01*
X116062506Y-63022909D01*
X116051279Y-63026753D01*
X116008674Y-63039131D01*
X116001855Y-63043164D01*
X116001850Y-63043166D01*
X115991158Y-63049490D01*
X115973408Y-63058187D01*
X115954479Y-63065681D01*
X115948063Y-63070342D01*
X115948062Y-63070343D01*
X115918586Y-63091759D01*
X115908662Y-63098278D01*
X115877291Y-63116830D01*
X115877286Y-63116834D01*
X115870468Y-63120866D01*
X115856081Y-63135253D01*
X115841047Y-63148094D01*
X115824580Y-63160058D01*
X115802107Y-63187224D01*
X115796295Y-63194249D01*
X115788305Y-63203029D01*
X115488584Y-63502750D01*
X115480258Y-63510326D01*
X115473764Y-63514447D01*
X115468341Y-63520222D01*
X115426982Y-63564265D01*
X115424227Y-63567107D01*
X115404428Y-63586906D01*
X115402004Y-63590031D01*
X115401996Y-63590040D01*
X115401930Y-63590126D01*
X115394222Y-63599151D01*
X115363850Y-63631494D01*
X115360032Y-63638438D01*
X115360031Y-63638440D01*
X115354045Y-63649329D01*
X115343194Y-63665847D01*
X115330717Y-63681933D01*
X115313091Y-63722666D01*
X115307874Y-63733314D01*
X115286498Y-63772197D01*
X115284527Y-63779872D01*
X115284525Y-63779878D01*
X115281436Y-63791911D01*
X115275033Y-63810613D01*
X115266950Y-63829292D01*
X115265711Y-63837117D01*
X115260007Y-63873127D01*
X115257602Y-63884740D01*
X115246567Y-63927718D01*
X115246567Y-63948065D01*
X115245016Y-63967776D01*
X115241832Y-63987879D01*
X115242578Y-63995771D01*
X115246008Y-64032056D01*
X115246567Y-64043914D01*
X115246567Y-72278757D01*
X115226565Y-72346878D01*
X115172909Y-72393371D01*
X115133572Y-72404084D01*
X115127473Y-72404717D01*
X115100901Y-72407474D01*
X115094365Y-72409655D01*
X115094363Y-72409655D01*
X114962261Y-72453728D01*
X114933121Y-72463450D01*
X114782719Y-72556522D01*
X114657762Y-72681697D01*
X114653922Y-72687927D01*
X114653921Y-72687928D01*
X114588098Y-72794713D01*
X114564952Y-72832262D01*
X114548877Y-72880728D01*
X114516907Y-72977115D01*
X114509270Y-73000139D01*
X114508570Y-73006975D01*
X114508569Y-73006978D01*
X114504158Y-73050031D01*
X114498567Y-73104600D01*
X114498567Y-73955400D01*
X114498904Y-73958646D01*
X114498904Y-73958650D01*
X114508223Y-74048460D01*
X114509541Y-74061166D01*
X114511722Y-74067702D01*
X114511722Y-74067704D01*
X114517069Y-74083731D01*
X114565517Y-74228946D01*
X114658589Y-74379348D01*
X114663771Y-74384521D01*
X114710776Y-74431444D01*
X114783764Y-74504305D01*
X114789994Y-74508145D01*
X114789995Y-74508146D01*
X114927871Y-74593134D01*
X114934329Y-74597115D01*
X114945813Y-74600924D01*
X115095678Y-74650632D01*
X115095680Y-74650632D01*
X115102206Y-74652797D01*
X115109042Y-74653497D01*
X115109045Y-74653498D01*
X115152098Y-74657909D01*
X115206667Y-74663500D01*
X116557467Y-74663500D01*
X116560713Y-74663163D01*
X116560717Y-74663163D01*
X116656375Y-74653238D01*
X116656379Y-74653237D01*
X116663233Y-74652526D01*
X116669769Y-74650345D01*
X116669771Y-74650345D01*
X116802889Y-74605933D01*
X116831013Y-74596550D01*
X116981415Y-74503478D01*
X117106372Y-74378303D01*
X117113237Y-74367166D01*
X117195342Y-74233968D01*
X117195343Y-74233966D01*
X117199182Y-74227738D01*
X117240670Y-74102655D01*
X117252699Y-74066389D01*
X117252699Y-74066387D01*
X117254864Y-74059861D01*
X117256813Y-74040845D01*
X117260398Y-74005852D01*
X117265567Y-73955400D01*
X117265567Y-73104600D01*
X117261977Y-73070000D01*
X117255305Y-73005692D01*
X117255304Y-73005688D01*
X117254593Y-72998834D01*
X117251552Y-72989717D01*
X117200935Y-72838002D01*
X117198617Y-72831054D01*
X117105545Y-72680652D01*
X116980370Y-72555695D01*
X116854154Y-72477894D01*
X116836035Y-72466725D01*
X116836033Y-72466724D01*
X116829805Y-72462885D01*
X116750062Y-72436436D01*
X116668456Y-72409368D01*
X116668454Y-72409368D01*
X116661928Y-72407203D01*
X116655090Y-72406502D01*
X116655088Y-72406502D01*
X116634933Y-72404437D01*
X116630725Y-72404006D01*
X116564998Y-72377165D01*
X116524215Y-72319050D01*
X116517567Y-72278662D01*
X116517567Y-67956811D01*
X116537569Y-67888690D01*
X116591225Y-67842197D01*
X116661499Y-67832093D01*
X116669978Y-67833610D01*
X116681151Y-67836005D01*
X116775505Y-67845672D01*
X116781921Y-67846000D01*
X117006952Y-67846000D01*
X117022191Y-67841525D01*
X117023396Y-67840135D01*
X117025067Y-67832452D01*
X117025067Y-66697500D01*
X117045069Y-66629379D01*
X117098725Y-66582886D01*
X117151067Y-66571500D01*
X117407067Y-66571500D01*
X117475188Y-66591502D01*
X117521681Y-66645158D01*
X117533067Y-66697500D01*
X117533067Y-67827884D01*
X117537542Y-67843123D01*
X117538932Y-67844328D01*
X117546615Y-67845999D01*
X117776162Y-67845999D01*
X117782681Y-67845662D01*
X117878273Y-67835743D01*
X117891667Y-67832851D01*
X118045851Y-67781412D01*
X118059029Y-67775239D01*
X118196874Y-67689937D01*
X118208275Y-67680901D01*
X118322806Y-67566171D01*
X118331818Y-67554760D01*
X118416883Y-67416757D01*
X118423030Y-67403576D01*
X118476371Y-67242759D01*
X118477842Y-67243247D01*
X118507805Y-67187976D01*
X118570013Y-67153762D01*
X118640844Y-67158612D01*
X118697809Y-67200986D01*
X118718167Y-67241647D01*
X118728322Y-67276601D01*
X118732359Y-67283427D01*
X118808976Y-67412980D01*
X118808978Y-67412983D01*
X118813014Y-67419807D01*
X118930305Y-67537098D01*
X118964331Y-67599410D01*
X118959266Y-67670225D01*
X118916719Y-67727061D01*
X118907521Y-67733332D01*
X118892378Y-67742703D01*
X118768450Y-67866847D01*
X118676406Y-68016171D01*
X118674101Y-68023119D01*
X118674101Y-68023120D01*
X118639193Y-68128365D01*
X118621182Y-68182665D01*
X118610567Y-68286269D01*
X118610568Y-68873730D01*
X118621451Y-68978629D01*
X118623630Y-68985160D01*
X118623631Y-68985165D01*
X118663914Y-69105906D01*
X118676965Y-69145026D01*
X118769270Y-69294189D01*
X118893414Y-69418117D01*
X118896337Y-69419919D01*
X118936475Y-69476529D01*
X118939709Y-69547452D01*
X118904085Y-69608864D01*
X118897689Y-69614416D01*
X118892378Y-69617703D01*
X118768450Y-69741847D01*
X118676406Y-69891171D01*
X118674101Y-69898119D01*
X118674101Y-69898120D01*
X118625983Y-70043192D01*
X118621182Y-70057665D01*
X118610567Y-70161269D01*
X118610568Y-70748730D01*
X118621451Y-70853629D01*
X118623630Y-70860160D01*
X118623631Y-70860165D01*
X118673057Y-71008311D01*
X118676965Y-71020026D01*
X118769270Y-71169189D01*
X118893414Y-71293117D01*
X119042738Y-71385161D01*
X119049686Y-71387466D01*
X119049687Y-71387466D01*
X119202701Y-71438219D01*
X119202703Y-71438219D01*
X119209232Y-71440385D01*
X119216076Y-71441086D01*
X119222802Y-71442528D01*
X119222233Y-71445183D01*
X119276627Y-71467388D01*
X119306524Y-71501762D01*
X119308893Y-71505768D01*
X119308896Y-71505772D01*
X119312933Y-71512598D01*
X119327317Y-71526982D01*
X119340158Y-71542016D01*
X119352125Y-71558487D01*
X119377321Y-71579331D01*
X119386317Y-71586773D01*
X119395098Y-71594763D01*
X120035663Y-72235329D01*
X120069688Y-72297641D01*
X120072567Y-72324424D01*
X120072567Y-73715047D01*
X120072037Y-73726281D01*
X120070359Y-73733786D01*
X120070608Y-73741705D01*
X120072505Y-73802079D01*
X120072567Y-73806036D01*
X120072567Y-73834050D01*
X120073063Y-73837975D01*
X120073063Y-73837976D01*
X120073075Y-73838071D01*
X120074008Y-73849916D01*
X120075402Y-73894272D01*
X120077614Y-73901884D01*
X120081080Y-73913815D01*
X120085090Y-73933179D01*
X120087640Y-73953366D01*
X120090556Y-73960730D01*
X120090557Y-73960735D01*
X120103974Y-73994623D01*
X120107819Y-74005852D01*
X120120198Y-74048460D01*
X120124236Y-74055287D01*
X120124237Y-74055290D01*
X120130555Y-74065973D01*
X120139255Y-74083731D01*
X120143828Y-74095282D01*
X120143832Y-74095288D01*
X120146748Y-74102655D01*
X120151406Y-74109066D01*
X120151407Y-74109068D01*
X120172831Y-74138555D01*
X120179348Y-74148477D01*
X120197893Y-74179835D01*
X120197896Y-74179839D01*
X120201933Y-74186665D01*
X120216317Y-74201049D01*
X120229158Y-74216083D01*
X120241125Y-74232554D01*
X120247233Y-74237607D01*
X120275322Y-74260844D01*
X120284102Y-74268834D01*
X125478750Y-79463483D01*
X125486326Y-79471809D01*
X125490447Y-79478303D01*
X125496222Y-79483726D01*
X125540265Y-79525085D01*
X125543107Y-79527840D01*
X125562906Y-79547639D01*
X125566031Y-79550063D01*
X125566040Y-79550071D01*
X125566126Y-79550137D01*
X125575151Y-79557845D01*
X125607494Y-79588217D01*
X125614438Y-79592035D01*
X125614440Y-79592036D01*
X125625329Y-79598022D01*
X125641847Y-79608873D01*
X125657933Y-79621350D01*
X125698666Y-79638976D01*
X125709313Y-79644193D01*
X125740041Y-79661086D01*
X125790100Y-79711431D01*
X125804993Y-79780848D01*
X125779992Y-79847297D01*
X125723035Y-79889681D01*
X125679340Y-79897500D01*
X118842293Y-79897500D01*
X118774172Y-79877498D01*
X118753198Y-79860595D01*
X116617972Y-77725370D01*
X116583947Y-77663058D01*
X116581067Y-77636275D01*
X116581067Y-77570730D01*
X116601069Y-77502609D01*
X116654725Y-77456116D01*
X116667190Y-77451207D01*
X116824060Y-77398870D01*
X116824062Y-77398869D01*
X116831013Y-77396550D01*
X116981415Y-77303478D01*
X117106372Y-77178303D01*
X117127844Y-77143469D01*
X117195342Y-77033968D01*
X117195343Y-77033966D01*
X117199182Y-77027738D01*
X117254864Y-76859861D01*
X117265567Y-76755400D01*
X117265567Y-75904600D01*
X117256859Y-75820671D01*
X117255305Y-75805692D01*
X117255304Y-75805688D01*
X117254593Y-75798834D01*
X117198617Y-75631054D01*
X117105545Y-75480652D01*
X116980370Y-75355695D01*
X116878474Y-75292885D01*
X116836035Y-75266725D01*
X116836033Y-75266724D01*
X116829805Y-75262885D01*
X116744226Y-75234500D01*
X116668456Y-75209368D01*
X116668454Y-75209368D01*
X116661928Y-75207203D01*
X116655092Y-75206503D01*
X116655089Y-75206502D01*
X116612036Y-75202091D01*
X116557467Y-75196500D01*
X115206667Y-75196500D01*
X115203421Y-75196837D01*
X115203417Y-75196837D01*
X115107759Y-75206762D01*
X115107755Y-75206763D01*
X115100901Y-75207474D01*
X115094365Y-75209655D01*
X115094363Y-75209655D01*
X115019894Y-75234500D01*
X114933121Y-75263450D01*
X114782719Y-75356522D01*
X114657762Y-75481697D01*
X114564952Y-75632262D01*
X114509270Y-75800139D01*
X114508570Y-75806975D01*
X114508569Y-75806978D01*
X114505949Y-75832548D01*
X114498567Y-75904600D01*
X114498567Y-76755400D01*
X114498904Y-76758646D01*
X114498904Y-76758650D01*
X114500220Y-76771328D01*
X114509541Y-76861166D01*
X114565517Y-77028946D01*
X114658589Y-77179348D01*
X114783764Y-77304305D01*
X114789994Y-77308145D01*
X114789995Y-77308146D01*
X114927157Y-77392694D01*
X114934329Y-77397115D01*
X115021518Y-77426034D01*
X115096734Y-77450982D01*
X115155094Y-77491412D01*
X115182331Y-77556977D01*
X115183067Y-77570575D01*
X115183067Y-77949401D01*
X115182775Y-77957971D01*
X115178897Y-78014852D01*
X115180202Y-78022328D01*
X115180202Y-78022332D01*
X115189730Y-78076924D01*
X115190693Y-78083449D01*
X115193362Y-78105500D01*
X115198258Y-78145960D01*
X115200942Y-78153062D01*
X115201786Y-78156500D01*
X115205650Y-78170623D01*
X115206680Y-78174034D01*
X115207986Y-78181517D01*
X115211039Y-78188472D01*
X115233306Y-78239198D01*
X115235797Y-78245304D01*
X115258061Y-78304222D01*
X115262360Y-78310477D01*
X115264002Y-78313618D01*
X115271100Y-78326372D01*
X115272937Y-78329478D01*
X115275990Y-78336433D01*
X115280615Y-78342460D01*
X115280617Y-78342464D01*
X115314332Y-78386402D01*
X115318196Y-78391720D01*
X115353888Y-78443652D01*
X115359558Y-78448704D01*
X115359559Y-78448705D01*
X115399755Y-78484518D01*
X115405031Y-78489499D01*
X117986070Y-81070538D01*
X117991923Y-81076803D01*
X118029409Y-81119774D01*
X118080953Y-81155999D01*
X118086238Y-81159925D01*
X118129825Y-81194101D01*
X118129828Y-81194103D01*
X118135807Y-81198791D01*
X118142729Y-81201917D01*
X118145814Y-81203785D01*
X118158476Y-81211007D01*
X118161616Y-81212690D01*
X118167828Y-81217056D01*
X118209823Y-81233429D01*
X118226513Y-81239936D01*
X118232586Y-81242488D01*
X118290002Y-81268413D01*
X118297470Y-81269797D01*
X118300852Y-81270857D01*
X118314958Y-81274875D01*
X118318382Y-81275754D01*
X118325456Y-81278512D01*
X118387907Y-81286734D01*
X118394411Y-81287764D01*
X118456354Y-81299244D01*
X118463934Y-81298807D01*
X118463935Y-81298807D01*
X118517668Y-81295709D01*
X118524920Y-81295500D01*
X130835861Y-81295500D01*
X130903982Y-81315502D01*
X130924878Y-81332326D01*
X131027347Y-81434617D01*
X131030587Y-81436614D01*
X131070814Y-81493352D01*
X131074047Y-81564275D01*
X131038422Y-81625687D01*
X131029922Y-81633066D01*
X131021448Y-81639782D01*
X130907949Y-81753479D01*
X130898937Y-81764890D01*
X130814635Y-81901654D01*
X130808491Y-81914832D01*
X130757773Y-82067740D01*
X130754907Y-82081106D01*
X130745328Y-82174601D01*
X130745000Y-82181016D01*
X130745000Y-82199385D01*
X130749475Y-82214624D01*
X130750865Y-82215829D01*
X130758548Y-82217500D01*
X133142884Y-82217500D01*
X133158123Y-82213025D01*
X133159328Y-82211635D01*
X133160999Y-82203952D01*
X133160999Y-82181067D01*
X133160662Y-82174548D01*
X133150834Y-82079830D01*
X133147942Y-82066436D01*
X133096964Y-81913635D01*
X133090790Y-81900457D01*
X133006256Y-81763851D01*
X132997220Y-81752450D01*
X132883521Y-81638949D01*
X132876249Y-81633206D01*
X132835186Y-81575289D01*
X132831954Y-81504366D01*
X132867579Y-81442954D01*
X132874254Y-81437160D01*
X132879689Y-81433797D01*
X132971000Y-81342327D01*
X132980828Y-81332482D01*
X133043111Y-81298403D01*
X133070001Y-81295500D01*
X133287000Y-81295500D01*
X133355121Y-81315502D01*
X133401614Y-81369158D01*
X133413000Y-81421500D01*
X133413000Y-81826729D01*
X133412708Y-81835299D01*
X133408830Y-81892180D01*
X133410135Y-81899656D01*
X133410135Y-81899660D01*
X133419663Y-81954252D01*
X133420626Y-81960777D01*
X133428191Y-82023288D01*
X133430875Y-82030390D01*
X133431719Y-82033828D01*
X133435583Y-82047951D01*
X133436613Y-82051362D01*
X133437919Y-82058845D01*
X133440972Y-82065800D01*
X133463239Y-82116526D01*
X133465730Y-82122632D01*
X133482963Y-82168235D01*
X133487994Y-82181550D01*
X133492293Y-82187805D01*
X133493935Y-82190946D01*
X133501033Y-82203700D01*
X133502870Y-82206806D01*
X133505923Y-82213761D01*
X133510548Y-82219788D01*
X133510550Y-82219792D01*
X133544265Y-82263730D01*
X133548129Y-82269048D01*
X133583821Y-82320980D01*
X133629707Y-82361863D01*
X133634963Y-82366826D01*
X135562182Y-84294046D01*
X135568035Y-84300311D01*
X135605514Y-84343274D01*
X135657055Y-84379498D01*
X135662340Y-84383423D01*
X135674603Y-84393038D01*
X135711912Y-84422292D01*
X135718830Y-84425416D01*
X135721851Y-84427245D01*
X135734570Y-84434500D01*
X135737718Y-84436188D01*
X135743933Y-84440556D01*
X135802622Y-84463438D01*
X135808667Y-84465978D01*
X135866107Y-84491913D01*
X135873580Y-84493298D01*
X135876998Y-84494369D01*
X135890987Y-84498354D01*
X135894479Y-84499251D01*
X135901561Y-84502012D01*
X135909094Y-84503004D01*
X135909095Y-84503004D01*
X135964002Y-84510233D01*
X135970515Y-84511265D01*
X136024990Y-84521361D01*
X136024992Y-84521361D01*
X136032459Y-84522745D01*
X136040039Y-84522308D01*
X136040040Y-84522308D01*
X136093784Y-84519209D01*
X136101037Y-84519000D01*
X137766401Y-84519000D01*
X137774971Y-84519292D01*
X137824277Y-84522654D01*
X137824281Y-84522654D01*
X137831852Y-84523170D01*
X137839328Y-84521865D01*
X137839332Y-84521865D01*
X137893924Y-84512337D01*
X137900449Y-84511374D01*
X137955418Y-84504722D01*
X137955420Y-84504721D01*
X137962960Y-84503809D01*
X137970062Y-84501125D01*
X137973500Y-84500281D01*
X137987623Y-84496417D01*
X137991034Y-84495387D01*
X137998517Y-84494081D01*
X138056197Y-84468761D01*
X138062304Y-84466270D01*
X138114117Y-84446691D01*
X138114118Y-84446690D01*
X138121222Y-84444006D01*
X138127477Y-84439707D01*
X138130618Y-84438065D01*
X138143372Y-84430967D01*
X138146478Y-84429130D01*
X138153433Y-84426077D01*
X138159460Y-84421452D01*
X138159464Y-84421450D01*
X138203402Y-84387735D01*
X138208720Y-84383871D01*
X138260652Y-84348179D01*
X138301526Y-84302303D01*
X138306490Y-84297046D01*
X138665552Y-83937984D01*
X138671802Y-83932145D01*
X138714774Y-83894658D01*
X138750998Y-83843117D01*
X138754923Y-83837832D01*
X138789107Y-83794235D01*
X138793792Y-83788260D01*
X138796916Y-83781342D01*
X138798745Y-83778321D01*
X138806000Y-83765602D01*
X138807688Y-83762454D01*
X138812056Y-83756239D01*
X138834938Y-83697550D01*
X138837478Y-83691505D01*
X138863413Y-83634065D01*
X138864798Y-83626592D01*
X138865869Y-83623174D01*
X138869854Y-83609185D01*
X138870751Y-83605693D01*
X138873512Y-83598611D01*
X138877198Y-83570615D01*
X138881733Y-83536170D01*
X138882764Y-83529659D01*
X138890914Y-83485683D01*
X138922993Y-83422350D01*
X138984222Y-83386413D01*
X139055161Y-83389283D01*
X139115629Y-83433078D01*
X139153239Y-83483261D01*
X139160419Y-83488642D01*
X139160420Y-83488643D01*
X139195065Y-83514608D01*
X139237580Y-83571467D01*
X139242913Y-83601074D01*
X139249975Y-83625123D01*
X139251365Y-83626328D01*
X139259048Y-83627999D01*
X139311169Y-83627999D01*
X139317990Y-83627629D01*
X139376707Y-83621252D01*
X139377005Y-83623998D01*
X139405946Y-83623940D01*
X139406184Y-83621745D01*
X139460367Y-83627631D01*
X139468366Y-83628500D01*
X140114634Y-83628500D01*
X140122634Y-83627631D01*
X140176816Y-83621745D01*
X140177080Y-83624174D01*
X140205920Y-83624174D01*
X140206184Y-83621745D01*
X140260367Y-83627631D01*
X140268366Y-83628500D01*
X140914634Y-83628500D01*
X140922634Y-83627631D01*
X140976816Y-83621745D01*
X140977080Y-83624174D01*
X141005920Y-83624174D01*
X141006184Y-83621745D01*
X141060367Y-83627631D01*
X141068366Y-83628500D01*
X141714634Y-83628500D01*
X141722634Y-83627631D01*
X141776816Y-83621745D01*
X141777080Y-83624174D01*
X141805920Y-83624174D01*
X141806184Y-83621745D01*
X141860367Y-83627631D01*
X141868366Y-83628500D01*
X142514634Y-83628500D01*
X142522634Y-83627631D01*
X142576816Y-83621745D01*
X142577080Y-83624174D01*
X142605920Y-83624174D01*
X142606184Y-83621745D01*
X142660367Y-83627631D01*
X142668366Y-83628500D01*
X143314634Y-83628500D01*
X143322634Y-83627631D01*
X143376816Y-83621745D01*
X143377080Y-83624174D01*
X143405920Y-83624174D01*
X143406184Y-83621745D01*
X143460367Y-83627631D01*
X143468366Y-83628500D01*
X144114634Y-83628500D01*
X144122634Y-83627631D01*
X144176816Y-83621745D01*
X144177080Y-83624174D01*
X144205920Y-83624174D01*
X144206184Y-83621745D01*
X144260367Y-83627631D01*
X144268366Y-83628500D01*
X144914634Y-83628500D01*
X144922634Y-83627631D01*
X144976816Y-83621745D01*
X144977048Y-83623884D01*
X145006012Y-83623834D01*
X145006293Y-83621252D01*
X145065014Y-83627631D01*
X145071828Y-83628000D01*
X145119385Y-83628000D01*
X145134624Y-83623525D01*
X145135829Y-83622135D01*
X145140379Y-83601217D01*
X145141597Y-83601482D01*
X145157502Y-83547313D01*
X145187935Y-83514608D01*
X145222580Y-83488643D01*
X145222581Y-83488642D01*
X145229761Y-83483261D01*
X145265676Y-83435340D01*
X145322533Y-83392827D01*
X145393351Y-83387801D01*
X145455645Y-83421861D01*
X145489635Y-83484192D01*
X145492500Y-83510907D01*
X145492500Y-83551901D01*
X145492208Y-83560471D01*
X145488887Y-83609185D01*
X145488330Y-83617352D01*
X145489635Y-83624828D01*
X145489635Y-83624832D01*
X145499163Y-83679424D01*
X145500126Y-83685949D01*
X145507691Y-83748460D01*
X145510375Y-83755562D01*
X145511219Y-83759000D01*
X145515083Y-83773123D01*
X145516113Y-83776534D01*
X145517419Y-83784017D01*
X145520472Y-83790972D01*
X145542739Y-83841698D01*
X145545230Y-83847804D01*
X145567494Y-83906722D01*
X145571793Y-83912977D01*
X145573435Y-83916118D01*
X145580533Y-83928872D01*
X145582370Y-83931978D01*
X145585423Y-83938933D01*
X145590048Y-83944960D01*
X145590050Y-83944964D01*
X145623765Y-83988902D01*
X145627629Y-83994220D01*
X145663321Y-84046152D01*
X145668991Y-84051204D01*
X145668992Y-84051205D01*
X145709188Y-84087018D01*
X145714464Y-84091999D01*
X146577461Y-84954996D01*
X146611487Y-85017308D01*
X146606422Y-85088123D01*
X146577539Y-85133108D01*
X146530383Y-85180347D01*
X146528386Y-85183587D01*
X146471648Y-85223814D01*
X146400725Y-85227047D01*
X146339313Y-85191422D01*
X146331934Y-85182922D01*
X146325218Y-85174448D01*
X146211521Y-85060949D01*
X146200110Y-85051937D01*
X146063346Y-84967635D01*
X146050168Y-84961491D01*
X145897260Y-84910773D01*
X145883894Y-84907907D01*
X145790399Y-84898328D01*
X145783984Y-84898000D01*
X145765615Y-84898000D01*
X145750376Y-84902475D01*
X145749171Y-84903865D01*
X145747500Y-84911548D01*
X145747500Y-87295884D01*
X145751975Y-87311123D01*
X145753365Y-87312328D01*
X145761048Y-87313999D01*
X145783933Y-87313999D01*
X145790452Y-87313662D01*
X145885170Y-87303834D01*
X145898564Y-87300942D01*
X146051365Y-87249964D01*
X146064543Y-87243790D01*
X146201149Y-87159256D01*
X146212550Y-87150220D01*
X146326051Y-87036521D01*
X146331794Y-87029249D01*
X146389711Y-86988186D01*
X146460634Y-86984954D01*
X146522046Y-87020579D01*
X146527840Y-87027254D01*
X146531203Y-87032689D01*
X146655347Y-87156617D01*
X146661579Y-87160459D01*
X146661581Y-87160460D01*
X146692580Y-87179568D01*
X146737390Y-87229357D01*
X146738290Y-87228886D01*
X146741810Y-87235620D01*
X146744494Y-87242722D01*
X146748793Y-87248977D01*
X146750435Y-87252118D01*
X146757533Y-87264872D01*
X146759370Y-87267978D01*
X146762423Y-87274933D01*
X146767048Y-87280960D01*
X146767050Y-87280964D01*
X146800765Y-87324902D01*
X146804629Y-87330220D01*
X146840321Y-87382152D01*
X146845991Y-87387204D01*
X146845992Y-87387205D01*
X146886188Y-87423018D01*
X146891464Y-87427999D01*
X147059503Y-87596038D01*
X147065356Y-87602303D01*
X147102842Y-87645274D01*
X147137476Y-87669615D01*
X147154378Y-87681494D01*
X147159674Y-87685427D01*
X147203263Y-87719606D01*
X147203266Y-87719608D01*
X147209240Y-87724292D01*
X147216164Y-87727418D01*
X147219199Y-87729256D01*
X147231898Y-87736500D01*
X147235046Y-87738188D01*
X147241261Y-87742556D01*
X147299950Y-87765438D01*
X147305995Y-87767978D01*
X147363435Y-87793913D01*
X147370908Y-87795298D01*
X147374326Y-87796369D01*
X147388315Y-87800354D01*
X147391807Y-87801251D01*
X147398889Y-87804012D01*
X147406422Y-87805004D01*
X147406423Y-87805004D01*
X147461330Y-87812233D01*
X147467843Y-87813265D01*
X147522318Y-87823361D01*
X147522320Y-87823361D01*
X147529787Y-87824745D01*
X147537367Y-87824308D01*
X147537368Y-87824308D01*
X147591112Y-87821209D01*
X147598365Y-87821000D01*
X148942401Y-87821000D01*
X148950971Y-87821292D01*
X149000277Y-87824654D01*
X149000281Y-87824654D01*
X149007852Y-87825170D01*
X149015328Y-87823865D01*
X149015332Y-87823865D01*
X149069924Y-87814337D01*
X149076449Y-87813374D01*
X149131418Y-87806722D01*
X149131420Y-87806721D01*
X149138960Y-87805809D01*
X149146062Y-87803125D01*
X149149500Y-87802281D01*
X149163623Y-87798417D01*
X149167034Y-87797387D01*
X149174517Y-87796081D01*
X149232197Y-87770761D01*
X149238304Y-87768270D01*
X149290117Y-87748691D01*
X149290118Y-87748690D01*
X149297222Y-87746006D01*
X149303477Y-87741707D01*
X149306618Y-87740065D01*
X149319372Y-87732967D01*
X149322478Y-87731130D01*
X149329433Y-87728077D01*
X149335460Y-87723452D01*
X149335464Y-87723450D01*
X149379402Y-87689735D01*
X149384720Y-87685871D01*
X149436652Y-87650179D01*
X149477519Y-87604311D01*
X149482499Y-87599036D01*
X149909472Y-87172063D01*
X149972369Y-87137912D01*
X150142288Y-87101794D01*
X150285885Y-87037861D01*
X150310722Y-87026803D01*
X150310724Y-87026802D01*
X150316752Y-87024118D01*
X150471253Y-86911866D01*
X150491353Y-86889543D01*
X150594621Y-86774852D01*
X150594622Y-86774851D01*
X150599040Y-86769944D01*
X150688236Y-86615452D01*
X150691223Y-86610279D01*
X150691224Y-86610278D01*
X150694527Y-86604556D01*
X150753542Y-86422928D01*
X150759540Y-86365865D01*
X150772814Y-86239565D01*
X150773504Y-86233000D01*
X150760028Y-86104783D01*
X150754232Y-86049635D01*
X150754232Y-86049633D01*
X150753542Y-86043072D01*
X150694527Y-85861444D01*
X150689075Y-85852000D01*
X150602341Y-85701774D01*
X150599040Y-85696056D01*
X150522338Y-85610869D01*
X150475675Y-85559045D01*
X150475674Y-85559044D01*
X150471253Y-85554134D01*
X150316752Y-85441882D01*
X150310724Y-85439198D01*
X150310722Y-85439197D01*
X150148319Y-85366891D01*
X150148318Y-85366891D01*
X150142288Y-85364206D01*
X150047227Y-85344000D01*
X149961944Y-85325872D01*
X149961939Y-85325872D01*
X149955487Y-85324500D01*
X149764513Y-85324500D01*
X149758061Y-85325872D01*
X149758056Y-85325872D01*
X149672773Y-85344000D01*
X149577712Y-85364206D01*
X149571682Y-85366891D01*
X149571681Y-85366891D01*
X149409278Y-85439197D01*
X149409276Y-85439198D01*
X149403248Y-85441882D01*
X149248747Y-85554134D01*
X149244326Y-85559044D01*
X149244325Y-85559045D01*
X149197663Y-85610869D01*
X149120960Y-85696056D01*
X149117659Y-85701774D01*
X149030926Y-85852000D01*
X149025473Y-85861444D01*
X149023431Y-85867729D01*
X148980036Y-86001285D01*
X148966458Y-86043072D01*
X148965768Y-86049635D01*
X148965768Y-86049637D01*
X148959972Y-86104783D01*
X148932959Y-86170440D01*
X148923757Y-86180708D01*
X148718370Y-86386095D01*
X148656058Y-86420121D01*
X148629275Y-86423000D01*
X148490500Y-86423000D01*
X148422379Y-86402998D01*
X148375886Y-86349342D01*
X148364500Y-86297000D01*
X148364499Y-85603037D01*
X148364499Y-85599770D01*
X148353616Y-85494871D01*
X148351437Y-85488340D01*
X148351436Y-85488335D01*
X148300420Y-85335422D01*
X148298102Y-85328474D01*
X148205797Y-85179311D01*
X148200615Y-85174138D01*
X148104482Y-85078172D01*
X148070403Y-85015889D01*
X148067500Y-84988999D01*
X148067500Y-84786089D01*
X148067792Y-84777519D01*
X148071153Y-84728224D01*
X148071153Y-84728220D01*
X148071669Y-84720648D01*
X148060837Y-84658585D01*
X148059875Y-84652064D01*
X148053222Y-84597082D01*
X148053221Y-84597079D01*
X148052309Y-84589540D01*
X148049623Y-84582431D01*
X148048777Y-84578988D01*
X148044914Y-84564863D01*
X148043886Y-84561458D01*
X148042581Y-84553982D01*
X148017265Y-84496310D01*
X148014777Y-84490215D01*
X147995190Y-84438380D01*
X147995189Y-84438378D01*
X147992506Y-84431278D01*
X147988209Y-84425026D01*
X147986566Y-84421883D01*
X147979471Y-84409135D01*
X147977630Y-84406023D01*
X147974577Y-84399067D01*
X147936232Y-84349093D01*
X147932361Y-84343766D01*
X147900981Y-84298107D01*
X147900980Y-84298105D01*
X147896679Y-84291848D01*
X147850830Y-84250998D01*
X147845554Y-84246018D01*
X147437368Y-83837832D01*
X146987873Y-83388338D01*
X146953848Y-83326025D01*
X146958987Y-83255012D01*
X146968245Y-83230316D01*
X146975000Y-83168134D01*
X146975000Y-82761933D01*
X151001501Y-82761933D01*
X151001838Y-82768452D01*
X151011666Y-82863170D01*
X151014558Y-82876564D01*
X151065536Y-83029365D01*
X151071710Y-83042543D01*
X151156244Y-83179149D01*
X151165280Y-83190550D01*
X151278979Y-83304051D01*
X151290390Y-83313063D01*
X151427154Y-83397365D01*
X151440332Y-83403509D01*
X151593240Y-83454227D01*
X151606606Y-83457093D01*
X151700101Y-83466672D01*
X151706516Y-83467000D01*
X151937385Y-83467000D01*
X151952624Y-83462525D01*
X151953829Y-83461135D01*
X151955500Y-83453452D01*
X151955500Y-83448884D01*
X152463500Y-83448884D01*
X152467975Y-83464123D01*
X152469365Y-83465328D01*
X152477048Y-83466999D01*
X152712433Y-83466999D01*
X152718952Y-83466662D01*
X152813670Y-83456834D01*
X152827064Y-83453942D01*
X152979865Y-83402964D01*
X152993043Y-83396790D01*
X153129649Y-83312256D01*
X153141050Y-83303220D01*
X153254551Y-83189521D01*
X153263563Y-83178110D01*
X153347865Y-83041346D01*
X153354009Y-83028168D01*
X153404727Y-82875260D01*
X153407593Y-82861894D01*
X153417172Y-82768399D01*
X153417500Y-82761984D01*
X153417500Y-82743615D01*
X153413025Y-82728376D01*
X153411635Y-82727171D01*
X153403952Y-82725500D01*
X152481615Y-82725500D01*
X152466376Y-82729975D01*
X152465171Y-82731365D01*
X152463500Y-82739048D01*
X152463500Y-83448884D01*
X151955500Y-83448884D01*
X151955500Y-82743615D01*
X151951025Y-82728376D01*
X151949635Y-82727171D01*
X151941952Y-82725500D01*
X151019616Y-82725500D01*
X151004377Y-82729975D01*
X151003172Y-82731365D01*
X151001501Y-82739048D01*
X151001501Y-82761933D01*
X146975000Y-82761933D01*
X146975000Y-81579500D01*
X146995002Y-81511379D01*
X147048658Y-81464886D01*
X147101000Y-81453500D01*
X148689634Y-81453500D01*
X148751816Y-81446745D01*
X148888205Y-81395615D01*
X148974856Y-81330674D01*
X149041361Y-81305826D01*
X149050420Y-81305500D01*
X151102378Y-81305500D01*
X151170499Y-81325502D01*
X151191396Y-81342327D01*
X151258185Y-81409000D01*
X151283847Y-81434617D01*
X151287087Y-81436614D01*
X151327314Y-81493352D01*
X151330547Y-81564275D01*
X151294922Y-81625687D01*
X151286422Y-81633066D01*
X151277948Y-81639782D01*
X151164449Y-81753479D01*
X151155437Y-81764890D01*
X151071135Y-81901654D01*
X151064991Y-81914832D01*
X151014273Y-82067740D01*
X151011407Y-82081106D01*
X151001828Y-82174601D01*
X151001500Y-82181016D01*
X151001500Y-82199385D01*
X151005975Y-82214624D01*
X151007365Y-82215829D01*
X151015048Y-82217500D01*
X153399384Y-82217500D01*
X153414623Y-82213025D01*
X153415828Y-82211635D01*
X153417499Y-82203952D01*
X153417499Y-82181067D01*
X153417162Y-82174548D01*
X153407334Y-82079830D01*
X153404442Y-82066436D01*
X153353464Y-81913635D01*
X153347290Y-81900457D01*
X153262756Y-81763851D01*
X153253720Y-81752450D01*
X153140021Y-81638949D01*
X153132749Y-81633206D01*
X153091686Y-81575289D01*
X153088454Y-81504366D01*
X153124079Y-81442954D01*
X153130754Y-81437160D01*
X153136189Y-81433797D01*
X153260117Y-81309653D01*
X153279313Y-81278512D01*
X153312056Y-81225392D01*
X153352161Y-81160329D01*
X153359308Y-81138783D01*
X153405219Y-81000366D01*
X153405219Y-81000364D01*
X153407385Y-80993835D01*
X153418000Y-80890231D01*
X153417999Y-80302770D01*
X153407116Y-80197871D01*
X153404937Y-80191340D01*
X153404936Y-80191335D01*
X153352328Y-80033650D01*
X153349744Y-79962700D01*
X153385928Y-79901616D01*
X153449392Y-79869792D01*
X153519987Y-79877331D01*
X153560947Y-79904679D01*
X153950595Y-80294327D01*
X153984621Y-80356639D01*
X153987500Y-80383422D01*
X153987500Y-93028000D01*
X153967498Y-93096121D01*
X153913842Y-93142614D01*
X153861500Y-93154000D01*
X114343920Y-93154000D01*
X114324538Y-93152500D01*
X114323921Y-93152404D01*
X114300829Y-93148809D01*
X114284538Y-93150940D01*
X114259958Y-93151734D01*
X114058348Y-93138525D01*
X114042008Y-93136374D01*
X113817943Y-93091810D01*
X113802034Y-93087547D01*
X113626602Y-93028000D01*
X113585699Y-93014116D01*
X113570471Y-93007809D01*
X113365575Y-92906769D01*
X113351301Y-92898528D01*
X113161348Y-92771608D01*
X113148272Y-92761574D01*
X112976519Y-92610953D01*
X112964864Y-92599298D01*
X112814230Y-92427532D01*
X112804197Y-92414457D01*
X112677276Y-92224507D01*
X112669043Y-92210248D01*
X112567991Y-92005330D01*
X112561695Y-91990129D01*
X112488256Y-91773780D01*
X112483993Y-91757867D01*
X112439428Y-91533806D01*
X112437277Y-91517464D01*
X112424542Y-91323101D01*
X112425587Y-91299624D01*
X112425626Y-91296410D01*
X112427008Y-91287537D01*
X112422880Y-91255962D01*
X112421817Y-91239628D01*
X112421817Y-90963669D01*
X120154001Y-90963669D01*
X120154371Y-90970490D01*
X120159895Y-91021352D01*
X120163521Y-91036604D01*
X120208676Y-91157054D01*
X120217214Y-91172649D01*
X120293715Y-91274724D01*
X120306276Y-91287285D01*
X120408351Y-91363786D01*
X120423946Y-91372324D01*
X120544394Y-91417478D01*
X120559649Y-91421105D01*
X120610514Y-91426631D01*
X120617328Y-91427000D01*
X121289885Y-91427000D01*
X121305124Y-91422525D01*
X121306329Y-91421135D01*
X121308000Y-91413452D01*
X121308000Y-91408884D01*
X121816000Y-91408884D01*
X121820475Y-91424123D01*
X121821865Y-91425328D01*
X121829548Y-91426999D01*
X122506669Y-91426999D01*
X122513490Y-91426629D01*
X122564352Y-91421105D01*
X122579604Y-91417479D01*
X122700054Y-91372324D01*
X122715649Y-91363786D01*
X122817724Y-91287285D01*
X122830285Y-91274724D01*
X122906786Y-91172649D01*
X122915324Y-91157054D01*
X122960478Y-91036606D01*
X122964105Y-91021351D01*
X122969631Y-90970486D01*
X122969813Y-90967134D01*
X126353500Y-90967134D01*
X126360255Y-91029316D01*
X126411385Y-91165705D01*
X126498739Y-91282261D01*
X126615295Y-91369615D01*
X126751684Y-91420745D01*
X126813866Y-91427500D01*
X128710134Y-91427500D01*
X128772316Y-91420745D01*
X128908705Y-91369615D01*
X129025261Y-91282261D01*
X129112615Y-91165705D01*
X129163745Y-91029316D01*
X129170500Y-90967134D01*
X129170500Y-89770866D01*
X129163745Y-89708684D01*
X129112615Y-89572295D01*
X129025261Y-89455739D01*
X128908705Y-89368385D01*
X128772316Y-89317255D01*
X128710134Y-89310500D01*
X126813866Y-89310500D01*
X126751684Y-89317255D01*
X126615295Y-89368385D01*
X126498739Y-89455739D01*
X126411385Y-89572295D01*
X126360255Y-89708684D01*
X126353500Y-89770866D01*
X126353500Y-90967134D01*
X122969813Y-90967134D01*
X122970000Y-90963672D01*
X122970000Y-90641115D01*
X122965525Y-90625876D01*
X122964135Y-90624671D01*
X122956452Y-90623000D01*
X121834115Y-90623000D01*
X121818876Y-90627475D01*
X121817671Y-90628865D01*
X121816000Y-90636548D01*
X121816000Y-91408884D01*
X121308000Y-91408884D01*
X121308000Y-90641115D01*
X121303525Y-90625876D01*
X121302135Y-90624671D01*
X121294452Y-90623000D01*
X120172116Y-90623000D01*
X120156877Y-90627475D01*
X120155672Y-90628865D01*
X120154001Y-90636548D01*
X120154001Y-90963669D01*
X112421817Y-90963669D01*
X112421817Y-90096885D01*
X120154000Y-90096885D01*
X120158475Y-90112124D01*
X120159865Y-90113329D01*
X120167548Y-90115000D01*
X121289885Y-90115000D01*
X121305124Y-90110525D01*
X121306329Y-90109135D01*
X121308000Y-90101452D01*
X121308000Y-90096885D01*
X121816000Y-90096885D01*
X121820475Y-90112124D01*
X121821865Y-90113329D01*
X121829548Y-90115000D01*
X122951884Y-90115000D01*
X122967123Y-90110525D01*
X122968328Y-90109135D01*
X122969999Y-90101452D01*
X122969999Y-89774331D01*
X122969629Y-89767510D01*
X122964105Y-89716648D01*
X122960479Y-89701396D01*
X122915324Y-89580946D01*
X122906786Y-89565351D01*
X122830285Y-89463276D01*
X122817724Y-89450715D01*
X122715649Y-89374214D01*
X122700054Y-89365676D01*
X122579606Y-89320522D01*
X122564351Y-89316895D01*
X122513486Y-89311369D01*
X122506672Y-89311000D01*
X121834115Y-89311000D01*
X121818876Y-89315475D01*
X121817671Y-89316865D01*
X121816000Y-89324548D01*
X121816000Y-90096885D01*
X121308000Y-90096885D01*
X121308000Y-89329116D01*
X121303525Y-89313877D01*
X121302135Y-89312672D01*
X121294452Y-89311001D01*
X120617331Y-89311001D01*
X120610510Y-89311371D01*
X120559648Y-89316895D01*
X120544396Y-89320521D01*
X120423946Y-89365676D01*
X120408351Y-89374214D01*
X120306276Y-89450715D01*
X120293715Y-89463276D01*
X120217214Y-89565351D01*
X120208676Y-89580946D01*
X120163522Y-89701394D01*
X120159895Y-89716649D01*
X120154369Y-89767514D01*
X120154000Y-89774328D01*
X120154000Y-90096885D01*
X112421817Y-90096885D01*
X112421817Y-87267134D01*
X120153500Y-87267134D01*
X120160255Y-87329316D01*
X120211385Y-87465705D01*
X120298739Y-87582261D01*
X120415295Y-87669615D01*
X120551684Y-87720745D01*
X120613866Y-87727500D01*
X122510134Y-87727500D01*
X122572316Y-87720745D01*
X122708705Y-87669615D01*
X122825261Y-87582261D01*
X122912615Y-87465705D01*
X122963745Y-87329316D01*
X122970500Y-87267134D01*
X126353500Y-87267134D01*
X126360255Y-87329316D01*
X126411385Y-87465705D01*
X126498739Y-87582261D01*
X126615295Y-87669615D01*
X126751684Y-87720745D01*
X126813866Y-87727500D01*
X128710134Y-87727500D01*
X128772316Y-87720745D01*
X128908705Y-87669615D01*
X129025261Y-87582261D01*
X129112615Y-87465705D01*
X129163745Y-87329316D01*
X129170500Y-87267134D01*
X129170500Y-86608933D01*
X144498001Y-86608933D01*
X144498338Y-86615452D01*
X144508166Y-86710170D01*
X144511058Y-86723564D01*
X144562036Y-86876365D01*
X144568210Y-86889543D01*
X144652744Y-87026149D01*
X144661780Y-87037550D01*
X144775479Y-87151051D01*
X144786890Y-87160063D01*
X144923654Y-87244365D01*
X144936832Y-87250509D01*
X145089740Y-87301227D01*
X145103106Y-87304093D01*
X145196601Y-87313672D01*
X145203016Y-87314000D01*
X145221385Y-87314000D01*
X145236624Y-87309525D01*
X145237829Y-87308135D01*
X145239500Y-87300452D01*
X145239500Y-86378115D01*
X145235025Y-86362876D01*
X145233635Y-86361671D01*
X145225952Y-86360000D01*
X144516116Y-86360000D01*
X144500877Y-86364475D01*
X144499672Y-86365865D01*
X144498001Y-86373548D01*
X144498001Y-86608933D01*
X129170500Y-86608933D01*
X129170500Y-86070866D01*
X129163745Y-86008684D01*
X129112615Y-85872295D01*
X129083828Y-85833885D01*
X144498000Y-85833885D01*
X144502475Y-85849124D01*
X144503865Y-85850329D01*
X144511548Y-85852000D01*
X145221385Y-85852000D01*
X145236624Y-85847525D01*
X145237829Y-85846135D01*
X145239500Y-85838452D01*
X145239500Y-84916116D01*
X145235025Y-84900877D01*
X145233635Y-84899672D01*
X145225952Y-84898001D01*
X145203067Y-84898001D01*
X145196548Y-84898338D01*
X145101830Y-84908166D01*
X145088436Y-84911058D01*
X144935635Y-84962036D01*
X144922457Y-84968210D01*
X144785851Y-85052744D01*
X144774450Y-85061780D01*
X144660949Y-85175479D01*
X144651937Y-85186890D01*
X144567635Y-85323654D01*
X144561491Y-85336832D01*
X144510773Y-85489740D01*
X144507907Y-85503106D01*
X144498328Y-85596601D01*
X144498000Y-85603016D01*
X144498000Y-85833885D01*
X129083828Y-85833885D01*
X129025261Y-85755739D01*
X128908705Y-85668385D01*
X128772316Y-85617255D01*
X128764459Y-85616401D01*
X128757480Y-85614742D01*
X128695834Y-85579524D01*
X128663013Y-85516569D01*
X128661316Y-85478988D01*
X128665499Y-85439197D01*
X128675504Y-85344000D01*
X128673599Y-85325872D01*
X128656232Y-85160635D01*
X128656232Y-85160633D01*
X128655542Y-85154072D01*
X128596527Y-84972444D01*
X128586454Y-84954996D01*
X128504341Y-84812774D01*
X128501040Y-84807056D01*
X128430060Y-84728224D01*
X128377675Y-84670045D01*
X128377674Y-84670044D01*
X128373253Y-84665134D01*
X128245367Y-84572219D01*
X128224094Y-84556763D01*
X128224093Y-84556762D01*
X128218752Y-84552882D01*
X128212724Y-84550198D01*
X128212722Y-84550197D01*
X128050319Y-84477891D01*
X128050318Y-84477891D01*
X128044288Y-84475206D01*
X127950888Y-84455353D01*
X127863944Y-84436872D01*
X127863939Y-84436872D01*
X127857487Y-84435500D01*
X127666513Y-84435500D01*
X127660061Y-84436872D01*
X127660056Y-84436872D01*
X127573112Y-84455353D01*
X127479712Y-84475206D01*
X127473682Y-84477891D01*
X127473681Y-84477891D01*
X127311278Y-84550197D01*
X127311276Y-84550198D01*
X127305248Y-84552882D01*
X127299907Y-84556762D01*
X127299906Y-84556763D01*
X127278633Y-84572219D01*
X127150747Y-84665134D01*
X127146326Y-84670044D01*
X127146325Y-84670045D01*
X127093941Y-84728224D01*
X127022960Y-84807056D01*
X127019659Y-84812774D01*
X126937547Y-84954996D01*
X126927473Y-84972444D01*
X126868458Y-85154072D01*
X126867768Y-85160633D01*
X126867768Y-85160635D01*
X126850401Y-85325872D01*
X126848496Y-85344000D01*
X126858502Y-85439197D01*
X126862684Y-85478988D01*
X126849912Y-85548827D01*
X126801410Y-85600673D01*
X126766520Y-85614742D01*
X126759541Y-85616401D01*
X126751684Y-85617255D01*
X126615295Y-85668385D01*
X126498739Y-85755739D01*
X126411385Y-85872295D01*
X126360255Y-86008684D01*
X126353500Y-86070866D01*
X126353500Y-87267134D01*
X122970500Y-87267134D01*
X122970500Y-86070866D01*
X122963745Y-86008684D01*
X122912615Y-85872295D01*
X122825261Y-85755739D01*
X122708705Y-85668385D01*
X122572316Y-85617255D01*
X122510134Y-85610500D01*
X120613866Y-85610500D01*
X120551684Y-85617255D01*
X120415295Y-85668385D01*
X120298739Y-85755739D01*
X120211385Y-85872295D01*
X120160255Y-86008684D01*
X120153500Y-86070866D01*
X120153500Y-87267134D01*
X112421817Y-87267134D01*
X112421817Y-82761933D01*
X130745001Y-82761933D01*
X130745338Y-82768452D01*
X130755166Y-82863170D01*
X130758058Y-82876564D01*
X130809036Y-83029365D01*
X130815210Y-83042543D01*
X130899744Y-83179149D01*
X130908780Y-83190550D01*
X131022479Y-83304051D01*
X131033890Y-83313063D01*
X131170654Y-83397365D01*
X131183832Y-83403509D01*
X131336740Y-83454227D01*
X131350106Y-83457093D01*
X131443601Y-83466672D01*
X131450016Y-83467000D01*
X131680885Y-83467000D01*
X131696124Y-83462525D01*
X131697329Y-83461135D01*
X131699000Y-83453452D01*
X131699000Y-83448884D01*
X132207000Y-83448884D01*
X132211475Y-83464123D01*
X132212865Y-83465328D01*
X132220548Y-83466999D01*
X132455933Y-83466999D01*
X132462452Y-83466662D01*
X132557170Y-83456834D01*
X132570564Y-83453942D01*
X132723365Y-83402964D01*
X132736543Y-83396790D01*
X132873149Y-83312256D01*
X132884550Y-83303220D01*
X132998051Y-83189521D01*
X133007063Y-83178110D01*
X133091365Y-83041346D01*
X133097509Y-83028168D01*
X133148227Y-82875260D01*
X133151093Y-82861894D01*
X133160672Y-82768399D01*
X133161000Y-82761984D01*
X133161000Y-82743615D01*
X133156525Y-82728376D01*
X133155135Y-82727171D01*
X133147452Y-82725500D01*
X132225115Y-82725500D01*
X132209876Y-82729975D01*
X132208671Y-82731365D01*
X132207000Y-82739048D01*
X132207000Y-83448884D01*
X131699000Y-83448884D01*
X131699000Y-82743615D01*
X131694525Y-82728376D01*
X131693135Y-82727171D01*
X131685452Y-82725500D01*
X130763116Y-82725500D01*
X130747877Y-82729975D01*
X130746672Y-82731365D01*
X130745001Y-82739048D01*
X130745001Y-82761933D01*
X112421817Y-82761933D01*
X112421817Y-61332657D01*
X115888067Y-61332657D01*
X115888368Y-61338805D01*
X115901879Y-61476603D01*
X115904262Y-61488638D01*
X115957834Y-61666076D01*
X115962508Y-61677416D01*
X116049527Y-61841077D01*
X116056316Y-61851294D01*
X116173464Y-61994933D01*
X116182108Y-62003637D01*
X116324923Y-62121784D01*
X116335094Y-62128644D01*
X116498143Y-62216804D01*
X116509448Y-62221556D01*
X116624759Y-62257250D01*
X116638862Y-62257456D01*
X116642067Y-62250701D01*
X116642067Y-61008115D01*
X116637592Y-60992876D01*
X116636202Y-60991671D01*
X116628519Y-60990000D01*
X115906182Y-60990000D01*
X115890943Y-60994475D01*
X115889738Y-60995865D01*
X115888067Y-61003548D01*
X115888067Y-61332657D01*
X112421817Y-61332657D01*
X112421817Y-60463885D01*
X115888067Y-60463885D01*
X115892542Y-60479124D01*
X115893932Y-60480329D01*
X115901615Y-60482000D01*
X116623952Y-60482000D01*
X116639191Y-60477525D01*
X116640396Y-60476135D01*
X116642067Y-60468452D01*
X116642067Y-59228076D01*
X116638094Y-59214545D01*
X116630299Y-59213425D01*
X116522546Y-59245138D01*
X116511178Y-59249731D01*
X116346913Y-59335607D01*
X116336652Y-59342321D01*
X116192194Y-59458468D01*
X116183435Y-59467046D01*
X116064289Y-59609039D01*
X116057359Y-59619159D01*
X115968065Y-59781585D01*
X115963233Y-59792858D01*
X115907187Y-59969538D01*
X115904637Y-59981532D01*
X115888460Y-60125761D01*
X115888067Y-60132785D01*
X115888067Y-60463885D01*
X112421817Y-60463885D01*
X112421817Y-57993120D01*
X112423318Y-57973732D01*
X112425626Y-57958912D01*
X112425626Y-57958911D01*
X112427008Y-57950037D01*
X112424878Y-57933743D01*
X112424085Y-57909169D01*
X112437303Y-57707557D01*
X112439454Y-57691218D01*
X112484027Y-57467145D01*
X112488293Y-57451225D01*
X112497929Y-57422841D01*
X112553066Y-57260415D01*
X112561729Y-57234895D01*
X112568036Y-57219669D01*
X112646544Y-57060468D01*
X112669079Y-57014771D01*
X112677317Y-57000502D01*
X112685794Y-56987816D01*
X112742694Y-56902657D01*
X115888067Y-56902657D01*
X115888368Y-56908805D01*
X115901879Y-57046603D01*
X115904262Y-57058638D01*
X115957834Y-57236076D01*
X115962508Y-57247416D01*
X116049527Y-57411077D01*
X116056316Y-57421294D01*
X116173464Y-57564933D01*
X116182108Y-57573637D01*
X116324923Y-57691784D01*
X116335094Y-57698644D01*
X116498143Y-57786804D01*
X116509448Y-57791556D01*
X116624759Y-57827250D01*
X116638862Y-57827456D01*
X116642067Y-57820701D01*
X116642067Y-57813924D01*
X117150067Y-57813924D01*
X117154040Y-57827455D01*
X117161835Y-57828575D01*
X117269588Y-57796862D01*
X117280956Y-57792269D01*
X117445221Y-57706393D01*
X117455482Y-57699679D01*
X117599940Y-57583532D01*
X117608699Y-57574954D01*
X117727845Y-57432961D01*
X117734775Y-57422841D01*
X117824069Y-57260415D01*
X117828901Y-57249142D01*
X117884947Y-57072462D01*
X117887497Y-57060468D01*
X117903674Y-56916239D01*
X117904067Y-56909215D01*
X117904067Y-56902657D01*
X124528067Y-56902657D01*
X124528368Y-56908805D01*
X124541879Y-57046603D01*
X124544262Y-57058638D01*
X124597834Y-57236076D01*
X124602508Y-57247416D01*
X124689527Y-57411077D01*
X124696316Y-57421294D01*
X124813464Y-57564933D01*
X124822108Y-57573637D01*
X124964923Y-57691784D01*
X124975094Y-57698644D01*
X125138143Y-57786804D01*
X125149448Y-57791556D01*
X125264759Y-57827250D01*
X125278862Y-57827456D01*
X125282067Y-57820701D01*
X125282067Y-57813924D01*
X125790067Y-57813924D01*
X125794040Y-57827455D01*
X125801835Y-57828575D01*
X125909588Y-57796862D01*
X125920956Y-57792269D01*
X126085221Y-57706393D01*
X126095482Y-57699679D01*
X126239940Y-57583532D01*
X126248699Y-57574954D01*
X126367845Y-57432961D01*
X126374775Y-57422841D01*
X126464069Y-57260415D01*
X126468901Y-57249142D01*
X126524947Y-57072462D01*
X126527497Y-57060468D01*
X126543674Y-56916239D01*
X126544067Y-56909215D01*
X126544067Y-56828115D01*
X126539592Y-56812876D01*
X126538202Y-56811671D01*
X126530519Y-56810000D01*
X125808182Y-56810000D01*
X125792943Y-56814475D01*
X125791738Y-56815865D01*
X125790067Y-56823548D01*
X125790067Y-57813924D01*
X125282067Y-57813924D01*
X125282067Y-56828115D01*
X125277592Y-56812876D01*
X125276202Y-56811671D01*
X125268519Y-56810000D01*
X124546182Y-56810000D01*
X124530943Y-56814475D01*
X124529738Y-56815865D01*
X124528067Y-56823548D01*
X124528067Y-56902657D01*
X117904067Y-56902657D01*
X117904067Y-56828115D01*
X117899592Y-56812876D01*
X117898202Y-56811671D01*
X117890519Y-56810000D01*
X117168182Y-56810000D01*
X117152943Y-56814475D01*
X117151738Y-56815865D01*
X117150067Y-56823548D01*
X117150067Y-57813924D01*
X116642067Y-57813924D01*
X116642067Y-56828115D01*
X116637592Y-56812876D01*
X116636202Y-56811671D01*
X116628519Y-56810000D01*
X115906182Y-56810000D01*
X115890943Y-56814475D01*
X115889738Y-56815865D01*
X115888067Y-56823548D01*
X115888067Y-56902657D01*
X112742694Y-56902657D01*
X112804240Y-56810546D01*
X112814273Y-56797471D01*
X112964906Y-56625703D01*
X112976559Y-56614049D01*
X113148319Y-56463413D01*
X113161394Y-56453380D01*
X113351343Y-56326452D01*
X113365616Y-56318211D01*
X113404317Y-56299124D01*
X113570511Y-56217159D01*
X113585725Y-56210857D01*
X113802069Y-56137408D01*
X113817982Y-56133144D01*
X113895406Y-56117740D01*
X114042048Y-56088564D01*
X114058387Y-56086412D01*
X114252461Y-56073681D01*
X114277234Y-56074783D01*
X114279448Y-56074810D01*
X114288320Y-56076191D01*
X114297225Y-56075026D01*
X114319859Y-56072065D01*
X114336203Y-56071000D01*
X115762193Y-56071000D01*
X115830314Y-56091002D01*
G37*
G04 #@! TD.AperFunction*
M02*
