G04 #@! TF.GenerationSoftware,KiCad,Pcbnew,(6.0.8-1)-1*
G04 #@! TF.CreationDate,2022-10-31T00:23:31-07:00*
G04 #@! TF.ProjectId,hayabusa04,68617961-6275-4736-9130-342e6b696361,rev?*
G04 #@! TF.SameCoordinates,Original*
G04 #@! TF.FileFunction,Legend,Top*
G04 #@! TF.FilePolarity,Positive*
%FSLAX46Y46*%
G04 Gerber Fmt 4.6, Leading zero omitted, Abs format (unit mm)*
G04 Created by KiCad (PCBNEW (6.0.8-1)-1) date 2022-10-31 00:23:31*
%MOMM*%
%LPD*%
G01*
G04 APERTURE LIST*
%ADD10C,0.300000*%
%ADD11C,3.987800*%
%ADD12C,1.750000*%
%ADD13C,3.300000*%
%ADD14C,0.650000*%
%ADD15O,1.000000X2.100000*%
%ADD16O,1.000000X1.600000*%
G04 APERTURE END LIST*
D10*
X177066571Y-92245571D02*
X177066571Y-90745571D01*
X177709428Y-92245571D02*
X177709428Y-91459857D01*
X177638000Y-91317000D01*
X177495142Y-91245571D01*
X177280857Y-91245571D01*
X177138000Y-91317000D01*
X177066571Y-91388428D01*
X179066571Y-92245571D02*
X179066571Y-91459857D01*
X178995142Y-91317000D01*
X178852285Y-91245571D01*
X178566571Y-91245571D01*
X178423714Y-91317000D01*
X179066571Y-92174142D02*
X178923714Y-92245571D01*
X178566571Y-92245571D01*
X178423714Y-92174142D01*
X178352285Y-92031285D01*
X178352285Y-91888428D01*
X178423714Y-91745571D01*
X178566571Y-91674142D01*
X178923714Y-91674142D01*
X179066571Y-91602714D01*
X179638000Y-91245571D02*
X179995142Y-92245571D01*
X180352285Y-91245571D02*
X179995142Y-92245571D01*
X179852285Y-92602714D01*
X179780857Y-92674142D01*
X179638000Y-92745571D01*
X181566571Y-92245571D02*
X181566571Y-91459857D01*
X181495142Y-91317000D01*
X181352285Y-91245571D01*
X181066571Y-91245571D01*
X180923714Y-91317000D01*
X181566571Y-92174142D02*
X181423714Y-92245571D01*
X181066571Y-92245571D01*
X180923714Y-92174142D01*
X180852285Y-92031285D01*
X180852285Y-91888428D01*
X180923714Y-91745571D01*
X181066571Y-91674142D01*
X181423714Y-91674142D01*
X181566571Y-91602714D01*
X182280857Y-92245571D02*
X182280857Y-90745571D01*
X182280857Y-91317000D02*
X182423714Y-91245571D01*
X182709428Y-91245571D01*
X182852285Y-91317000D01*
X182923714Y-91388428D01*
X182995142Y-91531285D01*
X182995142Y-91959857D01*
X182923714Y-92102714D01*
X182852285Y-92174142D01*
X182709428Y-92245571D01*
X182423714Y-92245571D01*
X182280857Y-92174142D01*
X184280857Y-91245571D02*
X184280857Y-92245571D01*
X183638000Y-91245571D02*
X183638000Y-92031285D01*
X183709428Y-92174142D01*
X183852285Y-92245571D01*
X184066571Y-92245571D01*
X184209428Y-92174142D01*
X184280857Y-92102714D01*
X184923714Y-92174142D02*
X185066571Y-92245571D01*
X185352285Y-92245571D01*
X185495142Y-92174142D01*
X185566571Y-92031285D01*
X185566571Y-91959857D01*
X185495142Y-91817000D01*
X185352285Y-91745571D01*
X185138000Y-91745571D01*
X184995142Y-91674142D01*
X184923714Y-91531285D01*
X184923714Y-91459857D01*
X184995142Y-91317000D01*
X185138000Y-91245571D01*
X185352285Y-91245571D01*
X185495142Y-91317000D01*
X186852285Y-92245571D02*
X186852285Y-91459857D01*
X186780857Y-91317000D01*
X186638000Y-91245571D01*
X186352285Y-91245571D01*
X186209428Y-91317000D01*
X186852285Y-92174142D02*
X186709428Y-92245571D01*
X186352285Y-92245571D01*
X186209428Y-92174142D01*
X186138000Y-92031285D01*
X186138000Y-91888428D01*
X186209428Y-91745571D01*
X186352285Y-91674142D01*
X186709428Y-91674142D01*
X186852285Y-91602714D01*
X187852285Y-90745571D02*
X187995142Y-90745571D01*
X188138000Y-90817000D01*
X188209428Y-90888428D01*
X188280857Y-91031285D01*
X188352285Y-91317000D01*
X188352285Y-91674142D01*
X188280857Y-91959857D01*
X188209428Y-92102714D01*
X188138000Y-92174142D01*
X187995142Y-92245571D01*
X187852285Y-92245571D01*
X187709428Y-92174142D01*
X187638000Y-92102714D01*
X187566571Y-91959857D01*
X187495142Y-91674142D01*
X187495142Y-91317000D01*
X187566571Y-91031285D01*
X187638000Y-90888428D01*
X187709428Y-90817000D01*
X187852285Y-90745571D01*
X189638000Y-91245571D02*
X189638000Y-92245571D01*
X189280857Y-90674142D02*
X188923714Y-91745571D01*
X189852285Y-91745571D01*
%LPC*%
D11*
X182562500Y-65087500D03*
D12*
X187642500Y-65087500D03*
X177482500Y-65087500D03*
D13*
X178752500Y-62547500D03*
X185102500Y-60007500D03*
D11*
X182562500Y-84137500D03*
D12*
X177482500Y-84137500D03*
X187642500Y-84137500D03*
D13*
X178752500Y-81597500D03*
X185102500Y-79057500D03*
D14*
X118326067Y-60206000D03*
X124106067Y-60206000D03*
D15*
X125536067Y-60736000D03*
X116896067Y-60736000D03*
D16*
X125536067Y-56556000D03*
X116896067Y-56556000D03*
D11*
X163512500Y-65087500D03*
D12*
X168592500Y-65087500D03*
X158432500Y-65087500D03*
D13*
X159702500Y-62547500D03*
X166052500Y-60007500D03*
D12*
X168592500Y-84137500D03*
D11*
X163512500Y-84137500D03*
D12*
X158432500Y-84137500D03*
D13*
X159702500Y-81597500D03*
X166052500Y-79057500D03*
M02*
