G04 #@! TF.GenerationSoftware,KiCad,Pcbnew,(6.0.8-1)-1*
G04 #@! TF.CreationDate,2022-10-31T00:23:31-07:00*
G04 #@! TF.ProjectId,hayabusa04,68617961-6275-4736-9130-342e6b696361,rev?*
G04 #@! TF.SameCoordinates,Original*
G04 #@! TF.FileFunction,Legend,Bot*
G04 #@! TF.FilePolarity,Positive*
%FSLAX46Y46*%
G04 Gerber Fmt 4.6, Leading zero omitted, Abs format (unit mm)*
G04 Created by KiCad (PCBNEW (6.0.8-1)-1) date 2022-10-31 00:23:31*
%MOMM*%
%LPD*%
G01*
G04 APERTURE LIST*
G04 Aperture macros list*
%AMRoundRect*
0 Rectangle with rounded corners*
0 $1 Rounding radius*
0 $2 $3 $4 $5 $6 $7 $8 $9 X,Y pos of 4 corners*
0 Add a 4 corners polygon primitive as box body*
4,1,4,$2,$3,$4,$5,$6,$7,$8,$9,$2,$3,0*
0 Add four circle primitives for the rounded corners*
1,1,$1+$1,$2,$3*
1,1,$1+$1,$4,$5*
1,1,$1+$1,$6,$7*
1,1,$1+$1,$8,$9*
0 Add four rect primitives between the rounded corners*
20,1,$1+$1,$2,$3,$4,$5,0*
20,1,$1+$1,$4,$5,$6,$7,0*
20,1,$1+$1,$6,$7,$8,$9,0*
20,1,$1+$1,$8,$9,$2,$3,0*%
G04 Aperture macros list end*
%ADD10C,0.150000*%
%ADD11C,0.120000*%
%ADD12RoundRect,0.243750X0.456250X-0.243750X0.456250X0.243750X-0.456250X0.243750X-0.456250X-0.243750X0*%
%ADD13RoundRect,0.243750X-0.456250X0.243750X-0.456250X-0.243750X0.456250X-0.243750X0.456250X0.243750X0*%
%ADD14RoundRect,0.243750X0.243750X0.456250X-0.243750X0.456250X-0.243750X-0.456250X0.243750X-0.456250X0*%
%ADD15R,1.800000X1.100000*%
%ADD16R,1.500000X0.550000*%
%ADD17R,0.550000X1.500000*%
%ADD18R,1.400000X1.200000*%
%ADD19C,3.987800*%
%ADD20C,1.750000*%
%ADD21C,3.300000*%
%ADD22RoundRect,0.250000X1.025000X1.000000X-1.025000X1.000000X-1.025000X-1.000000X1.025000X-1.000000X0*%
%ADD23RoundRect,0.250000X-0.450000X0.262500X-0.450000X-0.262500X0.450000X-0.262500X0.450000X0.262500X0*%
%ADD24C,0.650000*%
%ADD25R,0.600000X1.450000*%
%ADD26R,0.300000X1.450000*%
%ADD27O,1.000000X2.100000*%
%ADD28O,1.000000X1.600000*%
%ADD29RoundRect,0.250000X0.450000X-0.262500X0.450000X0.262500X-0.450000X0.262500X-0.450000X-0.262500X0*%
%ADD30RoundRect,0.150000X0.512500X0.150000X-0.512500X0.150000X-0.512500X-0.150000X0.512500X-0.150000X0*%
%ADD31RoundRect,0.250000X-0.625000X0.375000X-0.625000X-0.375000X0.625000X-0.375000X0.625000X0.375000X0*%
G04 APERTURE END LIST*
D10*
X154216642Y-72858333D02*
X154264261Y-72810714D01*
X154311880Y-72667857D01*
X154311880Y-72572619D01*
X154264261Y-72429761D01*
X154169023Y-72334523D01*
X154073785Y-72286904D01*
X153883309Y-72239285D01*
X153740452Y-72239285D01*
X153549976Y-72286904D01*
X153454738Y-72334523D01*
X153359500Y-72429761D01*
X153311880Y-72572619D01*
X153311880Y-72667857D01*
X153359500Y-72810714D01*
X153407119Y-72858333D01*
X154311880Y-73810714D02*
X154311880Y-73239285D01*
X154311880Y-73525000D02*
X153311880Y-73525000D01*
X153454738Y-73429761D01*
X153549976Y-73334523D01*
X153597595Y-73239285D01*
X148628642Y-63079333D02*
X148676261Y-63031714D01*
X148723880Y-62888857D01*
X148723880Y-62793619D01*
X148676261Y-62650761D01*
X148581023Y-62555523D01*
X148485785Y-62507904D01*
X148295309Y-62460285D01*
X148152452Y-62460285D01*
X147961976Y-62507904D01*
X147866738Y-62555523D01*
X147771500Y-62650761D01*
X147723880Y-62793619D01*
X147723880Y-62888857D01*
X147771500Y-63031714D01*
X147819119Y-63079333D01*
X147819119Y-63460285D02*
X147771500Y-63507904D01*
X147723880Y-63603142D01*
X147723880Y-63841238D01*
X147771500Y-63936476D01*
X147819119Y-63984095D01*
X147914357Y-64031714D01*
X148009595Y-64031714D01*
X148152452Y-63984095D01*
X148723880Y-63412666D01*
X148723880Y-64031714D01*
X135930642Y-63079333D02*
X135978261Y-63031714D01*
X136025880Y-62888857D01*
X136025880Y-62793619D01*
X135978261Y-62650761D01*
X135883023Y-62555523D01*
X135787785Y-62507904D01*
X135597309Y-62460285D01*
X135454452Y-62460285D01*
X135263976Y-62507904D01*
X135168738Y-62555523D01*
X135073500Y-62650761D01*
X135025880Y-62793619D01*
X135025880Y-62888857D01*
X135073500Y-63031714D01*
X135121119Y-63079333D01*
X135025880Y-63412666D02*
X135025880Y-64031714D01*
X135406833Y-63698380D01*
X135406833Y-63841238D01*
X135454452Y-63936476D01*
X135502071Y-63984095D01*
X135597309Y-64031714D01*
X135835404Y-64031714D01*
X135930642Y-63984095D01*
X135978261Y-63936476D01*
X136025880Y-63841238D01*
X136025880Y-63555523D01*
X135978261Y-63460285D01*
X135930642Y-63412666D01*
X135166642Y-66937833D02*
X135214261Y-66890214D01*
X135261880Y-66747357D01*
X135261880Y-66652119D01*
X135214261Y-66509261D01*
X135119023Y-66414023D01*
X135023785Y-66366404D01*
X134833309Y-66318785D01*
X134690452Y-66318785D01*
X134499976Y-66366404D01*
X134404738Y-66414023D01*
X134309500Y-66509261D01*
X134261880Y-66652119D01*
X134261880Y-66747357D01*
X134309500Y-66890214D01*
X134357119Y-66937833D01*
X134595214Y-67794976D02*
X135261880Y-67794976D01*
X134214261Y-67556880D02*
X134928547Y-67318785D01*
X134928547Y-67937833D01*
X146597666Y-84813142D02*
X146645285Y-84860761D01*
X146788142Y-84908380D01*
X146883380Y-84908380D01*
X147026238Y-84860761D01*
X147121476Y-84765523D01*
X147169095Y-84670285D01*
X147216714Y-84479809D01*
X147216714Y-84336952D01*
X147169095Y-84146476D01*
X147121476Y-84051238D01*
X147026238Y-83956000D01*
X146883380Y-83908380D01*
X146788142Y-83908380D01*
X146645285Y-83956000D01*
X146597666Y-84003619D01*
X145692904Y-83908380D02*
X146169095Y-83908380D01*
X146216714Y-84384571D01*
X146169095Y-84336952D01*
X146073857Y-84289333D01*
X145835761Y-84289333D01*
X145740523Y-84336952D01*
X145692904Y-84384571D01*
X145645285Y-84479809D01*
X145645285Y-84717904D01*
X145692904Y-84813142D01*
X145740523Y-84860761D01*
X145835761Y-84908380D01*
X146073857Y-84908380D01*
X146169095Y-84860761D01*
X146216714Y-84813142D01*
X132119666Y-74272142D02*
X132167285Y-74319761D01*
X132310142Y-74367380D01*
X132405380Y-74367380D01*
X132548238Y-74319761D01*
X132643476Y-74224523D01*
X132691095Y-74129285D01*
X132738714Y-73938809D01*
X132738714Y-73795952D01*
X132691095Y-73605476D01*
X132643476Y-73510238D01*
X132548238Y-73415000D01*
X132405380Y-73367380D01*
X132310142Y-73367380D01*
X132167285Y-73415000D01*
X132119666Y-73462619D01*
X131262523Y-73367380D02*
X131453000Y-73367380D01*
X131548238Y-73415000D01*
X131595857Y-73462619D01*
X131691095Y-73605476D01*
X131738714Y-73795952D01*
X131738714Y-74176904D01*
X131691095Y-74272142D01*
X131643476Y-74319761D01*
X131548238Y-74367380D01*
X131357761Y-74367380D01*
X131262523Y-74319761D01*
X131214904Y-74272142D01*
X131167285Y-74176904D01*
X131167285Y-73938809D01*
X131214904Y-73843571D01*
X131262523Y-73795952D01*
X131357761Y-73748333D01*
X131548238Y-73748333D01*
X131643476Y-73795952D01*
X131691095Y-73843571D01*
X131738714Y-73938809D01*
X130660142Y-81367333D02*
X130707761Y-81319714D01*
X130755380Y-81176857D01*
X130755380Y-81081619D01*
X130707761Y-80938761D01*
X130612523Y-80843523D01*
X130517285Y-80795904D01*
X130326809Y-80748285D01*
X130183952Y-80748285D01*
X129993476Y-80795904D01*
X129898238Y-80843523D01*
X129803000Y-80938761D01*
X129755380Y-81081619D01*
X129755380Y-81176857D01*
X129803000Y-81319714D01*
X129850619Y-81367333D01*
X129755380Y-81700666D02*
X129755380Y-82367333D01*
X130755380Y-81938761D01*
X118493447Y-69350833D02*
X118017257Y-69017500D01*
X118493447Y-68779404D02*
X117493447Y-68779404D01*
X117493447Y-69160357D01*
X117541067Y-69255595D01*
X117588686Y-69303214D01*
X117683924Y-69350833D01*
X117826781Y-69350833D01*
X117922019Y-69303214D01*
X117969638Y-69255595D01*
X118017257Y-69160357D01*
X118017257Y-68779404D01*
X118493447Y-70303214D02*
X118493447Y-69731785D01*
X118493447Y-70017500D02*
X117493447Y-70017500D01*
X117636305Y-69922261D01*
X117731543Y-69827023D01*
X117779162Y-69731785D01*
X124462447Y-69350833D02*
X123986257Y-69017500D01*
X124462447Y-68779404D02*
X123462447Y-68779404D01*
X123462447Y-69160357D01*
X123510067Y-69255595D01*
X123557686Y-69303214D01*
X123652924Y-69350833D01*
X123795781Y-69350833D01*
X123891019Y-69303214D01*
X123938638Y-69255595D01*
X123986257Y-69160357D01*
X123986257Y-68779404D01*
X123557686Y-69731785D02*
X123510067Y-69779404D01*
X123462447Y-69874642D01*
X123462447Y-70112738D01*
X123510067Y-70207976D01*
X123557686Y-70255595D01*
X123652924Y-70303214D01*
X123748162Y-70303214D01*
X123891019Y-70255595D01*
X124462447Y-69684166D01*
X124462447Y-70303214D01*
X127961380Y-66889333D02*
X127485190Y-66556000D01*
X127961380Y-66317904D02*
X126961380Y-66317904D01*
X126961380Y-66698857D01*
X127009000Y-66794095D01*
X127056619Y-66841714D01*
X127151857Y-66889333D01*
X127294714Y-66889333D01*
X127389952Y-66841714D01*
X127437571Y-66794095D01*
X127485190Y-66698857D01*
X127485190Y-66317904D01*
X126961380Y-67222666D02*
X126961380Y-67841714D01*
X127342333Y-67508380D01*
X127342333Y-67651238D01*
X127389952Y-67746476D01*
X127437571Y-67794095D01*
X127532809Y-67841714D01*
X127770904Y-67841714D01*
X127866142Y-67794095D01*
X127913761Y-67746476D01*
X127961380Y-67651238D01*
X127961380Y-67365523D01*
X127913761Y-67270285D01*
X127866142Y-67222666D01*
X154311880Y-81367333D02*
X153835690Y-81034000D01*
X154311880Y-80795904D02*
X153311880Y-80795904D01*
X153311880Y-81176857D01*
X153359500Y-81272095D01*
X153407119Y-81319714D01*
X153502357Y-81367333D01*
X153645214Y-81367333D01*
X153740452Y-81319714D01*
X153788071Y-81272095D01*
X153835690Y-81176857D01*
X153835690Y-80795904D01*
X153645214Y-82224476D02*
X154311880Y-82224476D01*
X153264261Y-81986380D02*
X153978547Y-81748285D01*
X153978547Y-82367333D01*
X125995333Y-92987761D02*
X125852476Y-93035380D01*
X125614380Y-93035380D01*
X125519142Y-92987761D01*
X125471523Y-92940142D01*
X125423904Y-92844904D01*
X125423904Y-92749666D01*
X125471523Y-92654428D01*
X125519142Y-92606809D01*
X125614380Y-92559190D01*
X125804857Y-92511571D01*
X125900095Y-92463952D01*
X125947714Y-92416333D01*
X125995333Y-92321095D01*
X125995333Y-92225857D01*
X125947714Y-92130619D01*
X125900095Y-92083000D01*
X125804857Y-92035380D01*
X125566761Y-92035380D01*
X125423904Y-92083000D01*
X125090571Y-92035380D02*
X124852476Y-93035380D01*
X124662000Y-92321095D01*
X124471523Y-93035380D01*
X124233428Y-92035380D01*
X123328666Y-93035380D02*
X123900095Y-93035380D01*
X123614380Y-93035380D02*
X123614380Y-92035380D01*
X123709619Y-92178238D01*
X123804857Y-92273476D01*
X123900095Y-92321095D01*
X142953404Y-83572380D02*
X142953404Y-84381904D01*
X142905785Y-84477142D01*
X142858166Y-84524761D01*
X142762928Y-84572380D01*
X142572452Y-84572380D01*
X142477214Y-84524761D01*
X142429595Y-84477142D01*
X142381976Y-84381904D01*
X142381976Y-83572380D01*
X141381976Y-84572380D02*
X141953404Y-84572380D01*
X141667690Y-84572380D02*
X141667690Y-83572380D01*
X141762928Y-83715238D01*
X141858166Y-83810476D01*
X141953404Y-83858095D01*
X142398690Y-60772190D02*
X142398690Y-61248380D01*
X142732023Y-60248380D02*
X142398690Y-60772190D01*
X142065357Y-60248380D01*
X141208214Y-61248380D02*
X141779642Y-61248380D01*
X141493928Y-61248380D02*
X141493928Y-60248380D01*
X141589166Y-60391238D01*
X141684404Y-60486476D01*
X141779642Y-60534095D01*
X188145833Y-63742261D02*
X188002976Y-63789880D01*
X187764880Y-63789880D01*
X187669642Y-63742261D01*
X187622023Y-63694642D01*
X187574404Y-63599404D01*
X187574404Y-63504166D01*
X187622023Y-63408928D01*
X187669642Y-63361309D01*
X187764880Y-63313690D01*
X187955357Y-63266071D01*
X188050595Y-63218452D01*
X188098214Y-63170833D01*
X188145833Y-63075595D01*
X188145833Y-62980357D01*
X188098214Y-62885119D01*
X188050595Y-62837500D01*
X187955357Y-62789880D01*
X187717261Y-62789880D01*
X187574404Y-62837500D01*
X187241071Y-62789880D02*
X187002976Y-63789880D01*
X186812500Y-63075595D01*
X186622023Y-63789880D01*
X186383928Y-62789880D01*
X185574404Y-63123214D02*
X185574404Y-63789880D01*
X185812500Y-62742261D02*
X186050595Y-63456547D01*
X185431547Y-63456547D01*
X188145833Y-82792261D02*
X188002976Y-82839880D01*
X187764880Y-82839880D01*
X187669642Y-82792261D01*
X187622023Y-82744642D01*
X187574404Y-82649404D01*
X187574404Y-82554166D01*
X187622023Y-82458928D01*
X187669642Y-82411309D01*
X187764880Y-82363690D01*
X187955357Y-82316071D01*
X188050595Y-82268452D01*
X188098214Y-82220833D01*
X188145833Y-82125595D01*
X188145833Y-82030357D01*
X188098214Y-81935119D01*
X188050595Y-81887500D01*
X187955357Y-81839880D01*
X187717261Y-81839880D01*
X187574404Y-81887500D01*
X187241071Y-81839880D02*
X187002976Y-82839880D01*
X186812500Y-82125595D01*
X186622023Y-82839880D01*
X186383928Y-81839880D01*
X185526785Y-81839880D02*
X186002976Y-81839880D01*
X186050595Y-82316071D01*
X186002976Y-82268452D01*
X185907738Y-82220833D01*
X185669642Y-82220833D01*
X185574404Y-82268452D01*
X185526785Y-82316071D01*
X185479166Y-82411309D01*
X185479166Y-82649404D01*
X185526785Y-82744642D01*
X185574404Y-82792261D01*
X185669642Y-82839880D01*
X185907738Y-82839880D01*
X186002976Y-82792261D01*
X186050595Y-82744642D01*
X126621447Y-65746333D02*
X126145257Y-65413000D01*
X126621447Y-65174904D02*
X125621447Y-65174904D01*
X125621447Y-65555857D01*
X125669067Y-65651095D01*
X125716686Y-65698714D01*
X125811924Y-65746333D01*
X125954781Y-65746333D01*
X126050019Y-65698714D01*
X126097638Y-65651095D01*
X126145257Y-65555857D01*
X126145257Y-65174904D01*
X125621447Y-66603476D02*
X125621447Y-66413000D01*
X125669067Y-66317761D01*
X125716686Y-66270142D01*
X125859543Y-66174904D01*
X126050019Y-66127285D01*
X126430971Y-66127285D01*
X126526209Y-66174904D01*
X126573828Y-66222523D01*
X126621447Y-66317761D01*
X126621447Y-66508238D01*
X126573828Y-66603476D01*
X126526209Y-66651095D01*
X126430971Y-66698714D01*
X126192876Y-66698714D01*
X126097638Y-66651095D01*
X126050019Y-66603476D01*
X126002400Y-66508238D01*
X126002400Y-66317761D01*
X126050019Y-66222523D01*
X126097638Y-66174904D01*
X126192876Y-66127285D01*
X127772400Y-58201380D02*
X127772400Y-58915666D01*
X127820019Y-59058523D01*
X127915257Y-59153761D01*
X128058114Y-59201380D01*
X128153352Y-59201380D01*
X126772400Y-59201380D02*
X127343828Y-59201380D01*
X127058114Y-59201380D02*
X127058114Y-58201380D01*
X127153352Y-58344238D01*
X127248590Y-58439476D01*
X127343828Y-58487095D01*
X169095833Y-63742261D02*
X168952976Y-63789880D01*
X168714880Y-63789880D01*
X168619642Y-63742261D01*
X168572023Y-63694642D01*
X168524404Y-63599404D01*
X168524404Y-63504166D01*
X168572023Y-63408928D01*
X168619642Y-63361309D01*
X168714880Y-63313690D01*
X168905357Y-63266071D01*
X169000595Y-63218452D01*
X169048214Y-63170833D01*
X169095833Y-63075595D01*
X169095833Y-62980357D01*
X169048214Y-62885119D01*
X169000595Y-62837500D01*
X168905357Y-62789880D01*
X168667261Y-62789880D01*
X168524404Y-62837500D01*
X168191071Y-62789880D02*
X167952976Y-63789880D01*
X167762500Y-63075595D01*
X167572023Y-63789880D01*
X167333928Y-62789880D01*
X167000595Y-62885119D02*
X166952976Y-62837500D01*
X166857738Y-62789880D01*
X166619642Y-62789880D01*
X166524404Y-62837500D01*
X166476785Y-62885119D01*
X166429166Y-62980357D01*
X166429166Y-63075595D01*
X166476785Y-63218452D01*
X167048214Y-63789880D01*
X166429166Y-63789880D01*
X115953447Y-65619333D02*
X115477257Y-65286000D01*
X115953447Y-65047904D02*
X114953447Y-65047904D01*
X114953447Y-65428857D01*
X115001067Y-65524095D01*
X115048686Y-65571714D01*
X115143924Y-65619333D01*
X115286781Y-65619333D01*
X115382019Y-65571714D01*
X115429638Y-65524095D01*
X115477257Y-65428857D01*
X115477257Y-65047904D01*
X114953447Y-66524095D02*
X114953447Y-66047904D01*
X115429638Y-66000285D01*
X115382019Y-66047904D01*
X115334400Y-66143142D01*
X115334400Y-66381238D01*
X115382019Y-66476476D01*
X115429638Y-66524095D01*
X115524876Y-66571714D01*
X115762971Y-66571714D01*
X115858209Y-66524095D01*
X115905828Y-66476476D01*
X115953447Y-66381238D01*
X115953447Y-66143142D01*
X115905828Y-66047904D01*
X115858209Y-66000285D01*
X121749371Y-62965380D02*
X121749371Y-63774904D01*
X121701752Y-63870142D01*
X121654133Y-63917761D01*
X121558895Y-63965380D01*
X121368419Y-63965380D01*
X121273181Y-63917761D01*
X121225562Y-63870142D01*
X121177943Y-63774904D01*
X121177943Y-62965380D01*
X120749371Y-63060619D02*
X120701752Y-63013000D01*
X120606514Y-62965380D01*
X120368419Y-62965380D01*
X120273181Y-63013000D01*
X120225562Y-63060619D01*
X120177943Y-63155857D01*
X120177943Y-63251095D01*
X120225562Y-63393952D01*
X120796990Y-63965380D01*
X120177943Y-63965380D01*
X169095833Y-82792261D02*
X168952976Y-82839880D01*
X168714880Y-82839880D01*
X168619642Y-82792261D01*
X168572023Y-82744642D01*
X168524404Y-82649404D01*
X168524404Y-82554166D01*
X168572023Y-82458928D01*
X168619642Y-82411309D01*
X168714880Y-82363690D01*
X168905357Y-82316071D01*
X169000595Y-82268452D01*
X169048214Y-82220833D01*
X169095833Y-82125595D01*
X169095833Y-82030357D01*
X169048214Y-81935119D01*
X169000595Y-81887500D01*
X168905357Y-81839880D01*
X168667261Y-81839880D01*
X168524404Y-81887500D01*
X168191071Y-81839880D02*
X167952976Y-82839880D01*
X167762500Y-82125595D01*
X167572023Y-82839880D01*
X167333928Y-81839880D01*
X167048214Y-81839880D02*
X166429166Y-81839880D01*
X166762500Y-82220833D01*
X166619642Y-82220833D01*
X166524404Y-82268452D01*
X166476785Y-82316071D01*
X166429166Y-82411309D01*
X166429166Y-82649404D01*
X166476785Y-82744642D01*
X166524404Y-82792261D01*
X166619642Y-82839880D01*
X166905357Y-82839880D01*
X167000595Y-82792261D01*
X167048214Y-82744642D01*
X113990638Y-74596666D02*
X113990638Y-74263333D01*
X114514447Y-74263333D02*
X113514447Y-74263333D01*
X113514447Y-74739523D01*
X114514447Y-75644285D02*
X114514447Y-75072857D01*
X114514447Y-75358571D02*
X113514447Y-75358571D01*
X113657305Y-75263333D01*
X113752543Y-75168095D01*
X113800162Y-75072857D01*
D11*
X152919500Y-73283578D02*
X152919500Y-72766422D01*
X151499500Y-73283578D02*
X151499500Y-72766422D01*
X145911500Y-63504578D02*
X145911500Y-62987422D01*
X147331500Y-63504578D02*
X147331500Y-62987422D01*
X136513500Y-62987422D02*
X136513500Y-63504578D01*
X137933500Y-62987422D02*
X137933500Y-63504578D01*
X133869500Y-67363078D02*
X133869500Y-66845922D01*
X132449500Y-67363078D02*
X132449500Y-66845922D01*
X146689578Y-85396000D02*
X146172422Y-85396000D01*
X146689578Y-86816000D02*
X146172422Y-86816000D01*
X132211578Y-76275000D02*
X131694422Y-76275000D01*
X132211578Y-74855000D02*
X131694422Y-74855000D01*
X131243000Y-81275422D02*
X131243000Y-81792578D01*
X132663000Y-81275422D02*
X132663000Y-81792578D01*
X119109067Y-69776078D02*
X119109067Y-69258922D01*
X120529067Y-69776078D02*
X120529067Y-69258922D01*
X122815067Y-69258922D02*
X122815067Y-69776078D01*
X121395067Y-69258922D02*
X121395067Y-69776078D01*
X129869000Y-66797422D02*
X129869000Y-67314578D01*
X128449000Y-66797422D02*
X128449000Y-67314578D01*
X152919500Y-81792578D02*
X152919500Y-81275422D01*
X151499500Y-81792578D02*
X151499500Y-81275422D01*
D10*
X127262000Y-85919000D02*
X122062000Y-85919000D01*
X122062000Y-91119000D02*
X127262000Y-91119000D01*
X122062000Y-85919000D02*
X122062000Y-91119000D01*
X127262000Y-91119000D02*
X127262000Y-85919000D01*
X125662000Y-88519000D02*
G75*
G03*
X125662000Y-88519000I-1000000J0D01*
G01*
X137016500Y-71495000D02*
X137016500Y-72170000D01*
X137016500Y-71495000D02*
X137691500Y-71495000D01*
X137016500Y-81845000D02*
X137016500Y-81270000D01*
X147366500Y-81845000D02*
X147366500Y-81170000D01*
X147366500Y-81845000D02*
X146691500Y-81845000D01*
X137016500Y-81845000D02*
X137691500Y-81845000D01*
X137016500Y-81270000D02*
X135741500Y-81270000D01*
X147366500Y-71495000D02*
X147366500Y-72170000D01*
X147366500Y-71495000D02*
X146691500Y-71495000D01*
D11*
X143922500Y-64896000D02*
X139922500Y-64896000D01*
X143922500Y-61596000D02*
X143922500Y-64896000D01*
D10*
X187427324Y-61417280D02*
X187427324Y-61887280D01*
X176477324Y-63987280D02*
X176477324Y-64227280D01*
X176477324Y-61137280D02*
X176477324Y-60337280D01*
X187427324Y-58337280D02*
X187427324Y-58567280D01*
X178477324Y-58337280D02*
X184377324Y-58337280D01*
X185877324Y-58337280D02*
X187427324Y-58337280D01*
X186927324Y-62387280D02*
X182362500Y-62387280D01*
X186927324Y-62387280D02*
G75*
G03*
X187427324Y-61887280I-1J500001D01*
G01*
X182362500Y-62387280D02*
G75*
G03*
X180068178Y-64227280I-866J-2349332D01*
G01*
X178477324Y-58337280D02*
G75*
G03*
X176477324Y-60337280I-15J-1999985D01*
G01*
X187427324Y-80467280D02*
X187427324Y-80937280D01*
X185877324Y-77387280D02*
X187427324Y-77387280D01*
X186927324Y-81437280D02*
X182362500Y-81437280D01*
X176477324Y-83037280D02*
X176477324Y-83277280D01*
X176477324Y-80187280D02*
X176477324Y-79387280D01*
X187427324Y-77387280D02*
X187427324Y-77617280D01*
X178477324Y-77387280D02*
X184377324Y-77387280D01*
X178477324Y-77387280D02*
G75*
G03*
X176477324Y-79387280I-15J-1999985D01*
G01*
X186927324Y-81437280D02*
G75*
G03*
X187427324Y-80937280I-1J500001D01*
G01*
X182362500Y-81437280D02*
G75*
G03*
X180068178Y-83277280I-866J-2349332D01*
G01*
D11*
X125126067Y-65685936D02*
X125126067Y-66140064D01*
X123656067Y-65685936D02*
X123656067Y-66140064D01*
X125916067Y-59506000D02*
X125916067Y-57506000D01*
X116516067Y-53706000D02*
X125916067Y-53706000D01*
X116516067Y-59506000D02*
X116516067Y-57506000D01*
X125916067Y-55606000D02*
X125916067Y-53706000D01*
X116516067Y-55606000D02*
X116516067Y-53706000D01*
D10*
X157427324Y-63987280D02*
X157427324Y-64227280D01*
X166827324Y-58337280D02*
X168377324Y-58337280D01*
X167877324Y-62387280D02*
X163312500Y-62387280D01*
X168377324Y-58337280D02*
X168377324Y-58567280D01*
X159427324Y-58337280D02*
X165327324Y-58337280D01*
X157427324Y-61137280D02*
X157427324Y-60337280D01*
X168377324Y-61417280D02*
X168377324Y-61887280D01*
X163312500Y-62387280D02*
G75*
G03*
X161018178Y-64227280I-866J-2349332D01*
G01*
X167877324Y-62387280D02*
G75*
G03*
X168377324Y-61887280I-1J500001D01*
G01*
X159427324Y-58337280D02*
G75*
G03*
X157427324Y-60337280I-15J-1999985D01*
G01*
D11*
X118014067Y-66140064D02*
X118014067Y-65685936D01*
X116544067Y-66140064D02*
X116544067Y-65685936D01*
X120987467Y-67473000D02*
X120187467Y-67473000D01*
X120987467Y-64353000D02*
X122787467Y-64353000D01*
X120987467Y-64353000D02*
X120187467Y-64353000D01*
X120987467Y-67473000D02*
X121787467Y-67473000D01*
D10*
X159427324Y-77387280D02*
X165327324Y-77387280D01*
X166827324Y-77387280D02*
X168377324Y-77387280D01*
X168377324Y-80467280D02*
X168377324Y-80937280D01*
X157427324Y-80187280D02*
X157427324Y-79387280D01*
X157427324Y-83037280D02*
X157427324Y-83277280D01*
X167877324Y-81437280D02*
X163312500Y-81437280D01*
X168377324Y-77387280D02*
X168377324Y-77617280D01*
X167877324Y-81437280D02*
G75*
G03*
X168377324Y-80937280I-1J500001D01*
G01*
X159427324Y-77387280D02*
G75*
G03*
X157427324Y-79387280I-15J-1999985D01*
G01*
X163312500Y-81437280D02*
G75*
G03*
X161018178Y-83277280I-866J-2349332D01*
G01*
D11*
X116792067Y-74327936D02*
X116792067Y-75532064D01*
X114972067Y-74327936D02*
X114972067Y-75532064D01*
%LPC*%
D12*
X152209500Y-73962500D03*
X152209500Y-72087500D03*
X146621500Y-64183500D03*
X146621500Y-62308500D03*
D13*
X137223500Y-62308500D03*
X137223500Y-64183500D03*
D12*
X133159500Y-68042000D03*
X133159500Y-66167000D03*
D14*
X147368500Y-86106000D03*
X145493500Y-86106000D03*
X132890500Y-75565000D03*
X131015500Y-75565000D03*
D13*
X131953000Y-80596500D03*
X131953000Y-82471500D03*
D12*
X119819067Y-70455000D03*
X119819067Y-68580000D03*
D13*
X122105067Y-68580000D03*
X122105067Y-70455000D03*
X129159000Y-66118500D03*
X129159000Y-67993500D03*
D12*
X152209500Y-82471500D03*
X152209500Y-80596500D03*
D15*
X121562000Y-90369000D03*
X127762000Y-86669000D03*
X121562000Y-86669000D03*
X127762000Y-90369000D03*
D16*
X136491500Y-80670000D03*
X136491500Y-79870000D03*
X136491500Y-79070000D03*
X136491500Y-78270000D03*
X136491500Y-77470000D03*
X136491500Y-76670000D03*
X136491500Y-75870000D03*
X136491500Y-75070000D03*
X136491500Y-74270000D03*
X136491500Y-73470000D03*
X136491500Y-72670000D03*
D17*
X138191500Y-70970000D03*
X138991500Y-70970000D03*
X139791500Y-70970000D03*
X140591500Y-70970000D03*
X141391500Y-70970000D03*
X142191500Y-70970000D03*
X142991500Y-70970000D03*
X143791500Y-70970000D03*
X144591500Y-70970000D03*
X145391500Y-70970000D03*
X146191500Y-70970000D03*
D16*
X147891500Y-72670000D03*
X147891500Y-73470000D03*
X147891500Y-74270000D03*
X147891500Y-75070000D03*
X147891500Y-75870000D03*
X147891500Y-76670000D03*
X147891500Y-77470000D03*
X147891500Y-78270000D03*
X147891500Y-79070000D03*
X147891500Y-79870000D03*
X147891500Y-80670000D03*
D17*
X146191500Y-82370000D03*
X145391500Y-82370000D03*
X144591500Y-82370000D03*
X143791500Y-82370000D03*
X142991500Y-82370000D03*
X142191500Y-82370000D03*
X141391500Y-82370000D03*
X140591500Y-82370000D03*
X139791500Y-82370000D03*
X138991500Y-82370000D03*
X138191500Y-82370000D03*
D18*
X143022500Y-64096000D03*
X140822500Y-64096000D03*
X140822500Y-62396000D03*
X143022500Y-62396000D03*
D19*
X182562500Y-65087500D03*
D20*
X187642500Y-65087500D03*
X177482500Y-65087500D03*
D21*
X178752500Y-62547500D03*
D22*
X175202500Y-62547500D03*
X188652500Y-60007500D03*
D21*
X185102500Y-60007500D03*
D19*
X182562500Y-84137500D03*
D20*
X177482500Y-84137500D03*
X187642500Y-84137500D03*
D21*
X178752500Y-81597500D03*
D22*
X175202500Y-81597500D03*
X188652500Y-79057500D03*
D21*
X185102500Y-79057500D03*
D23*
X124391067Y-65000500D03*
X124391067Y-66825500D03*
D24*
X118326067Y-60206000D03*
X124106067Y-60206000D03*
D25*
X117966067Y-61651000D03*
X118766067Y-61651000D03*
D26*
X119966067Y-61651000D03*
X120966067Y-61651000D03*
X121466067Y-61651000D03*
X122466067Y-61651000D03*
D25*
X123666067Y-61651000D03*
X124466067Y-61651000D03*
X124466067Y-61651000D03*
X123666067Y-61651000D03*
D26*
X122966067Y-61651000D03*
X121966067Y-61651000D03*
X120466067Y-61651000D03*
X119466067Y-61651000D03*
D25*
X118766067Y-61651000D03*
X117966067Y-61651000D03*
D27*
X125536067Y-60736000D03*
X116896067Y-60736000D03*
D28*
X125536067Y-56556000D03*
X116896067Y-56556000D03*
D19*
X163512500Y-65087500D03*
D20*
X168592500Y-65087500D03*
X158432500Y-65087500D03*
D22*
X156152500Y-62547500D03*
D21*
X159702500Y-62547500D03*
D22*
X169602500Y-60007500D03*
D21*
X166052500Y-60007500D03*
D29*
X117279067Y-66825500D03*
X117279067Y-65000500D03*
D30*
X122124967Y-64963000D03*
X122124967Y-65913000D03*
X122124967Y-66863000D03*
X119849967Y-66863000D03*
X119849967Y-65913000D03*
X119849967Y-64963000D03*
D20*
X168592500Y-84137500D03*
D19*
X163512500Y-84137500D03*
D20*
X158432500Y-84137500D03*
D22*
X156152500Y-81597500D03*
D21*
X159702500Y-81597500D03*
D22*
X169602500Y-79057500D03*
D21*
X166052500Y-79057500D03*
D31*
X115882067Y-73530000D03*
X115882067Y-76330000D03*
M02*
